<svg version="1.1" id="Layer_1" xmlns="http://www.w3.org/2000/svg" xmlns:xlink="http://www.w3.org/1999/xlink" x="0px" y="0px"
	 viewBox="0 0 1500 1500" style="enable-background:new 0 0 1500 1500;" xml:space="preserve">
	<style type="text/css">
		.st0{fill:none;stroke:#000000;stroke-width:4;stroke-linecap:round;stroke-linejoin:round;stroke-miterlimit:10;}
	</style>
	<g class="group">
			<path class="spath-loop" d="M94,282L100,280L112,270L123,260L132,249L147,251L161,253L176,254L191,253L206,250L220,245L224,245L220,245L206,250L191,253L176,254L161,253L147,251L132,249L123,260L112,270L100,280L112,270L123,260L132,249L147,251L161,253L176,254L191,253L206,250L220,245L224,245L220,245L206,250L191,253L176,254L161,253L147,251L132,249L123,260L112,270L100,280M94,282L109,285L124,286L138,285L153,281L167,281L181,285L195,291L208,298L221,305L234,313L247,320L261,328L273,336L285,345L297,354L309,363L320,373L330,384L341,395L351,406L360,417L370,429L380,440L389,452L400,463L410,474L419,486L428,498L438,509L441,512L441,514L448,502L459,491L460,489L463,490L454,480L445,468L435,456L426,445L416,433L407,422L398,410L389,397L380,385L372,373L363,360L355,348L348,335L340,322L334,308L328,295L322,281L319,266L322,281L328,295L334,308L340,322L348,335L355,348L363,360L372,373L380,385L389,397L398,410L407,422L416,433L426,445L435,456L445,468L454,480L463,490L454,480L445,468L435,456L426,445L416,433L407,422L398,410L389,397L380,385L372,373L363,360L355,348L348,335L340,322L334,308L328,295L322,281L319,266L318,269L307,279L296,289L296,289L300,304L305,318L303,315L301,316L288,309L275,301L262,294L249,286L236,279L223,272L210,265L223,272L236,279L249,286L262,294L275,301L288,309L301,316L303,315L301,316L288,309L275,301L262,294L249,286L236,279L223,272L210,265L213,264L221,252L229,240L239,228L249,218L261,208L262,210L273,220L284,230L296,240L307,249L319,258L332,266L345,274L356,264L366,254L363,248L353,236L345,224L338,211L332,197L329,182L327,167L329,153L333,139L329,153L327,167L329,182L332,197L338,211L345,224L353,236L363,248L366,254L356,264L345,274L332,266L319,258L307,249L296,240L284,230L273,220L262,210L261,208L249,218L239,228L229,240L221,252L213,264L221,252L229,240L239,228L249,218L261,208L262,210L273,220L284,230L296,240L307,249L319,258L332,266L345,274L356,264L366,254L363,248L353,236L345,224L338,211L332,197L329,182L327,167L329,153L333,139L337,134L326,143L314,153L306,165L301,179L298,192L298,195L298,197L298,195L288,184L278,173L267,163L256,153L245,143L234,132L223,122L212,112L200,110L190,122L179,132L190,122L200,110L212,112L223,122L234,132L245,143L256,153L267,163L278,173L288,184L298,195L298,197L298,195L288,184L278,173L267,163L256,153L245,143L234,132L223,122L212,112L200,110L190,122L179,132L181,131L192,141L203,151L213,162L222,174L230,187L236,201L241,215L242,222L241,215L236,201L230,187L222,174L213,162L203,151L192,141L181,131L192,141L203,151L213,162L222,174L230,187L236,201L241,215L242,222L241,215L236,201L230,187L222,174L213,162L203,151L192,141L181,131L179,132L190,122L200,110L212,112L223,122L234,132L245,143L256,153L267,163L278,173L288,184L298,195L298,192L301,179L306,165L314,153L326,143L337,134L348,123L359,113L370,103L359,113L348,123L337,134L326,143L314,153L306,165L301,179L298,192L301,179L306,165L314,153L326,143L337,134L348,123L359,113L370,103L359,113L348,123L337,134L333,139L329,153L331,149L342,159L352,170L362,181L373,192L383,203L393,214L403,225L412,237L422,248L422,247L434,238L444,226L452,213L458,200L458,199L456,193L464,206L471,219L480,231L487,244L492,256L490,252L487,254L474,262L461,270L447,275L461,270L474,262L487,254L490,252L487,254L474,262L461,270L447,275L461,270L474,262L487,254L490,252L492,256L487,244L480,231L471,219L464,206L456,193L464,206L471,219L480,231L487,244L492,256L487,244L480,231L471,219L464,206L456,193L458,199L458,200L452,213L444,226L434,238L422,247L434,238L444,226L452,213L458,200L458,199L458,200L452,213L444,226L434,238L422,247L422,248L432,259L443,270L451,283L458,289L458,290L470,281L483,273L495,264L506,254L516,243L519,238L521,238L518,234L512,221L503,208L495,196L487,183L478,172L468,160L460,147L451,135L443,123L443,123L431,132L426,144L433,158L436,172L438,187L437,202L433,216L426,230L417,241L426,230L433,216L437,202L438,187L436,172L433,158L426,144L431,132L443,123L443,123L451,135L460,147L468,160L478,172L487,183L495,196L503,208L512,221L518,234L521,238L518,234L512,221L503,208L495,196L487,183L478,172L468,160L460,147L451,135L443,123L443,123L431,132L426,144L433,158L436,172L438,187L437,202L433,216L426,230L417,241L426,230L433,216L437,202L438,187L436,172L433,158L426,144L431,132L443,123L443,123L451,135L460,147L468,160L478,172L487,183L495,196L503,208L512,221L518,234L521,238L519,238L516,243L506,254L495,264L483,273L470,281L458,290L462,296L469,310L478,322L488,332L503,332L518,332L533,333L547,333L533,333L518,332L503,332L488,332L478,322L469,310L462,296L458,290L470,281L483,273L495,264L506,254L516,243L519,238L516,243L506,254L495,264L483,273L470,281L458,290L462,296L469,310L478,322L488,332L503,332L518,332L533,333L547,333L533,333L518,332L503,332L488,332L478,322L469,310L462,296L463,294L477,299L490,307L502,315L514,324L521,331L514,324L502,315L490,307L477,299L463,294L477,299L490,307L502,315L514,324L521,331L514,324L502,315L490,307L477,299L463,294L462,296L458,290L458,289L451,283L443,270L432,259L422,248L412,237L403,225L393,214L383,203L373,192L362,181L352,170L342,159L331,149L342,159L352,170L362,181L373,192L383,203L393,214L403,225L412,237L422,248L432,259L443,270L451,283L458,289L451,283L443,270L432,259L422,248L412,237L403,225L393,214L383,203L373,192L362,181L352,170L342,159L331,149L329,153L327,167L329,182L332,197L338,211L345,224L353,236L363,248L366,254L376,249L385,262L396,272L405,283L405,284L405,283L396,272L385,262L376,249L378,249L384,263L385,271L392,284L385,271L384,263L378,249L376,249L385,262L396,272L405,283L405,284L405,283L396,272L385,262L376,249L378,249L384,263L385,271L392,284L392,285L394,286L400,300L407,314L413,327L419,341L420,343L435,340L450,339L450,339L450,339L435,340L420,343L419,341L413,327L407,314L400,300L394,286L400,300L407,314L413,327L419,341L420,343L435,340L450,339L450,339L450,339L435,340L420,343L419,341L413,327L407,314L400,300L394,286L392,285L407,285L417,296L426,308L423,306L419,307L405,305L419,307L423,306L419,307L405,305L419,307L423,306L426,308L436,320L445,332L446,338L445,332L436,320L426,308L417,296L407,285L392,285L407,285L417,296L426,308L436,320L445,332L446,338L445,332L436,320L426,308L417,296L407,285L392,285L392,284L385,271L384,263L378,249L376,249L366,254L356,264L345,274L332,266L319,258L307,249L296,240L284,230L273,220L262,210L261,208L249,218L239,228L229,240L221,252L213,264L210,265L223,272L236,279L249,286L262,294L275,301L288,309L301,316L303,315L305,318L308,320L305,318L300,304L296,289L296,289L307,279L318,269L307,279L296,289L296,289L300,304L305,318L308,320L305,318L300,304L296,289L296,289L307,279L318,269L319,266L322,281L328,295L334,308L340,322L348,335L355,348L363,360L363,357L373,354L387,350L383,340L377,327L371,313L364,299L358,286L350,273L358,286L364,299L371,313L377,327L383,340L387,350L373,354L363,357L373,354L387,350L383,340L377,327L371,313L364,299L358,286L350,273L358,286L364,299L371,313L377,327L383,340L387,350L373,354L363,357L363,360L372,373L373,371L388,369L393,368L401,381L408,394L413,408L418,422L421,425L418,422L413,408L408,394L401,381L393,368L388,369L373,371L388,369L393,368L401,381L408,394L413,408L418,422L421,425L418,422L413,408L408,394L401,381L393,368L388,369L373,371L372,373L380,385L389,397L398,410L407,422L416,433L419,430L427,418L438,407L441,403L437,389L433,374L431,361L445,356L460,355L462,354L472,365L480,377L489,390L496,403L501,417L506,431L510,446L512,461L514,476L513,491L510,505L506,520L501,534L496,548L497,553L497,555L508,545L517,533L526,521L535,509L537,494L538,479L537,464L536,449L534,434L531,420L527,405L521,391L515,378L508,365L499,353L503,355L510,355L521,365L532,375L543,385L554,395L564,407L573,418L583,430L593,440L603,452L613,463L622,475L630,488L639,500L650,491L659,479L652,466L644,453L638,439L631,426L624,412L618,399L611,385L604,372L597,359L595,347L597,359L604,372L611,385L618,399L624,412L631,426L638,439L644,453L652,466L659,479L650,491L639,500L630,488L622,475L613,463L603,452L593,440L583,430L573,418L564,407L554,395L543,385L532,375L521,365L510,355L503,355L510,355L521,365L532,375L543,385L554,395L564,407L573,418L583,430L593,440L603,452L613,463L622,475L630,488L639,500L650,491L659,479L652,466L644,453L638,439L631,426L624,412L618,399L611,385L604,372L597,359L595,347L592,347L592,349L582,354L572,365L559,366L545,362L530,358L515,357L530,358L545,362L559,366L572,365L582,354L592,349L582,354L572,365L559,366L545,362L530,358L515,357L530,358L545,362L559,366L572,365L582,354L592,349L592,347L587,343L582,330L577,316L582,330L587,343L592,347L587,343L582,330L577,316L582,330L587,343L585,341L584,342L569,338L555,335L546,325L541,311L536,297L531,283L526,268L521,254L526,268L531,283L536,297L541,311L546,325L555,335L569,338L584,342L585,341L584,342L569,338L555,335L546,325L541,311L536,297L531,283L526,268L521,254L520,254L531,244L540,238L547,251L556,263L556,261L570,257L584,250L596,242L607,232L612,227L612,226L614,229L612,226L603,215L593,203L583,192L573,180L583,192L593,203L603,215L612,226L614,229L612,226L603,215L593,203L583,192L573,180L571,184L573,173L571,184L564,197L556,210L546,221L535,231L546,221L556,210L564,197L571,184L573,173L571,184L564,197L556,210L546,221L535,231L546,221L542,222L546,210L552,196L555,182L556,167L554,152L548,138L541,125L548,138L554,152L556,167L555,182L552,196L546,210L542,222L546,210L552,196L555,182L556,167L554,152L548,138L541,125L540,124L551,116L560,108L559,104L567,117L576,129L585,141L594,153L603,165L612,177L621,189L630,201L631,216L625,229L616,241L605,251L593,260L581,269L581,270L581,269L593,260L605,251L616,241L625,229L631,216L630,201L621,189L612,177L603,165L594,153L585,141L576,129L567,117L559,104L567,117L576,129L585,141L594,153L603,165L612,177L621,189L630,201L631,216L625,229L616,241L605,251L593,260L581,269L581,270L581,269L593,260L605,251L616,241L625,229L631,216L630,201L621,189L612,177L603,165L594,153L585,141L576,129L567,117L559,104L560,108L551,116L540,124L551,116L560,108L551,116L540,124L541,125L548,138L554,152L556,167L555,182L552,196L546,210L542,222L546,221L556,210L564,197L571,184L573,180L583,192L593,203L603,215L612,226L612,227L607,232L596,242L584,250L570,257L556,261L570,257L584,250L596,242L607,232L612,227L607,232L596,242L584,250L570,257L556,261L556,263L566,274L579,281L594,285L599,284L601,284L616,286L624,287L628,286L617,296L619,296L631,305L642,314L655,323L666,333L671,335L672,336L674,338L672,336L669,322L664,308L659,293L654,279L648,265L644,251L641,236L644,251L648,265L654,279L659,293L664,308L669,322L672,336L674,338L672,336L669,322L664,308L659,293L654,279L648,265L644,251L641,236L639,236L652,228L660,224L660,220L667,233L676,245L687,255L700,264L714,269L717,269L716,264L709,251L700,239L690,228L694,215L703,203L694,215L690,228L700,239L709,251L716,264L717,269L716,264L709,251L700,239L690,228L694,215L703,203L703,202L716,209L722,210L716,199L709,186L702,173L701,158L709,146L719,135L730,124L744,122L759,124L773,129L787,135L800,142L812,151L822,162L832,174L841,186L847,199L853,213L853,227L845,240L833,250L819,255L833,250L845,240L853,227L853,213L847,199L841,186L832,174L822,162L812,151L800,142L787,135L773,129L759,124L744,122L730,124L719,135L709,146L701,158L702,173L709,186L716,199L722,210L716,199L709,186L702,173L701,158L709,146L719,135L730,124L744,122L759,124L773,129L787,135L800,142L812,151L822,162L832,174L841,186L847,199L853,213L853,227L845,240L833,250L819,255L818,255L816,255L802,253L788,246L802,253L816,255L818,255L816,255L802,253L788,246L802,253L816,255L812,256L824,265L836,273L848,281L860,291L868,297L867,297L860,304L850,315L838,318L824,311L812,303L824,311L838,318L850,315L860,304L867,297L860,304L850,315L838,318L824,311L812,303L815,308L818,323L823,337L826,352L829,362L828,362L818,374L811,385L823,393L835,402L834,398L837,383L841,368L847,355L855,342L866,332L877,322L883,317L877,322L866,332L855,342L847,355L841,368L837,383L834,398L837,383L841,368L847,355L855,342L866,332L877,322L883,317L877,322L866,332L855,342L847,355L841,368L837,383L834,398L835,402L837,405L835,402L823,393L811,385L818,374L828,362L818,374L811,385L823,393L835,402L837,405L835,402L823,393L811,385L818,374L828,362L829,362L826,352L823,337L818,323L815,308L818,323L823,337L826,352L829,362L826,352L823,337L818,323L815,308L812,303L824,311L838,318L850,315L860,304L867,297L868,297L860,291L848,281L836,273L824,265L812,256L824,265L836,273L848,281L860,291L868,297L860,291L848,281L836,273L824,265L812,256L816,255L818,255L819,255L833,250L845,240L853,227L853,213L847,199L841,186L832,174L822,162L812,151L800,142L787,135L773,129L759,124L744,122L730,124L719,135L731,144L722,154L731,166L740,178L750,189L761,199L773,208L786,216L800,222L814,227L828,228L827,213L818,201L808,190L797,180L785,171L773,162L759,155L746,148L732,145L731,145L732,145L746,148L759,155L773,162L785,171L797,180L808,190L818,201L827,213L828,228L814,227L800,222L786,216L773,208L761,199L750,189L740,178L731,166L722,154L731,144L722,154L731,166L740,178L750,189L761,199L773,208L786,216L800,222L814,227L828,228L827,213L818,201L808,190L797,180L785,171L773,162L759,155L746,148L732,145L731,145L732,145L746,148L759,155L773,162L785,171L797,180L808,190L818,201L827,213L828,228L814,227L800,222L786,216L773,208L761,199L750,189L740,178L731,166L722,154L731,144L719,135L709,146L701,158L702,173L709,186L716,199L722,210L716,209L729,216L730,216L729,216L716,209L703,202L716,209L729,216L730,216L729,216L716,209L703,202L703,203L694,215L690,228L700,239L709,251L716,264L717,269L714,269L729,269L740,268L729,269L714,269L700,264L687,255L676,245L667,233L660,220L667,233L676,245L687,255L700,264L714,269L729,269L740,268L729,269L714,269L700,264L687,255L676,245L667,233L660,220L660,224L652,228L639,236L652,228L660,224L652,228L639,236L641,236L644,251L648,265L654,279L659,293L664,308L669,322L672,336L671,335L666,333L655,323L642,314L631,305L619,296L631,305L642,314L655,323L666,333L671,335L666,333L655,323L642,314L631,305L619,296L617,296L604,304L591,311L588,311L601,318L613,327L625,337L636,346L648,356L659,366L669,377L680,388L690,399L700,410L709,421L719,433L730,443L740,454L750,465L760,477L761,477L771,465L784,458L783,457L780,450L773,437L765,424L757,412L750,398L742,385L735,372L727,359L722,345L727,359L735,372L742,385L750,398L757,412L765,424L773,437L780,450L783,457L780,450L773,437L765,424L757,412L750,398L742,385L735,372L727,359L722,345L725,345L739,347L754,350L769,353L783,358L793,360L794,360L794,362L794,360L792,345L788,331L783,317L777,303L769,290L773,284L770,272L757,265L756,273L755,287L753,302L748,316L737,326L724,330L725,315L724,300L724,286L736,276L742,263L736,276L724,286L724,300L725,315L724,330L737,326L748,316L753,302L755,287L756,273L757,265L770,272L773,284L769,290L777,303L783,317L788,331L792,345L794,360L794,362L794,360L792,345L788,331L783,317L777,303L769,290L773,284L770,272L757,265L756,273L755,287L753,302L748,316L737,326L724,330L725,315L724,300L724,286L736,276L742,263L736,276L724,286L724,300L725,315L724,330L737,326L748,316L753,302L755,287L756,273L757,265L770,272L773,284L769,290L777,303L783,317L788,331L792,345L794,360L793,360L783,358L769,353L754,350L739,347L725,345L715,335L708,322L702,308L697,294L702,308L708,322L715,335L725,345L739,347L754,350L769,353L783,358L793,360L783,358L769,353L754,350L739,347L725,345L715,335L708,322L702,308L697,294L696,293L710,292L722,289L710,292L696,293L710,292L722,289L710,292L696,293L697,294L702,308L708,322L715,335L725,345L722,345L727,359L735,372L742,385L750,398L753,399L767,404L780,409L794,415L808,422L821,429L834,437L846,446L858,455L870,464L882,472L894,481L904,488L915,478L927,469L928,469L925,465L915,454L905,443L895,432L885,420L876,408L869,395L863,381L860,366L860,351L861,336L860,351L860,366L863,381L869,395L876,408L885,420L895,432L905,443L915,454L925,465L928,469L925,465L915,454L905,443L895,432L885,420L876,408L869,395L863,381L860,366L860,351L861,336L860,351L860,366L863,381L869,395L876,408L885,420L895,432L905,443L915,454L925,465L928,469L927,469L930,470L927,469L915,478L904,488L894,481L882,472L870,464L858,455L846,446L834,437L821,429L808,422L794,415L780,409L767,404L753,399L767,404L780,409L794,415L808,422L821,429L834,437L846,446L858,455L870,464L882,472L894,481L904,488L915,478L927,469L930,470L927,469L915,478L904,488L894,481L882,472L870,464L858,455L846,446L834,437L821,429L808,422L794,415L780,409L767,404L753,399L750,398L757,412L765,424L773,437L780,450L783,457L784,458L790,457L784,458L771,465L761,477L771,465L784,458L790,457L784,458L771,465L761,477L760,477L762,481L760,477L750,465L740,454L730,443L719,433L709,421L700,410L690,399L680,388L669,377L659,366L648,356L636,346L625,337L613,327L601,318L588,311L574,313L588,311L601,318L613,327L625,337L636,346L648,356L659,366L669,377L680,388L690,399L700,410L709,421L719,433L730,443L740,454L750,465L760,477L762,481L760,477L750,465L740,454L730,443L719,433L709,421L700,410L690,399L680,388L669,377L659,366L648,356L636,346L625,337L613,327L601,318L588,311L574,313L588,311L591,311L591,312L591,311L604,304L617,296L628,286L617,296L604,304L591,311L591,312L591,311L604,304L617,296L628,286L624,287L616,286L601,284L589,276L576,271L589,276L601,284L616,286L624,287L616,286L601,284L589,276L576,271L589,276L601,284L599,284L594,285L579,281L566,274L556,263L547,251L540,238L531,244L520,254L531,244L540,238L547,251L556,263L566,274L579,281L594,285L599,284L594,285L579,281L566,274L556,263L547,251L540,238L531,244L520,254L521,254L526,268L523,264L508,266L497,274L488,286L487,289L483,291L498,289L513,289L528,288L531,289L528,288L513,289L498,289L483,291L498,289L513,289L528,288L531,289L528,288L513,289L498,289L483,291L487,289L488,286L497,274L508,266L523,264L508,266L497,274L488,286L487,289L488,286L497,274L508,266L523,264L526,268L531,283L536,297L541,311L546,325L555,335L569,338L584,342L585,341L587,343L592,347L595,347L597,359L604,372L611,385L618,399L624,412L631,426L638,439L644,453L652,466L659,479L650,491L639,500L630,488L622,475L613,463L603,452L593,440L583,430L573,418L564,407L554,395L543,385L532,375L521,365L510,355L503,355L499,353L496,353L499,353L508,365L515,378L521,391L527,405L531,420L534,434L536,449L537,464L538,479L537,494L535,509L526,521L517,533L508,545L497,555L488,567L479,579L488,567L497,555L508,545L517,533L526,521L535,509L537,494L538,479L537,464L536,449L534,434L531,420L527,405L521,391L515,378L508,365L499,353L496,353L499,353L508,365L515,378L521,391L527,405L531,420L534,434L536,449L537,464L538,479L537,494L535,509L526,521L517,533L508,545L497,555L488,567L479,579L488,567L497,555L497,553L496,548L501,534L506,520L510,505L513,491L514,476L512,461L510,446L506,431L501,417L496,403L489,390L480,377L472,365L462,354L472,365L480,377L489,390L496,403L501,417L506,431L510,446L512,461L514,476L513,491L510,505L506,520L501,534L496,548L497,553L496,548L501,534L506,520L510,505L513,491L514,476L512,461L510,446L506,431L501,417L496,403L489,390L480,377L472,365L462,354L460,355L460,352L460,355L445,356L431,361L433,374L437,389L441,403L438,407L427,418L419,430L427,418L438,407L441,403L437,389L433,374L431,361L445,356L460,355L460,352L460,355L445,356L431,361L433,374L437,389L441,403L438,407L427,418L419,430L416,433L426,445L435,456L445,468L454,480L463,490L460,489L459,491L448,502L441,514L448,502L459,491L460,489L459,491L448,502L441,514L441,512L438,509L428,498L419,486L410,474L400,463L389,452L380,440L370,429L360,417L351,406L341,395L330,384L320,373L309,363L297,354L285,345L273,336L261,328L247,320L234,313L221,305L208,298L195,291L181,285L167,281L153,281L138,285L124,286L109,285L94,282L109,285L124,286L138,285L153,281L167,281L181,285L195,291L208,298L221,305L234,313L247,320L261,328L273,336L285,345L297,354L309,363L320,373L330,384L341,395L351,406L360,417L370,429L380,440L389,452L400,463L410,474L419,486L428,498L438,509L441,512L438,509L428,498L419,486L410,474L400,463L389,452L380,440L370,429L360,417L351,406L341,395L330,384L320,373L309,363L297,354L285,345L273,336L261,328L247,320L234,313L221,305L208,298L195,291L181,285L167,281L153,281L138,285L124,286L109,285L94,282" style="stroke: rgb(0, 0, 0); fill: none;">
		</path>
			<path class="spath-loop" d="M955,275L953,276L960,264L970,252L984,249L999,248L1014,248L1029,248L1036,250L1036,250L1036,252L1036,250L1050,247L1062,239L1072,227L1078,214L1077,199L1072,185L1065,172L1056,160L1046,149L1035,139L1023,129L1026,123L1036,112L1049,113L1061,122L1073,131L1085,140L1096,150L1106,162L1116,173L1126,184L1135,195L1126,184L1116,173L1106,162L1096,150L1085,140L1073,131L1061,122L1049,113L1036,112L1026,123L1023,129L1035,139L1046,149L1056,160L1065,172L1072,185L1077,199L1078,214L1072,227L1062,239L1050,247L1036,250L1036,252L1036,250L1050,247L1062,239L1072,227L1078,214L1077,199L1072,185L1065,172L1056,160L1046,149L1035,139L1023,129L1026,123L1036,112L1049,113L1061,122L1073,131L1085,140L1096,150L1106,162L1116,173L1126,184L1135,195L1126,184L1116,173L1106,162L1096,150L1085,140L1073,131L1061,122L1049,113L1036,112L1026,123L1023,129L1035,139L1046,149L1056,160L1065,172L1072,185L1077,199L1078,214L1072,227L1062,239L1050,247L1036,250L1036,250L1029,248L1014,248L999,248L984,249L970,252L960,264L953,276L960,264L970,252L984,249L999,248L1014,248L1029,248L1036,250L1029,248L1014,248L999,248L984,249L970,252L960,264L953,276M955,275L970,275L985,275L1000,276L1015,277L1030,281L1043,287L1056,294L1070,302L1082,310L1095,318L1108,326L1120,335L1131,344L1143,353L1155,363L1167,372L1178,382L1189,392L1200,402L1211,412L1222,423L1231,434L1241,446L1251,457L1261,469L1270,480L1279,492L1286,502L1287,500L1298,490L1302,477L1291,466L1281,455L1272,443L1263,431L1255,419L1245,407L1236,395L1228,383L1219,371L1210,358L1202,346L1194,333L1185,321L1184,306L1182,312L1176,303L1169,290L1164,276L1160,262L1164,276L1169,290L1176,303L1182,312L1176,303L1169,290L1164,276L1160,262L1161,258L1162,258L1162,258L1162,258L1175,265L1187,270L1198,260L1208,249L1202,246L1192,235L1183,223L1174,211L1167,198L1161,184L1157,169L1157,155L1161,140L1171,129L1182,119L1193,109L1182,119L1171,129L1161,140L1157,155L1157,169L1161,184L1167,198L1174,211L1183,223L1192,235L1202,246L1208,249L1198,260L1187,270L1175,265L1162,258L1162,258L1162,258L1175,265L1187,270L1198,260L1208,249L1202,246L1192,235L1183,223L1174,211L1167,198L1161,184L1157,169L1157,155L1161,140L1171,129L1182,119L1193,109L1182,119L1171,129L1161,140L1159,143L1152,149L1143,161L1136,174L1133,189L1136,174L1143,161L1152,149L1159,143L1152,149L1143,161L1136,174L1133,189L1136,174L1143,161L1152,149L1159,143L1161,140L1157,155L1157,169L1161,184L1167,198L1174,211L1183,223L1192,235L1202,246L1208,249L1198,260L1187,270L1175,265L1162,258L1161,258L1151,269L1143,281L1143,296L1145,309L1145,310L1149,318L1145,310L1133,301L1120,293L1108,285L1094,278L1081,272L1066,267L1054,261L1063,250L1074,240L1084,229L1094,218L1101,205L1094,218L1084,229L1074,240L1063,250L1054,261L1066,267L1081,272L1094,278L1108,285L1120,293L1133,301L1145,310L1149,318L1145,310L1133,301L1120,293L1108,285L1094,278L1081,272L1066,267L1054,261L1063,250L1074,240L1084,229L1094,218L1101,205L1094,218L1084,229L1074,240L1063,250L1054,261L1066,267L1081,272L1094,278L1108,285L1120,293L1133,301L1145,310L1145,309L1143,296L1143,281L1151,269L1161,258L1160,255L1148,246L1136,236L1125,227L1113,217L1102,207L1113,217L1125,227L1136,236L1148,246L1160,255L1161,258L1151,269L1143,281L1143,296L1145,309L1143,296L1143,281L1151,269L1161,258L1160,255L1148,246L1136,236L1125,227L1113,217L1102,207L1113,217L1125,227L1136,236L1148,246L1160,255L1161,258L1160,262L1164,276L1169,290L1176,303L1182,312L1184,306L1187,292L1193,278L1203,266L1209,275L1206,289L1209,304L1211,304L1226,303L1240,307L1252,316L1260,329L1266,343L1272,357L1276,371L1279,386L1280,394L1279,386L1276,371L1272,357L1266,343L1260,329L1252,316L1240,307L1226,303L1211,304L1226,303L1240,307L1252,316L1260,329L1266,343L1272,357L1276,371L1279,386L1280,394L1279,386L1276,371L1272,357L1266,343L1260,329L1252,316L1240,307L1226,303L1211,304L1209,304L1212,318L1217,332L1224,345L1233,358L1242,370L1252,381L1263,391L1274,401L1287,409L1299,418L1312,425L1325,433L1338,440L1352,446L1356,446L1357,445L1347,434L1337,423L1327,411L1318,399L1310,387L1304,373L1303,367L1301,367L1303,364L1301,367L1290,377L1281,388L1290,377L1301,367L1303,364L1301,367L1290,377L1281,388L1290,377L1301,367L1303,367L1304,373L1310,387L1318,399L1327,411L1337,423L1347,434L1357,445L1370,448L1383,441L1387,427L1386,412L1382,398L1376,384L1369,371L1361,358L1352,346L1341,336L1329,327L1318,318L1329,327L1341,336L1352,346L1361,358L1369,371L1376,384L1382,398L1386,412L1387,427L1383,441L1370,448L1357,445L1347,434L1337,423L1327,411L1318,399L1310,387L1304,373L1303,367L1304,373L1310,387L1318,399L1327,411L1337,423L1347,434L1357,445L1370,448L1383,441L1387,427L1386,412L1382,398L1376,384L1369,371L1361,358L1352,346L1341,336L1329,327L1318,318L1329,327L1341,336L1352,346L1361,358L1369,371L1376,384L1382,398L1386,412L1387,427L1383,441L1370,448L1367,448L1375,436L1385,431L1383,430L1381,426L1369,416L1360,404L1352,392L1344,379L1337,366L1331,352L1325,338L1321,324L1325,338L1331,352L1337,366L1344,379L1352,392L1360,404L1369,416L1381,426L1383,430L1381,426L1369,416L1360,404L1352,392L1344,379L1337,366L1331,352L1325,338L1321,324L1325,338L1331,352L1337,366L1344,379L1352,392L1360,404L1369,416L1381,426L1383,430L1385,431L1375,436L1367,448L1375,436L1385,431L1375,436L1367,448L1370,448L1357,445L1356,446L1352,446L1338,440L1325,433L1312,425L1299,418L1287,409L1274,401L1263,391L1252,381L1242,370L1233,358L1224,345L1217,332L1212,318L1209,304L1206,289L1209,275L1222,268L1237,269L1251,273L1265,278L1279,284L1292,290L1279,284L1265,278L1251,273L1237,269L1222,268L1209,275L1206,289L1209,304L1212,318L1217,332L1224,345L1233,358L1242,370L1252,381L1263,391L1274,401L1287,409L1299,418L1312,425L1325,433L1338,440L1352,446L1356,446L1352,446L1338,440L1325,433L1312,425L1299,418L1287,409L1274,401L1263,391L1252,381L1242,370L1233,358L1224,345L1217,332L1212,318L1209,304L1206,289L1209,275L1222,268L1237,269L1251,273L1265,278L1279,284L1292,290L1294,290L1282,299L1270,295L1259,285L1244,282L1230,286L1218,295L1215,302L1218,295L1230,286L1244,282L1259,285L1270,295L1282,299L1294,290L1300,293L1294,290L1282,299L1270,295L1259,285L1244,282L1230,286L1218,295L1215,302L1218,295L1230,286L1244,282L1259,285L1270,295L1282,299L1294,290L1300,293L1294,290L1292,290L1279,284L1265,278L1251,273L1237,269L1222,268L1209,275L1203,266L1214,257L1227,249L1242,248L1257,248L1272,250L1287,253L1297,255L1299,255L1297,251L1300,237L1311,226L1323,219L1311,226L1300,237L1297,251L1299,255L1297,251L1300,237L1311,226L1323,219L1326,217L1335,229L1339,243L1343,258L1347,272L1349,287L1349,288L1348,288L1360,298L1373,303L1376,304L1378,308L1378,309L1383,323L1387,337L1390,351L1390,352L1390,351L1387,337L1383,323L1378,309L1376,294L1375,279L1376,294L1378,309L1383,323L1387,337L1390,351L1390,352L1390,351L1387,337L1383,323L1378,309L1376,294L1375,279L1379,283L1372,270L1371,267L1372,270L1379,283L1387,296L1393,309L1400,323L1407,336L1415,349L1423,362L1431,374L1439,387L1447,399L1454,413L1453,421L1438,420L1423,421L1411,427L1403,439L1393,450L1382,460L1368,466L1353,467L1338,466L1324,462L1310,456L1297,448L1284,440L1272,432L1260,424L1272,432L1284,440L1297,448L1310,456L1324,462L1338,466L1353,467L1368,466L1382,460L1393,450L1403,439L1411,427L1423,421L1438,420L1453,421L1454,413L1447,399L1439,387L1431,374L1423,362L1415,349L1407,336L1400,323L1393,309L1387,296L1379,283L1372,270L1371,267L1372,270L1379,283L1387,296L1393,309L1400,323L1407,336L1415,349L1423,362L1431,374L1439,387L1447,399L1454,413L1453,421L1438,420L1423,421L1411,427L1403,439L1393,450L1382,460L1368,466L1353,467L1338,466L1324,462L1310,456L1297,448L1284,440L1272,432L1260,424L1272,432L1284,440L1297,448L1310,456L1324,462L1338,466L1353,467L1368,466L1382,460L1393,450L1403,439L1411,427L1423,421L1438,420L1453,421L1459,420L1459,417L1468,405L1478,394L1483,388L1478,394L1468,405L1459,417L1468,405L1478,394L1483,388L1478,394L1468,405L1459,417L1459,420L1474,422L1488,424L1503,426L1518,429L1519,429L1516,419L1510,406L1505,392L1499,378L1493,364L1486,351L1479,337L1471,325L1469,310L1471,325L1479,337L1486,351L1493,364L1499,378L1505,392L1510,406L1516,419L1519,429L1516,419L1510,406L1505,392L1499,378L1493,364L1486,351L1479,337L1471,325L1469,310L1471,325L1471,328L1472,343L1479,354L1487,355L1479,354L1472,343L1471,328L1472,343L1479,354L1487,355L1479,354L1472,343L1471,328L1471,325L1479,337L1486,351L1493,364L1499,378L1505,392L1505,394L1493,390L1481,383L1477,368L1475,354L1477,368L1481,383L1493,390L1505,394L1493,390L1481,383L1477,368L1475,354L1477,368L1481,383L1493,390L1505,394L1505,392L1510,406L1516,419L1519,429L1518,429L1526,434L1518,429L1503,426L1488,424L1474,422L1459,420L1474,422L1488,424L1503,426L1518,429L1526,434L1518,429L1503,426L1488,424L1474,422L1459,420L1453,421L1454,413L1447,399L1439,387L1431,374L1423,362L1415,349L1407,336L1400,323L1393,309L1387,296L1379,283L1375,279L1376,294L1378,309L1378,308L1368,320L1376,332L1384,345L1393,356L1399,370L1406,384L1411,398L1413,413L1414,422L1413,413L1411,398L1406,384L1399,370L1393,356L1384,345L1376,332L1368,320L1378,308L1368,320L1376,332L1384,345L1393,356L1399,370L1406,384L1411,398L1413,413L1414,422L1413,413L1411,398L1406,384L1399,370L1393,356L1384,345L1376,332L1368,320L1378,308L1376,304L1373,303L1360,298L1348,288L1337,279L1329,266L1323,252L1320,238L1323,223L1331,211L1342,202L1331,211L1323,223L1320,238L1323,252L1329,266L1337,279L1348,288L1360,298L1373,303L1376,304L1373,303L1360,298L1348,288L1337,279L1329,266L1323,252L1320,238L1323,223L1331,211L1342,202L1331,211L1328,212L1324,203L1320,189L1318,174L1328,164L1340,154L1328,164L1318,174L1320,189L1324,203L1328,212L1324,203L1320,189L1318,174L1328,164L1340,154L1339,157L1348,169L1357,181L1365,194L1372,206L1380,219L1387,232L1395,245L1402,259L1409,272L1416,285L1424,298L1431,311L1436,317L1437,315L1439,329L1437,315L1435,300L1435,285L1432,270L1430,255L1427,241L1424,226L1421,211L1416,197L1412,183L1423,175L1433,164L1423,175L1412,183L1416,197L1421,211L1424,226L1427,241L1430,255L1432,270L1435,285L1435,300L1437,315L1439,329L1437,315L1435,300L1435,285L1432,270L1430,255L1427,241L1424,226L1421,211L1416,197L1412,183L1423,175L1433,164L1434,167L1441,180L1448,194L1455,207L1461,221L1467,228L1467,228L1471,242L1477,256L1478,257L1482,271L1488,285L1494,299L1496,303L1494,299L1488,285L1482,271L1478,257L1482,271L1488,285L1494,299L1496,303L1494,299L1488,285L1482,271L1478,257L1477,256L1489,265L1496,278L1500,293L1498,307L1502,322L1509,335L1510,336L1512,341L1517,354L1521,361L1520,363L1525,377L1532,391L1539,404L1545,418L1546,414L1560,418L1573,426L1587,433L1600,440L1612,448L1625,457L1637,466L1649,475L1661,484L1673,493L1684,502L1693,492L1703,481L1695,473L1684,462L1674,451L1665,439L1656,427L1648,414L1642,400L1638,386L1635,371L1637,356L1639,342L1651,332L1658,324L1648,335L1640,330L1626,323L1640,330L1648,335L1658,324L1651,332L1639,342L1637,356L1635,371L1638,386L1642,400L1648,414L1656,427L1665,439L1674,451L1684,462L1695,473L1703,481L1693,492L1684,502L1673,493L1661,484L1649,475L1637,466L1625,457L1612,448L1600,440L1587,433L1573,426L1560,418L1546,414L1560,418L1573,426L1587,433L1600,440L1612,448L1625,457L1637,466L1649,475L1661,484L1673,493L1684,502L1693,492L1703,481L1695,473L1684,462L1674,451L1665,439L1656,427L1648,414L1642,400L1638,386L1635,371L1637,356L1639,342L1651,332L1658,324L1648,335L1640,330L1626,323L1625,323L1634,311L1635,308L1623,300L1611,291L1600,282L1611,291L1623,300L1635,308L1623,300L1611,291L1600,282L1611,291L1623,300L1635,308L1634,311L1638,309L1634,311L1625,323L1612,324L1598,319L1584,314L1586,327L1589,342L1592,356L1595,371L1593,384L1584,396L1588,399L1601,406L1615,411L1613,408L1610,393L1612,378L1617,364L1626,352L1638,345L1626,352L1617,364L1612,378L1610,393L1613,408L1615,411L1601,406L1588,399L1584,396L1593,384L1595,371L1592,356L1589,342L1586,327L1584,314L1598,319L1612,324L1625,323L1634,311L1638,309L1634,311L1625,323L1612,324L1598,319L1584,314L1586,327L1589,342L1592,356L1595,371L1593,384L1584,396L1588,399L1601,406L1615,411L1613,408L1610,393L1612,378L1617,364L1626,352L1638,345L1626,352L1617,364L1612,378L1610,393L1613,408L1615,411L1601,406L1588,399L1584,396L1593,384L1595,371L1592,356L1589,342L1586,327L1584,314L1598,319L1612,324L1625,323L1626,323L1640,330L1648,335L1648,335L1652,338L1665,346L1678,353L1691,361L1703,369L1716,378L1727,387L1738,398L1748,408L1759,419L1770,429L1781,439L1792,450L1802,461L1812,472L1823,482L1833,493L1844,504L1854,515L1863,527L1875,520L1884,509L1878,504L1867,493L1857,483L1847,472L1838,459L1829,447L1821,435L1812,423L1803,411L1795,398L1787,386L1779,373L1771,360L1779,373L1787,386L1795,398L1803,411L1812,423L1821,435L1829,447L1838,459L1847,472L1857,483L1867,493L1878,504L1884,509L1875,520L1863,527L1854,515L1844,504L1833,493L1823,482L1812,472L1802,461L1792,450L1781,439L1770,429L1759,419L1748,408L1738,398L1727,387L1716,378L1703,369L1691,361L1678,353L1665,346L1652,338L1648,335L1652,338L1665,346L1678,353L1691,361L1703,369L1716,378L1727,387L1738,398L1748,408L1759,419L1770,429L1781,439L1792,450L1802,461L1812,472L1823,482L1833,493L1844,504L1854,515L1863,527L1875,520L1884,509L1878,504L1867,493L1857,483L1847,472L1838,459L1829,447L1821,435L1812,423L1803,411L1795,398L1787,386L1779,373L1771,360L1770,357L1761,345L1753,333L1746,320L1739,306L1732,293L1730,290L1719,300L1713,311L1717,326L1721,340L1724,342L1712,334L1699,327L1686,320L1673,313L1659,306L1646,299L1632,294L1625,286L1636,276L1646,265L1655,253L1665,242L1671,232L1683,241L1694,252L1706,261L1718,269L1730,278L1743,286L1756,293L1760,298L1766,284L1771,279L1771,278L1779,291L1785,300L1779,291L1771,278L1776,273L1775,272L1765,261L1755,249L1747,236L1741,223L1735,209L1730,195L1731,181L1741,170L1751,160L1741,171L1730,181L1728,170L1736,158L1732,162L1722,172L1714,185L1709,199L1704,213L1709,199L1714,185L1722,172L1732,162L1736,158L1728,170L1730,181L1741,171L1751,160L1741,170L1731,181L1730,195L1735,209L1741,223L1747,236L1755,249L1765,261L1775,272L1776,273L1771,278L1779,291L1785,300L1779,291L1771,278L1776,273L1775,272L1765,261L1755,249L1747,236L1741,223L1735,209L1730,195L1731,181L1741,170L1751,160L1741,171L1730,181L1728,170L1736,158L1732,162L1722,172L1714,185L1709,199L1704,213L1709,199L1714,185L1722,172L1732,162L1736,158L1728,170L1730,181L1741,171L1751,160L1750,163L1762,173L1772,184L1783,195L1793,206L1803,217L1812,228L1822,240L1832,251L1840,257L1841,258L1847,244L1850,230L1851,215L1849,200L1844,186L1837,173L1835,168L1832,167L1843,158L1851,146L1852,148L1862,159L1873,170L1883,181L1893,192L1902,204L1911,216L1920,228L1928,241L1932,255L1927,268L1917,280L1906,290L1894,300L1881,306L1880,307L1881,306L1894,300L1906,290L1917,280L1927,268L1932,255L1928,241L1920,228L1911,216L1902,204L1893,192L1883,181L1873,170L1862,159L1852,148L1862,159L1873,170L1883,181L1893,192L1902,204L1911,216L1920,228L1928,241L1932,255L1927,268L1917,280L1906,290L1894,300L1881,306L1880,307L1881,306L1894,300L1906,290L1917,280L1927,268L1932,255L1928,241L1920,228L1911,216L1902,204L1893,192L1883,181L1873,170L1862,159L1852,148L1851,146L1843,158L1832,167L1843,158L1851,146L1843,158L1832,167L1835,168L1837,173L1844,186L1849,200L1851,215L1850,230L1847,244L1841,258L1849,270L1858,282L1868,294L1877,305L1887,316L1894,329L1902,342L1909,340L1924,339L1909,340L1902,342L1894,329L1887,316L1877,305L1868,294L1858,282L1849,270L1841,258L1847,244L1850,230L1851,215L1849,200L1844,186L1837,173L1835,168L1837,173L1844,186L1849,200L1851,215L1850,230L1847,244L1841,258L1849,270L1858,282L1868,294L1877,305L1887,316L1894,329L1902,342L1909,340L1924,339L1909,340L1902,342L1894,329L1887,316L1889,317L1902,322L1915,330L1927,339L1941,341L1956,345L1966,346L1956,345L1941,341L1927,339L1915,330L1902,322L1889,317L1902,322L1915,330L1927,339L1941,341L1956,345L1966,346L1956,345L1941,341L1927,339L1915,330L1902,322L1889,317L1887,316L1877,305L1868,294L1858,282L1849,270L1850,270L1858,257L1866,244L1872,231L1874,224L1871,221L1882,231L1890,243L1899,255L1907,268L1908,270L1907,270L1900,282L1887,290L1874,298L1887,290L1900,282L1907,270L1900,282L1887,290L1874,298L1887,290L1900,282L1907,270L1908,270L1907,268L1899,255L1890,243L1882,231L1871,221L1882,231L1890,243L1899,255L1907,268L1908,270L1907,268L1899,255L1890,243L1882,231L1871,221L1874,224L1872,231L1866,244L1858,257L1850,270L1858,257L1866,244L1872,231L1874,224L1872,231L1866,244L1858,257L1850,270L1849,270L1841,258L1840,257L1832,251L1822,240L1812,228L1803,217L1793,206L1783,195L1772,184L1762,173L1750,163L1762,173L1772,184L1783,195L1793,206L1803,217L1812,228L1822,240L1832,251L1840,257L1832,251L1822,240L1812,228L1803,217L1793,206L1783,195L1772,184L1762,173L1750,163L1751,160L1741,170L1731,181L1730,195L1735,209L1741,223L1747,236L1755,249L1765,261L1775,272L1776,273L1771,278L1771,279L1766,284L1760,298L1756,293L1743,286L1730,278L1718,269L1706,261L1694,252L1683,241L1671,232L1665,242L1655,253L1646,265L1636,276L1625,286L1632,294L1646,299L1659,306L1673,313L1686,320L1699,327L1712,334L1724,342L1721,340L1717,326L1713,311L1719,300L1730,290L1732,293L1739,306L1746,320L1753,333L1761,345L1770,357L1784,357L1799,355L1809,352L1808,349L1802,335L1796,321L1799,331L1794,332L1781,336L1788,327L1792,314L1786,301L1792,314L1788,327L1781,336L1794,332L1799,331L1796,321L1802,335L1808,349L1809,352L1799,355L1784,357L1770,357L1761,345L1753,333L1746,320L1739,306L1732,293L1730,290L1719,300L1713,311L1717,326L1721,340L1724,342L1712,334L1699,327L1686,320L1673,313L1659,306L1646,299L1632,294L1625,286L1636,276L1646,265L1655,253L1665,242L1671,232L1683,241L1694,252L1706,261L1718,269L1730,278L1743,286L1756,293L1760,298L1766,284L1771,279L1766,284L1760,298L1756,293L1743,286L1730,278L1718,269L1706,261L1694,252L1683,241L1671,232L1665,242L1655,253L1646,265L1636,276L1625,286L1632,294L1646,299L1659,306L1673,313L1686,320L1699,327L1712,334L1724,342L1721,340L1717,326L1713,311L1719,300L1730,290L1732,293L1739,306L1746,320L1753,333L1761,345L1770,357L1784,357L1799,355L1809,352L1808,349L1802,335L1796,321L1799,331L1794,332L1781,336L1788,327L1792,314L1786,301L1792,314L1788,327L1781,336L1794,332L1799,331L1796,321L1802,335L1808,349L1809,352L1799,355L1784,357L1770,357L1771,360L1779,373L1782,376L1792,374L1807,371L1819,371L1821,375L1827,388L1833,402L1839,416L1845,429L1853,443L1854,437L1862,424L1873,417L1866,405L1860,391L1855,377L1850,364L1855,377L1860,391L1866,405L1873,417L1862,424L1854,437L1853,443L1845,429L1839,416L1833,402L1827,388L1821,375L1819,371L1807,371L1792,374L1782,376L1792,374L1807,371L1819,371L1821,375L1827,388L1833,402L1839,416L1845,429L1853,443L1854,437L1862,424L1873,417L1866,405L1860,391L1855,377L1850,364L1852,364L1866,360L1864,343L1863,343L1854,331L1845,319L1836,307L1827,295L1818,284L1808,272L1798,261L1791,248L1798,261L1808,272L1818,284L1827,295L1836,307L1845,319L1854,331L1863,343L1864,343L1863,343L1854,331L1845,319L1836,307L1827,295L1818,284L1808,272L1798,261L1791,248L1798,261L1808,272L1818,284L1827,295L1836,307L1845,319L1854,331L1853,333L1851,330L1837,329L1831,330L1837,329L1851,330L1853,333L1855,342L1840,345L1839,345L1831,332L1825,318L1821,307L1833,305L1821,307L1825,318L1831,332L1839,345L1840,345L1855,342L1853,333L1851,330L1837,329L1831,330L1837,329L1851,330L1853,333L1855,342L1840,345L1839,345L1831,332L1825,318L1821,307L1833,305L1821,307L1819,305L1816,299L1809,286L1804,272L1809,286L1816,299L1819,305L1816,299L1809,286L1804,272L1809,286L1816,299L1819,305L1821,307L1825,318L1831,332L1839,345L1840,345L1855,342L1853,333L1854,331L1863,343L1864,343L1866,360L1881,362L1889,374L1899,386L1907,398L1914,411L1921,425L1927,438L1934,452L1938,466L1940,481L1940,496L1940,511L1939,526L1937,541L1935,556L1936,557L1940,554L1948,541L1954,527L1959,513L1962,498L1964,483L1965,468L1962,454L1955,440L1949,427L1942,414L1935,400L1927,387L1920,374L1912,363L1920,374L1927,387L1935,400L1942,414L1949,427L1955,440L1962,454L1965,468L1964,483L1962,498L1959,513L1954,527L1948,541L1940,554L1936,557L1940,554L1948,541L1954,527L1959,513L1962,498L1964,483L1965,468L1962,454L1955,440L1949,427L1942,414L1935,400L1927,387L1920,374L1912,363L1917,364L1931,363L1933,363L1948,367L1962,372L1976,378L1983,381L1993,370L2000,361L1986,355L1972,350L1963,338L1958,324L1952,311L1945,297L1940,283L1947,270L1957,259L1959,257L1956,252L1962,266L1969,279L1978,291L1989,302L2002,309L2016,313L2031,313L2034,313L2031,313L2016,313L2002,309L1989,302L1978,291L1969,279L1962,266L1956,252L1962,266L1969,279L1978,291L1989,302L2002,309L2016,313L2031,313L2034,313L2031,313L2016,313L2002,309L1989,302L1978,291L1969,279L1962,266L1956,252L1959,257L1957,259L1947,270L1940,283L1945,297L1952,311L1958,324L1963,338L1972,350L1986,355L2000,361L1993,370L1983,381L1976,378L1962,372L1948,367L1933,363L1931,363L1917,364L1931,363L1933,363L1948,367L1962,372L1976,378L1983,381L1993,370L2000,361L1986,355L1972,350L1963,338L1958,324L1952,311L1945,297L1940,283L1947,270L1957,259L1959,257L1957,259L1947,270L1940,283L1945,297L1952,311L1958,324L1963,338L1972,350L1986,355L2000,361L1993,370L1983,381L1976,378L1962,372L1948,367L1933,363L1931,363L1917,364L1912,363L1920,374L1920,370L1933,376L1945,385L1957,394L1968,404L1979,415L1989,426L2000,436L2010,447L2020,458L2031,469L2042,479L2052,490L2062,502L2072,513L2078,517L2079,518L2079,513L2087,501L2094,488L2086,475L2077,463L2068,451L2059,439L2050,427L2041,415L2033,402L2026,389L2019,376L2011,363L2005,349L1999,336L2004,334L2018,329L2030,320L2039,308L2030,320L2018,329L2004,334L1999,336L2005,349L2011,363L2019,376L2026,389L2033,402L2041,415L2050,427L2059,439L2068,451L2077,463L2086,475L2094,488L2087,501L2079,513L2079,518L2079,513L2087,501L2094,488L2086,475L2077,463L2068,451L2059,439L2050,427L2041,415L2033,402L2026,389L2019,376L2011,363L2005,349L1999,336L2004,334L2018,329L2030,320L2039,308L2030,320L2018,329L2004,334L1999,336L2005,349L2011,363L2019,376L2026,389L2033,402L2041,415L2050,427L2059,439L2068,451L2077,463L2086,475L2094,488L2087,501L2079,513L2079,518L2078,517L2072,513L2062,502L2052,490L2042,479L2031,469L2020,458L2010,447L2000,436L1989,426L1979,415L1968,404L1957,394L1945,385L1933,376L1920,370L1933,376L1945,385L1957,394L1968,404L1979,415L1989,426L2000,436L2010,447L2020,458L2031,469L2042,479L2052,490L2062,502L2072,513L2078,517L2072,513L2062,502L2052,490L2042,479L2031,469L2020,458L2010,447L2000,436L1989,426L1979,415L1968,404L1957,394L1945,385L1933,376L1920,370L1920,374L1927,387L1935,400L1942,414L1949,427L1955,440L1962,454L1965,468L1964,483L1962,498L1959,513L1954,527L1948,541L1940,554L1936,557L1935,556L1927,569L1922,577L1927,569L1935,556L1937,541L1939,526L1940,511L1940,496L1940,481L1938,466L1934,452L1927,438L1921,425L1914,411L1907,398L1899,386L1889,374L1881,362L1866,360L1852,364L1866,360L1881,362L1889,374L1899,386L1907,398L1914,411L1921,425L1927,438L1934,452L1938,466L1940,481L1940,496L1940,511L1939,526L1937,541L1935,556L1927,569L1922,577L1927,569L1935,556L1937,541L1939,526L1940,511L1940,496L1940,481L1938,466L1934,452L1927,438L1921,425L1914,411L1907,398L1899,386L1889,374L1881,362L1866,360L1852,364L1850,364L1855,377L1860,391L1866,405L1873,417L1862,424L1854,437L1853,443L1845,429L1839,416L1833,402L1827,388L1821,375L1819,371L1807,371L1792,374L1782,376L1779,373L1787,386L1795,398L1803,411L1812,423L1821,435L1829,447L1838,459L1847,472L1857,483L1867,493L1878,504L1884,509L1875,520L1863,527L1854,515L1844,504L1833,493L1823,482L1812,472L1802,461L1792,450L1781,439L1770,429L1759,419L1748,408L1738,398L1727,387L1716,378L1703,369L1691,361L1678,353L1665,346L1652,338L1648,335L1648,335L1658,324L1651,332L1639,342L1637,356L1635,371L1638,386L1642,400L1648,414L1656,427L1665,439L1674,451L1684,462L1695,473L1703,481L1693,492L1684,502L1673,493L1661,484L1649,475L1637,466L1625,457L1612,448L1600,440L1587,433L1573,426L1560,418L1546,414L1545,418L1551,431L1556,445L1562,459L1567,474L1570,488L1562,500L1555,512L1556,514L1550,507L1541,495L1530,485L1519,475L1506,466L1494,459L1480,452L1466,446L1452,441L1438,438L1423,436L1408,436L1423,436L1438,438L1452,441L1466,446L1480,452L1494,459L1506,466L1519,475L1530,485L1541,495L1550,507L1556,514L1550,507L1541,495L1530,485L1519,475L1506,466L1494,459L1480,452L1466,446L1452,441L1438,438L1423,436L1408,436L1423,436L1438,438L1452,441L1466,446L1480,452L1494,459L1506,466L1519,475L1530,485L1541,495L1550,507L1556,514L1555,512L1562,500L1570,488L1567,474L1562,459L1556,445L1551,431L1545,418L1539,404L1532,391L1525,377L1520,363L1531,365L1545,368L1560,371L1560,357L1556,342L1551,328L1546,314L1539,301L1546,291L1535,284L1522,277L1535,284L1546,291L1539,301L1546,314L1551,328L1556,342L1560,357L1560,371L1545,368L1531,365L1520,363L1525,377L1532,391L1539,404L1545,418L1551,431L1556,445L1562,459L1567,474L1570,488L1562,500L1555,512L1562,500L1570,488L1567,474L1562,459L1556,445L1551,431L1545,418L1539,404L1532,391L1525,377L1520,363L1531,365L1545,368L1560,371L1560,357L1556,342L1551,328L1546,314L1539,301L1546,291L1535,284L1522,277L1535,284L1546,291L1539,301L1546,314L1551,328L1556,342L1560,357L1560,371L1545,368L1531,365L1520,363L1521,361L1517,354L1512,341L1516,327L1520,312L1522,297L1521,282L1520,267L1521,282L1522,297L1520,312L1516,327L1512,341L1517,354L1521,361L1517,354L1512,341L1516,327L1520,312L1522,297L1521,282L1520,267L1521,282L1522,297L1520,312L1516,327L1512,341L1510,336L1509,335L1502,322L1498,307L1500,293L1496,278L1489,265L1477,256L1471,242L1467,228L1475,215L1476,216L1491,220L1502,229L1491,220L1476,216L1475,215L1467,228L1471,242L1477,256L1489,265L1496,278L1500,293L1498,307L1502,322L1509,335L1510,336L1509,335L1502,322L1498,307L1500,293L1496,278L1489,265L1477,256L1471,242L1467,228L1475,215L1476,216L1491,220L1502,229L1491,220L1488,218L1482,209L1474,196L1468,183L1467,168L1475,156L1486,145L1497,136L1486,145L1475,156L1467,168L1468,183L1474,196L1482,209L1488,218L1482,209L1474,196L1468,183L1467,168L1475,156L1486,145L1497,136L1497,135L1511,137L1526,138L1540,141L1555,145L1568,153L1579,162L1590,172L1600,184L1609,196L1617,208L1622,223L1624,237L1616,250L1606,261L1593,266L1578,268L1580,271L1568,263L1562,262L1568,263L1580,271L1593,280L1607,278L1621,273L1634,265L1643,253L1644,239L1640,224L1633,211L1625,199L1616,187L1606,175L1594,165L1590,154L1599,142L1609,132L1620,140L1632,148L1644,157L1655,167L1666,178L1677,188L1688,198L1697,210L1705,222L1697,210L1688,198L1677,188L1666,178L1655,167L1644,157L1632,148L1620,140L1609,132L1599,142L1590,154L1594,165L1606,175L1616,187L1625,199L1633,211L1640,224L1644,239L1643,253L1634,265L1621,273L1607,278L1593,280L1580,271L1568,263L1562,262L1568,263L1580,271L1593,280L1607,278L1621,273L1634,265L1643,253L1644,239L1640,224L1633,211L1625,199L1616,187L1606,175L1594,165L1590,154L1599,142L1609,132L1620,140L1632,148L1644,157L1655,167L1666,178L1677,188L1688,198L1697,210L1705,222L1697,210L1688,198L1677,188L1666,178L1655,167L1644,157L1632,148L1620,140L1609,132L1599,142L1590,154L1594,165L1606,175L1616,187L1625,199L1633,211L1640,224L1644,239L1643,253L1634,265L1621,273L1607,278L1593,280L1580,271L1578,268L1593,266L1606,261L1616,250L1624,237L1622,223L1617,208L1609,196L1600,184L1590,172L1579,162L1568,153L1555,145L1540,141L1526,138L1511,137L1497,135L1511,137L1526,138L1540,141L1555,145L1568,153L1579,162L1590,172L1600,184L1609,196L1617,208L1622,223L1624,237L1616,250L1606,261L1593,266L1578,268L1593,266L1606,261L1616,250L1624,237L1622,223L1617,208L1609,196L1600,184L1590,172L1579,162L1568,153L1555,145L1540,141L1526,138L1511,137L1497,135L1497,136L1486,145L1495,154L1488,160L1495,154L1509,157L1523,163L1535,172L1547,181L1559,190L1570,200L1581,210L1590,222L1598,235L1590,242L1576,238L1562,233L1549,226L1537,217L1525,207L1514,197L1504,186L1495,174L1488,161L1495,174L1504,186L1514,197L1525,207L1537,217L1549,226L1562,233L1576,238L1590,242L1598,235L1590,222L1581,210L1570,200L1559,190L1547,181L1535,172L1523,163L1509,157L1495,154L1488,160L1495,154L1509,157L1523,163L1535,172L1547,181L1559,190L1570,200L1581,210L1590,222L1598,235L1590,242L1576,238L1562,233L1549,226L1537,217L1525,207L1514,197L1504,186L1495,174L1488,161L1495,174L1504,186L1514,197L1525,207L1537,217L1549,226L1562,233L1576,238L1590,242L1598,235L1590,222L1581,210L1570,200L1559,190L1547,181L1535,172L1523,163L1509,157L1495,154L1486,145L1475,156L1467,168L1468,183L1474,196L1482,209L1488,218L1491,220L1476,216L1475,215L1467,228L1467,228L1461,221L1455,207L1448,194L1441,180L1434,167L1441,180L1448,194L1455,207L1461,221L1467,228L1461,221L1455,207L1448,194L1441,180L1434,167L1433,164L1423,175L1412,183L1416,197L1421,211L1424,226L1427,241L1430,255L1432,270L1435,285L1435,300L1437,315L1436,317L1431,311L1424,298L1416,285L1409,272L1402,259L1395,245L1387,232L1380,219L1372,206L1365,194L1357,181L1348,169L1339,157L1348,169L1357,181L1365,194L1372,206L1380,219L1387,232L1395,245L1402,259L1409,272L1416,285L1424,298L1431,311L1436,317L1431,311L1424,298L1416,285L1409,272L1402,259L1395,245L1387,232L1380,219L1372,206L1365,194L1357,181L1348,169L1339,157L1340,154L1328,164L1318,174L1320,189L1324,203L1328,212L1331,211L1323,223L1320,238L1323,252L1329,266L1337,279L1348,288L1349,288L1349,287L1347,272L1343,258L1339,243L1335,229L1326,217L1335,229L1339,243L1343,258L1347,272L1349,287L1349,288L1349,287L1347,272L1343,258L1339,243L1335,229L1326,217L1323,219L1311,226L1300,237L1297,251L1299,255L1297,255L1287,253L1272,250L1257,248L1242,248L1227,249L1214,257L1203,266L1193,278L1187,292L1184,306L1185,321L1194,333L1202,346L1210,358L1219,371L1228,383L1236,395L1245,407L1255,419L1263,431L1272,443L1281,455L1291,466L1302,477L1298,490L1287,500L1298,490L1302,477L1291,466L1281,455L1272,443L1263,431L1255,419L1245,407L1236,395L1228,383L1219,371L1210,358L1202,346L1194,333L1185,321L1184,306L1187,292L1193,278L1203,266L1214,257L1227,249L1242,248L1257,248L1272,250L1287,253L1297,255L1287,253L1272,250L1257,248L1242,248L1227,249L1214,257L1203,266L1193,278L1187,292L1184,306L1185,321L1194,333L1202,346L1210,358L1219,371L1228,383L1236,395L1245,407L1255,419L1263,431L1272,443L1281,455L1291,466L1302,477L1298,490L1287,500L1286,502L1279,492L1270,480L1261,469L1251,457L1241,446L1231,434L1222,423L1211,412L1200,402L1189,392L1178,382L1167,372L1155,363L1143,353L1131,344L1120,335L1108,326L1095,318L1082,310L1070,302L1056,294L1043,287L1030,281L1015,277L1000,276L985,275L970,275L955,275L970,275L985,275L1000,276L1015,277L1030,281L1043,287L1056,294L1070,302L1082,310L1095,318L1108,326L1120,335L1131,344L1143,353L1155,363L1167,372L1178,382L1189,392L1200,402L1211,412L1222,423L1231,434L1241,446L1251,457L1261,469L1270,480L1279,492L1286,502L1279,492L1270,480L1261,469L1251,457L1241,446L1231,434L1222,423L1211,412L1200,402L1189,392L1178,382L1167,372L1155,363L1143,353L1131,344L1120,335L1108,326L1095,318L1082,310L1070,302L1056,294L1043,287L1030,281L1015,277L1000,276L985,275L970,275L955,275" style="stroke: rgb(0, 0, 0); fill: none;">
		</path>
	</g>
</svg>
