<?xml version="1.0" encoding="utf-8"?>
<!-- Generator: Adobe Illustrator 26.3.1, SVG Export Plug-In . SVG Version: 6.00 Build 0)  -->
<svg version="1.1" id="Layer_1" xmlns="http://www.w3.org/2000/svg" xmlns:xlink="http://www.w3.org/1999/xlink" x="0px" y="0px"
	 width="2000px" height="1500px" viewBox="0 0 2000 1500" style="enable-background:new 0 0 2000 1500;" xml:space="preserve">
<g>
	<g>
		<path style="fill:none;stroke:#000000;" d="M108,5h6l-9,3h12l-14,3h18l-21,3h24l-27,3h30l-32,3h36l-39,3h43l-46,3h46l-46,3h46
			l-46,3h46l-46,3h46l-42,3h42l-38,3h38l-35,3h35h-1h23l-23,3h26l-26,3h29l-29,3h32l-32,3h35l-35,3h38l-38,3h42l-42,3h46l-46,3h46
			l-46,3h46l-46,3h46l-46,3h46l-46,3h46l-46,3h46l-46,3h46l-45,3h45h-1h22l-22,3h46l-46,3h46l-46,3h46l-46,3h46l-46,3h46l-46,3h46
			l-46,3h46l-46,3h46l-46,3h46l-46,3h46l-45,3h45l-42,3h42l-38,3h38l-35,3h35l-31,3h31h-1h46h-1h46h-1h4l-4,3h7h2h18h-18l21-3h-18
			h18l-21,3h-2l-7,3h24l-24,3h21l-21,3h18l-18,3h17l-17,3h20l-20,3h23l-23,3h26l-26,3h28l-28,3h31l-31,3h34l-34,3h37l-37,3h46v-3h-4
			h4v3l-46,3h46l-46,3h1h-9h9h-1h46h-1h22l-22,3h17l-17,3h13l-13,3h9l-9,3h13l-13,3h19l-19,3h25l2-6h8h-8l19-3h-17l17-3h-15l15-3
			h-12l12-3h-10h10h-1h46h-1h46h-1h10h-10l6-3h-6l2-3h-2v-9h1h-1l5-3h-5l9-3h-9l14-3h-14l17-3h-17l20-3h-20l23-3h-23l26-3h-24l27-3
			h-23l26-3h-22l24-3h-21h21h15h32l9,12h1l-1,3h4l-4,3h7l-7,3h11l-11,3h16l-16,3h22l-22,3h28l-28,3h46v-3h-10l10-3h-11l11-3h-13
			l13-3h-14l14-3h-16l16-3h-18l18-3h-20l20-3h-23l23-3h-25l25-3h-28l28-3h-31h31h-1h46h-1h46h-1h37h-37l39-3h-39l40-3h-40l5-3h-5h5
			l-5,3h40l-40,3h39l-39,3h1l-46,3h46l-46,3h46l-46,3h46l-46,3h46l-46,3h46l-46,3h46l-46,3h46l-46,3h46l-46,3h46l-46,3h46l-46,3h46
			l-46,3h46l-46,3h46l-43,3h43l-42,3l-3,6l-3,3h3l-2,3h2h-2l2-3h-3l3-3h-1h1l3-6h42h-1h35l-35,3h39l-39,3h43l-43,3h46l-46,3h46
			l-46,3h46l-46,3h46l-46,3h46l-46,3h46l-46,3h46l-46,3h43l-3,3l-24,3h22l-15,3h12l-7,3h4h-4l7-3h-12l15-3h-22l24-3h-31h31l3-3
			l-43,3h2l-2,3h3l-3,3h4l-4,3h5l-5,3h1l-31,3h31l-30,3h30l-29,3h29l-28,3h28l-27,3h27l-26,3h26l-25,3h25l-24,3h24l-23,3h23l-23,3
			h23h-23l23-3h-23l23-3h-24l24-3h-25l25-3h-26l26-3h-27l27-3h-28l28-3h-29l29-3h-30l30-3h-31l31-3h-32h32h-1h6h-6l5-3h-5l4-3h-4
			l3-3h-3l2-3h-2l43-3h-43l46-3h-46l46-3h-46l46-3h-46l46-3h-46l46-3h-46l46-3h-46l46-3h-46l43-3h-43l39-3h-39l35-3h-35h1h-42l42-3
			h-43l43-3h-46l46-3h-46l46-3h-46l46-3h-46l46-3h-46l46-3h-46l46-3h-46l46-3h-46l46-3h-46l46-3h-46l46-3h-46l46-3h-46l46-3h-46
			l46-3h-46h1h-46l46-3h-46l46-3h-46l46-3h-46l46-3h-46l46-3h-46l46-3h-46l46-3h-46l46-3h-46l46-3h-46l46-3h-46l42-3h-42l39-3h-39
			l35-3h-35l31-3h-31l28-3h-28h1h-17l17-3h-18l18-3h-20l20-3h-22l22-3h-23l23-3h-24l24-3h-25l25-3h-26l26-3h-27l27-3h-27l27-3h-27
			l27-3h-27l27-3h-26l24-3h-22l24-3h-21l21-3h-19h19h-1h46h-1h38l-38,3h42l-42,3h46l-46,3h46l-46,3h46l-46,3h46l-46,3h46l-41,3h41
			l-36,3h36l-31,3h31l-27,3h27l-23,3h23l-19,3h19l-16,3h16l-13,3h13l-10,3h10h-1h30l-30,3h32l-32,3h33l-33,3h34l-32,3h33l-31,3h33
			l-30,3h31l-29,3h31l-30,3h31l-29,3h31l-30,3h30l-30,3h29l-30,3h29h-29l30-3h-29l30-3h-30l30-3h-31l29-3h-31l30-3h-31l29-3h-31
			l30-3h-33l31-3h-33l32-3h-34l33-3h-33l32-3h-32l30-3h-30h1h-10l10-3h-13l13-3h-16l16-3h-19l19-3h-23l23-3h-27l27-3h-31l31-3h-36
			l36-3h-41l41-3h-46l46-3h-46l46-3h-46l46-3h-46l46-3h-46l42-3h-42l38-3h-38h1h-46l46-3h-46l46-3h-46l46-3h-46l46-3h-46l46-3h-46
			l46-3h-46l39-3h-37l27-3h-22h22l-27,3h37l-39,3h46l-46,3h46l-46,3h46l-46,3h46l-46,3h46l-46,3h46l-46,3h1l-21,3h21l-24,3h22l-24,3
			h26l-27,3h27l-27,3h27l-27,3h27l-27,3h27l-26,3h26l-25,3h25l-24,3h24l-23,3h23l-22,3h22l-20,3h20l-18,3h18l-17,3h17h-1h28l-28,3
			h31l-31,3h35l-35,3h39l-39,3h42l-42,3h46l-46,3h46l-46,3h46l-46,3h46l-46,3h46l-46,3h46l-46,3h46l-46,3h46l-46,3h46l-46,3h46
			l-46,3h1l-28,3h28l-25,3h25l-23,3h23l-20,3h20l-18,3h18l-16,3h16l-14,3h14l-13,3h13l-11,3h11l-10,3h10v3l-46,3h46l-46,3h46l-46,3
			h46l-46,3h1l-26,3h26l-25,3h25l-24,3h24l-23,3h23l-22,3h22l-21,3h21l-20,3h20l-19,3h19l-18,3h18l-17,3h17l-16,3h16l-15,3h15l-14,3
			h14l-13,3l-7,3h-26l22-3h-22l18-3h-18l14-3h-14l10-3h-10l6-3h-6l2-3h-2h2l-2,3h6l-6,3h10l-10,3h14l-14,3h18l-18,3h22l-22,3h1
			l-24,3h24l-20,3h20l-17,3h17l-13,3h13l-9,3h9l-6,3h6l-2,3h2h-2l2-3h-6l6-3h-9l9-3h-13l13-3h-17l17-3h-20l20-3h-24l24-3h-28h28h-1
			h26l7-3h13l-12,3h12h-1h33l-33,3h34l-34,3h36l-36,3h37l-37,3h39l-39,3h41l-41,3h46l-46,3h46l-46,3h46l-46,3h46l-46,3h46l-46,3h46
			l-46,3h46l-46,3h46l-46,3h46l-46,3h1l-17,3h17l-14,3h14l-11,3h11l-8,3h8l-5,3h5l-2,3h2h-2l2-3h-5l5-3h-8l8-3h-11l11-3h-14l14-3
			h-17l17-3h-20h20h-1h46h-1h46h-1h46h-1h9l-9,3h6l-6,3h4l-4,3h2l-2,3l0,0v3h1l-1,3h5l-5,3h12l-12,3h17h2h27h-27l27-3h-27l27-3h-26
			l26-3h-25l25-3h-25l25-3h-24l24-3h-23l23-3h-23l23-3h-22h22h-1h3h-3l2-3h-2l2-3h-2l2-3h-2l2-3h-2l2-3h-2l2-3h-2l2-3h-2l2-3h-2l3-3
			h-3l4-3h-4l5-3h-5l7-3h-7l9-3h-7l11-3h-7l11-3h-7h7l74-48h45l21,3h24h-1h46h-1h18l-18,3h23l-23,3h28l-28,3h33l-33,3h37l-37,3h42
			l-42,3h46l-46,3h46l-46,3h46l-46,3h46l-46,3h46l-46,3h46l-43,3h43l-38,3h38l-33,3h33l-28,3h28h-1h46h-1h41h-41l40-3h-40l40-3h-40
			l39-3h-39l38-3h-38l37-3h-37l5-3h-5l4-3h-4l2-3h-2v-3l0,0l0,0v3h2l-2,3h4l-4,3h5h2h31h-31l39-3h-39l39-3h-38l27-3h-27l27-3h-26
			l25-3h-24l24-3h-23l23-3h-22l22-3h-21l21-3h-20h20l-21,3h21l-22,3h22l-23,3h23l-24,3h24l-25,3h26l-27,3h27h2h9h-9l9-3h-6l6-3h-3h3
			l-6,3h6l-9,3h-2l-27,3h38l-39,3h39l-39,3h-2l-5,3h37l-37,3h38l-38,3h39l-39,3h40l-40,3h40l-40,3h1l-46,3h46l-46,3h46l-46,3h46
			l-46,3h46l-46,3h46l-46,3h46l-46,3h46l-42,3h42l-38,3h38l-34,3h34l-30,3h30l-27,3h27l-23,3h23l-19,3h19l-16,3h16h-1h46h-1h24h-24
			l22-3h-22l20-3h-20l18-3h-18l16-3h-16l14-3h-14l12-3h-12l9-3h-9l7-3h-7l5-3h-5l3-3h-3l1-3h-1v-3l0,0l0,0v3h1l-1,3h3l-3,3h5l-5,3h7
			l-7,3h9l-9,3h12l-12,3h14l-14,3h16l-16,3h18l-18,3h20l-20,3h22l-22,3h1l-46,3h46l-46,3h46l-46,3h46l-46,3h46l-43,3h43l-40,3h40
			l-37,3h37l-33,3h33l-30,3h30l-27,3h27l-23,3h23l-20,3h20l-17,3h17l-14,3h14l-11,3h11h-1h46h-1h35h-35l30-3h-30l25-3h-25l21-3h-21
			l16-3h-16l11-3h-11l7-3h-7l3-3h-3v-3l0,0l46-3h-2l2-3h-4l4-3h-5l5-3h-6l6-3h-8l8-3h-9h9v-3h-1h31h-31l29-3h-29l28-3h-28l26-3h-26
			l25-3h-25l23-3h-23l22-3h-22l21-3h-21l20-3h-20l18-3h-18l17-3h-17l16-3h-16l15-3h-15l14-3h-14l13-3h-13l46-3h-46h1h-46l46-3h-46
			l46-3h-46l46-3h-46l46-3h-46l46-3h-46l46-3h-46l46-3h-46l46-3h-46l46-3h-46l8-3h-8l5-3h-5l3-3h-3v-3l0,0l46-3h-42l42-3h-46h1h-4
			l4-3h-11l11-3h-18l18-3h-29l29-3h-46l46-3h-46l46-3h-46l46-3h-46l46-3h-46l46-3h-46l46-3h-46l46-3h-43h43l-46,3h46l-46,3h46l-46,3
			h46l-46,3h46l-46,3h46l-46,3h46l-46,3h46l-29,3h29l-18,3h18l-11,3l-1,3h-16h16l1-3h11l-4,3h4h-1h46h-1h30h-30l28-3h-28l25-3h-25
			l23-3h-23l22-3h-22l20-3h-20l19-3h-19l17-3h-17l16-3h-16l15-3h-15l14-3h-14l13-3h-13l12-3h-12l12-3h-12l11-3h-11l11-3h-11h1h-14
			l14-3h-11l11-3h-9l9-3h-5l5-3h-2h2l-5,3h5l-9,3h9l-11,3h11l-14,3h14h-1h11l-11,3h11l-11,3h12l-12,3h12l-12,3h13l-13,3h14l-14,3h15
			l-15,3h16l-16,3h17l-17,3h19l-19,3h20l-20,3h22l-22,3h23l-23,3h25l-25,3h28l-28,3h1l-42,3h42v3l-28,3h28l-24,3h24l-28,3h28h-28
			l28-3h-24l24-3h-28l28-3h-35h35v-3l-46,3l0,0v3h3l-3,3h5l-5,3h8l-8,3h46l-46,3h46l-46,3h46l-46,3h46l-46,3h46l-46,3h46l-46,3h46
			l-46,3h46l-46,3h46l-46,3h1l-9,3h9l-7,3h7l-6,3h6l-4,3h4l-3,3h3l-2,3h2l-1,3h1h-1l1-3h-2l2-3h-3l3-3h-4l4-3h-6l6-3h-7l7-3h-9l9-3
			h-11h11h-1h46h-1h46v3l-25,3h25l-21,3h21l-17,3h17l-14,3h14l-10,3h10l-8,3h8l-5,3h5l-2,3h2h-2l2-3h-5l5-3h-8l8-3h-10l10-3h-14
			l14-3h-17l17-3h-21l21-3h-25l25-3h-30h30v-3h-1h31h-31l30-3h-30l29-3h-29l28-3h-28l27-3h-27l26-3h-26l26-3h-26l25-3h-25l24-3h-24
			l23-3h-23l23-3h-23l22-3h-22l22-3h-22l22-3h-22l46-3h-46l46-3h-46h1h-10l10-3h-11l11-3h-11l11-3h-12l12-3h-13l13-3h-13l13-3h-14
			l14-3h-15l15-3h-16l16-3h-17l17-3h-18l18-3h-19l19-3h-20l20-3h-21l21-3h-22l22-3h-23h23h-1h35h-35l33-3h-33l32-3h-32l30-3h-30
			l28-3h-28l27-3h-27l25-3h-25l23-3h-23l22-3h-22l20-3h-20l18-3h-18l16-3h-16l14-3h-14l12-3h-12l10-3h-10l8-3h-8h1h-39l39-3h-40
			l40-3h-40l40-3h-41l41-3h-42l40-3h-40l38-3h-38l36-3h-32l30-3h-27l25-3h-21l19-3h-16l14-3h-10l9-3h-5h5l-9,3h10l-14,3h16l-19,3h21
			l-25,3h27l-30,3h32l-36,3h38l-38,3h40l-40,3h42l-41,3h41l-40,3h40l-40,3h40l-39,3h39h-1h8l-8,3h10l-10,3h12l-12,3h14l-14,3h16
			l-16,3h18l-18,3h20l-20,3h22l-22,3h23l-23,3h25l-25,3h27l-27,3h28l-28,3h30l-30,3h32l-32,3h33l-33,3h1l-22,3h22l-21,3h21l-20,3h20
			l-19,3h19l-18,3h18l-17,3h17l-16,3h16l-15,3h15l-14,3h14l-13,3h13l-13,3h13l-12,3h12l-11,3h11l-11,3h11l-10,3h10h-1h46h-1h15h-15
			l13-3h-13l12-3h-12l10-3h-10l8-3h-8l7-3h-7l5-3h-5l3-3h-3l1-3h-1v-3l0,0l0,0v3h1l-1,3h3l-3,3h5l-5,3h7l-7,3h8l-8,3h10l-10,3h12
			l-12,3h13l-13,3h1l-46,3h46l-46,3h22h2h22l-20,3h20l-19,3h19l-17,3h17l-16,3h16l-14,3h14l-12,3h12l-11,3h11l-9,3h9l-8,3h8l-6,3h6
			l-5,3h5l-3,3h3l-2,3h1h46h-1h46h-1h29l-29,3h28l-28,3h27l-27,3h26l-26,3h25l-25,3h24l-24,3h24l-24,3h24l-24,3h26l-26,3h27l-27,3
			h28l-28,3h30l-30,3h38l-38,3h46l-46,3h46l-46,3h46h-1h46h-1h17h-17l16-3h-16l15-3h-15l14-3h-14l13-3h-13l13-3h-13l12-3h-12l12-3
			h-12l11-3h-11l11-3h-11l10-3h-10l10-3h-10l9-3h-9l8-3h-8l7-3h-7l7-3h-7h7l-7,3h7l-7,3h8l-8,3h9l-9,3h10l-10,3h10l-10,3h11l-11,3
			h11l-11,3h12l-12,3h12l-12,3h13l-13,3h13l-13,3h14l-14,3h15l-15,3h16l-16,3h1l-46,3h46l-46,3h46l-46,3h46l-46,3h46l-46,3h46l-46,3
			h46l-46,3h46l-46,3h46l-46,3h46l-46,3h46l-46,3h46l-46,3h46l-46,3h46l-46,3h46l-46,3h1l-24,3h24l-23,3h23l-21,3h21v3l-46,3h46
			l-46,3h46l-46,3h46l-46,3h46l-46,3h46l-46,3h46l-46,3h46l-46,3h46l-46,3h46l-46,3h46l-46,3l0,0h1h-1l0,0h46h-1h29l-29,3h31l-31,3
			h32l-32,3h33l-33,3h34l-34,3h35l-35,3h36l-36,3h38l-38,3h39l-39,3h40l-40,3h37l-37,3h35l-32,3h30l-28,3h26l-23,3h21l-19,3h17h-17
			l19-3h-21l23-3h-26l28-3h-30l32-3h-35l37-3h-37l40-3h-40l39-3h-39l38-3h-38l36-3h-36l35-3h-35l34-3h-34l33-3h-33l32-3h-32l31-3
			h-31l29-3h-29h1h-46l46-3h-46l46-3h-46l46-3h-46l46-3h-46l46-3h-46l46-3h-46l46-3h-46l46-3h-46l46-3h-46l46-3h-46l46-3h-46l16-3
			h-16h16l-16,3h46v-3h-21l21-3h-23l23-3h-24l24-3h-25h25h-1h46h-1h46h-1h26h-26l24-3h-24l23-3h-23l21-3h-21l20-3h-20l19-3h-19l17-3
			h-17l16-3h-16l16-3h-16l15-3h-15l14-3h-14l13-3h-13l12-3h-12l12-3h-12l11-3h-11l11-3h-11h1h-16l16-3h-14l14-3h-13l13-3h-11l11-3
			h-9l9-3h-7l7-3h-4l4-3h-1h1l-4,3h4l-7,3h7l-9,3h9l-11,3h11l-13,3h13l-14,3h14l-16,3h16h-1h11l-11,3h11l-11,3h12l-12,3h12l-12,3h13
			l-13,3h14l-14,3h15l-15,3h16l-16,3h16l-16,3h17l-17,3h19l-19,3h20l-20,3h21l-21,3h23l-23,3h24l-24,3h1l-46,3h46l-46,3h46l-46,3h46
			l-46,3h46l-46,3h46l-44,3h44l-38,3h38l-33,3h33l-28,3h28l-23,3h23l-19,3h19l-14,3h14l-10,3h10l-5,3h5l-1,3l0,0h46h-1h15h-15l12-3
			h-12l10-3h-10l7-3h-7l4-3h-4l2-3h-2h2l-2,3h4l-4,3h7l-7,3h10l-10,3h12l-12,3h1l-42,3h42l-37,3h37l-33,3h33l-29,3h29l-25,3h25
			l-21,3h21l-17,3h17l-14,3h14l-10,3h10l-6,3h6l-2,3h2l12,12h5h-5l-12-12h-2l2-3h-6l6-3h-10l10-3h-14l14-3h-17l17-3h-21l21-3h-25
			l25-3h-29l29-3h-33l33-3h-37l37-3h-42l42-3h-46l0,0h1h-1l1-3h-5l5-3h-10l10-3h-14l14-3h-19l19-3h-23l23-3h-28l28-3h-33l33-3h-38
			l38-3h-44l44-3h-46l46-3h-46l46-3h-46l46-3h-46l46-3h-46l46-3h-46h1h-46l46-3h-46l46-3h-46l46-3h-46l46-3h-46l46-3h-46l46-3h-46
			l46-3h-46l46-3h-46l46-3h-46l46-3h-46l46-3h-46l46-3h-46l46-3h-46l46-3h-46l46-3h-46h1h-46l46-3h-46l46-3h-46l38-3h-38l30-3h-30
			l28-3h-28l27-3h-27l26-3h-26l24-3h-24l24-3h-24l24-3h-24l25-3h-25l26-3h-26l27-3h-27l28-3h-28l29-3h-29h1h-46l46-3h-46l46-3h-46
			l46-3h-46l46-3h-46l46-3h-46l46-3h-46l46-3h-46l46-3h-46l46-3h-46l46-3h-46l46-3h-46l46-3h-46l46-3h-46l44-3h-44l43-3h-43h1h-15
			l15-3h-16l16-3h-16l16-3h-16l16-3h-17l17-3h-17l17-3h-18l18-3h-18l18-3h-19l19-3h-19l19-3h-20l20-3h-20l20-3h-21l21-3h-21l21-3
			h-22l22-3h-22h22h-1h46h-1h46h-1h36h-36l29-3h-29l23-3h-23l17-3h-17l12-3h-12l8-3h-8l3-3h-3v-3l0,0l46-3h-3l3-3h-6l6-3h-9l9-3h-12
			l12-3h-15l15-3h-19l19-3h-23l23-3h-26h26h-1h26h-26l24-3h-24l22-3h-22l19-3h-19l17-3h-17l14-3h-14l11-3h-11l8-3h-8l5-3h-5l2-3h-2
			h2l-2,3h5l-5,3h8l-8,3h11l-11,3h14l-14,3h17l-17,3h19l-19,3h22l-22,3h24l-24,3h1l-23,3h23l-19,3h19l-15,3h15l-12,3h12l-9,3h9l-6,3
			h6l-3,3h3l-46,3l0,0v3h3l-3,3h8l-8,3h12l-12,3h17l-17,3h23l-23,3h29l-29,3h1l-46,3h46l-46,3h46l-46,3h46l-46,3h46l-46,3h46l-46,3
			h46l-46,3h46l-46,3h46l-46,3h46l-46,3h46l-46,3h46l-46,3h46l-45,3h45l-44,3h44l-42,3h42h-1h46h-1h46v-3h-27l27-3h-15l15-3h-8l8-3
			h-2h2l-8,3h8l-15,3h15l-27,3h27v3h-1h9l-9,3h6l-6,3h3l-3,3h5l-5,3h11l-11,3h17l-17,3h22l-22,3h28l-28,3h34l-34,3h40l-40,3h46
			l-46,3h46l-46,3h46l-46,3h46l-46,3h46l-46,3h1l-12,3h10l-4,3h1h-1l4-3h-10l12-3h-20h20h-1h46h-1h30l-30,3h36l-36,3h42h3h1h-1l1-3
			h-2l2-3h-3h3h-1h34h-34l33-3h-33l31-3h-31l30-3h-30l28-3h-28l27-3h-27l26-3h-26l24-3h-24l22-3h-22l21-3h-20l19-3h-17l15-3h-12
			l11-3h-7l6-3h-3h3l-6,3h7l-11,3h12l-15,3h17l-19,3h20l-21,3h22l-22,3h24l-24,3h26l-26,3h27l-27,3h28l-28,3h30l-30,3h31l-31,3h33
			l-33,3h1l-2,3h2l-1,3h-3l-42,3h46l-46,3h46l-46,3h46l-46,3h46l-46,3h46l-46,3h46l-46,3h46l-41,3h41l-35,3h35l-30,3h30l-25,3h25
			l-20,3h20l-15,3h15h-1h46h-1h46h-1h46v3l-33,3h33l-31,3h31l-30,3h30l-29,3h29l-27,3h27l-26,3h26l-25,3h25l-23,3h23l-22,3h22l-21,3
			h21l-19,3h19l-18,3h18l-16,3h16l-15,3h15h-1h22l-22,3h23l-23,3h17l-17,3h14l-14,3h11l-11,3h9l-9,3h7l-7,3h6l-6,3h4l-4,3h3h-3l4-3
			h-4l6-3h-6l7-3h-7l9-3h-9l11-3h-11l14-3h-14l17-3h-17l23-3h-23l22-3h-22h1h-15l15-3h-16l16-3h-18l18-3h-19l19-3h-21l21-3h-22l22-3
			h-23l23-3h-25l25-3h-26l26-3h-27l27-3h-29l29-3h-30l30-3h-31l31-3h-33l33-3h-36h36v-3h-1h3h-3l3-3h-3l11-3h-11l46-3h-46l46-3h-46
			l46-3h-46l46-3h-46l46-3h-46l46-3h-46l46-3h-46l46-3h-46l46-3h-41l41-3h-44l44-3h-46l46-3h-46l46-3h-46h1h-46l46-3h-46l46-3h-46
			l46-3h-46l46-3h-46l46-3h-46l46-3h-46l46-3h-46l12-3h-12l10-3h-10l9-3h-9l8-3h-8l6-3h-6l5-3h-5l3-3h-3l2-3h-2h1h-46l46-3h-46l46-3
			h-46l46-3h-46l46-3h-46l46-3h-46l46-3h-46l46-3h-46l46-3h-46l46-3h-46l46-3h-46l46-3h-46l46-3h-46l46-3h-46l46-3h-46l46-3h-46h1
			h-46l46-3h-46l46-3h-46l46-3h-46l46-3h-46l46-3h-46l46-3h-46l46-3h-46l46-3h-46l46-3h-46l46-3h-46l46-3h-46l46-3h-46l46-3h-46
			l46-3h-46l46-3h-46h1h-8l8-3h-7l7-3h-6l6-3h-4l4-3h-3l3-3h-1h1l-3,3h3l-4,3h4l-6,3h6l-7,3h7l-8,3h8h-1h46h-1h20h-20l17-3h-17l14-3
			h-14l11-3h-11l9-3h-9l6-3h-6l3-3h-3h3l-3,3h6l-6,3h9l-9,3h11l-11,3h14l-14,3h17l-17,3h1l-46,3h46l-46,3h46l-46,3h46l-46,3h46
			l-46,3h46l-46,3h46l-46,3h46l-46,3h46l-46,3h46l-46,3h46l-46,3h46l-46,3h46l-46,3h46l-46,3h46l-46,3h1v3l-39,3h39l-35,3h35l-32,3
			h32l-29,3h29l-25,3h25l-21,3h21l-18,3h18l-14,3h14l-10,3h10l-5,3h5h-5l5-3h-10l10-3h-14l14-3h-18l18-3h-21l21-3h-25l25-3h-29l29-3
			h-32l32-3h-35l35-3h-39l39-3h-42h42v-3l-46,3l0,0l0,0l46-3h-46h1h-31l31-3h-32l32-3h-33l33-3h-35l35-3h-36l36-3h-38l38-3h-39l39-3
			h-41l41-3h-42l42-3h-44l44-3h-46l46-3h-46l46-3h-46l46-3h-46l46-3h-46l46-3h-46h1h-12l12-3h-14l14-3h-17l17-3h-19l19-3h-22l22-3
			h-25l25-3h-29l29-3h-33l33-3h-36l36-3h-39l39-3h-42l42-3h-43l43-3h-41l41-3h-38l38-3h-36l36-3h-34h34h-1h4h-4v-3l0,0l0,0v3h1
			l-36,3h36l-38,3h38l-41,3h41l-43,3h43l-42,3h42l-39,3h39l-36,3h36l-33,3h33l-29,3h29l-25,3h25l-22,3h22l-19,3h19l-17,3h17l-14,3
			h14l-12,3h12h-1h46h-1h11h-11l7-3h-7l4-3h-4l1-3h-1h1l-1,3h4l-4,3h7l-7,3h1l-46,3h46l-46,3h46l-46,3h46l-46,3h46l-46,3h46l-44,3
			h44l-42,3h42l-41,3h41l-39,3h39l-38,3h38l-36,3h36l-35,3h35l-33,3h33l-32,3h32l-31,3h31h-1h46h-1h46h-1h46h-1h15h-15l13-3h-13
			l10-3h-10l8-3h-8l5-3h-5l2-3h-2h2l-2,3h5l-5,3h8l-8,3h10l-10,3h13l-13,3h1l-46,3h46l-46,3h46l-46,3h46l-46,3h46l-46,3h46l-46,3h46
			l-46,3h46l-46,3h46l-46,3h46l-46,3h46l-46,3h46l-46,3h46l-46,3h46l-46,3h46l-46,3h1l-27,3h27l-22,3h22l-18,3h18l-13,3h13l-9,3h9
			l-5,3h5h-5l5-3h-9l9-3h-13l13-3h-18l18-3h-22l22-3h-27l27-3h-32h32h-1h46h-1h2h3h41h-1h8h-8l5-3h-5l3-3h-3l2-3h-2l3-3h-3l5-3h-5
			l7-3h-7l8-3h-8l10-3h-10l12-3h-12l13-3h-13l15-3h-15l17-3h-17l18-3h-18l20-3h-20l21-3h-21h1h-6l6-3h-5l5-3h-5l5-3h-4l4-3h-4l4-3
			h-4l4-3h-4l4-3h-4l4-3h-4l4-3h-5l5-3h-5l5-3h-5l5-3h-6l6-3h-6l6-3h-7l7-3h-8h8h-1h41l4,6h2l-2,3h4l-4,3h6l-6,3h9l-9,3h11l-11,3h13
			l-13,3h15l-15,3h18l-18,3h20l-20,3h22l-22,3h24l-24,3h26l-26,3h28l-28,3h1l-14,3h14l-11,3h11l-9,3h9l-7,3h7l-5,3h5l-3,3h3l-1,3h1
			h-1l1-3h-3l3-3h-5l5-3h-7l7-3h-9l9-3h-11l11-3h-14l14-3h-16h16h-1h30h-30l28-3h-28l26-3h-26l24-3h-24l22-3h-22l20-3h-20l18-3h-18
			l15-3h-15l13-3h-13l11-3h-11l9-3h-9l6-3h-6l4-3h-4l2-3h-2l-4-6h-41l39-3h-39l36-3h-36l34-3h-34l31-3h-31l28-3h-28l26-3h-26l23-3
			h-23l21-3h-21l18-3h-18l15-3h-15l12-3h-12l9-3h-9l7-3h-7l5-3h-5l2-3h-2h1h-4h4h-1h2l-2,3h5l-5,3h7l-7,3h9l-9,3h12l-12,3h15l-15,3
			h18l-18,3h21l-21,3h23l-23,3h26l-26,3h28l-28,3h31l-31,3h34l-34,3h36l-36,3h39l-39,3h1l-7,3h7l-6,3h6l-6,3h6l-5,3h5l-5,3h5l-5,3h5
			l-4,3h4l-4,3h4l-4,3h4l-4,3h4l-4,3h4l-4,3h4l-5,3h5l-5,3h5l-6,3h6h-1h21l-21,3h20l-20,3h18l-18,3h17l-17,3h15l-15,3h13l-13,3h12
			l-12,3h10l-10,3h8l-8,3h7l-7,3h5l-5,3h3l-3,3h2l-2,3h3l-3,3h5l-5,3h1l-38,3h38l-35,3h35l-33,3h33l-30,3h30l-28,3h28l-25,3h25
			l-23,3h23h-23l23-3h-25l25-3h-28l28-3h-30l30-3h-33l33-3h-35l35-3h-38l38-3h-41h-3l-2,3h3l-3,3h5l-5,3h6l-6,3h8l-8,3h9l-9,3h10
			l-10,3h12l-12,3h46l-46,3h46l-46,3h46l-46,3h46l-46,3h46l-46,3h46l-46,3h46l-46,3h1l-24,3h24l-27,3h27l-28,3h28l-28,3h6h-6l28-3
			h-28l28-3h-27l27-3h-24l24-3h-22h22h-1h46h-1h46h-1h14h-14l10-3h-10l5-3h-5v-3l0,0v-18h4h-4l8-3h-8l12-3h-12l15-3h-15l18-3h-18
			l21-3h-21l24-3h-24l0,0h1h-1l0,0h24h16h6h-1h31h-31l29-3h-29l27-3h-27l25-3h-24l23-3h-20l19-3h-17l16-3h-14l13-3h-10l9-3h-7l7-3
			h-6h6l-7,3h7l-9,3h10l-13,3h14l-16,3h17l-19,3h20l-23,3h24l-25,3h27l-27,3h29l-29,3h1l-5,3h5l-4,3h4l-3,3h3l-2,3h2l-1,3h1h-1l1-3
			h-2l2-3h-3l3-3h-4l4-3h-5l5-3h-6h-16l-24,3h21l-21,3h18l-18,3h15l-15,3h12l-12,3h8l-8,3v18l0,0v3h5l-5,3h10l-10,3h1l-46,3h46
			l-46,3h46l-44,3h44l-41,3h41l-46,3h46l-46,3h46l-46,3h46l-46,3h46l-46,3h46l-46,3h46l-46,3h46l-46,3h46v3l-16,3h16l-13,3h13h-1h46
			h-1h46h-1h31l-31,3h33l-33,3h35l-35,3h36l-36,3h38l-38,3h40l-40,3h41l-41,3h43l-43,3h44l-44,3h46l-46,3h46l-46,3h46l-46,3h46
			l-46,3h46l-46,3h46l-46,3h1l-9,3h9l-6,3h6l-3,3h3h-3l3-3h-6l6-3h-9l9-3h-12h12h-1h46h-1h13l-13,3h15l-15,3h17l-17,3h19l-19,3h21
			l-21,3h23l-23,3h26l-26,3h28l-28,3h30l-30,3h32l-32,3h34l-34,3h37l-37,3h39l-39,3h41l-41,3h43l-43,3h1l-10,3h10l-7,3h7l-4,3h4
			l-1,3h1h-1l1-3h-4l4-3h-7l7-3h-10l10-3h-13h13h-1h46l0,0l-1,3h3l-3,3h5l-5,3h7l-7,3h9l-9,3h11l-11,3h13l-13,3h15l-15,3h18l-18,3
			h20l-20,3h20l-20,3h18l-18,3h16l-16,3h14l-14,3h13l-13,3h1l-13,3h13l-11,3h11l-8,3h8l-5,3h5l-1,3h1h-1l1-3h-5l5-3h-8l8-3h-11l11-3
			h-13l13-3h-16h16h-1h11h-11l13-3h-13l14-3h-14l16-3h-16l18-3h-18l20-3h-20l20-3h-20l18-3h-18l15-3h-15l13-3h-13l11-3h-11l9-3h-9
			l7-3h-7l5-3h-5l3-3h-3l1-3h-1h1l0,0h-46l43-3h-43l41-3h-41l39-3h-39l37-3h-37l34-3h-34l32-3h-32l30-3h-30l28-3h-28l26-3h-26l23-3
			h-23l21-3h-21l19-3h-19l17-3h-17l15-3h-15l13-3h-13h1h-46l46-3h-46l46-3h-46l46-3h-46l46-3h-46l46-3h-46l46-3h-46l44-3h-44l43-3
			h-43l41-3h-41l40-3h-40l38-3h-38l36-3h-36l35-3h-35l33-3h-33l31-3h-31h1h-46l46-3h-46l46-3h-46l46-3h-46l46-3h-46l46-3h-46l46-3
			h-46l46-3h-46l46-3h-46l16-3h-16l6-3h-6h6l-6,3h16l-16,3h46v-3h-26l26-3h-27l27-3h-28l28-3h-29l29-3h-30l30-3h-31l31-3h-32h32h-1
			h41h-41l46-3h-46l46-3h-46l46-3h-46l46-3h-46l28-3h-28l16-3h-16l10-3h-10l5-3h-5l1-3h-1h1l-1,3h5l-5,3h10l-10,3h16l-16,3h28l-28,3
			h46v-3h-7h7v3l-46,3h46l-46,3h46l-46,3h46l-46,3h1l-31,3h31l-30,3h30l-29,3h29l-28,3h28l-27,3h27l-26,3h26v3l-46,3h46l-46,3h46
			l-46,3h46l-46,3h46l-46,3h46l-46,3h46l-46,3h46l-46,3h1l-46,3h25h2h19l-14,3h14l-9,3h9l-5,3h5l-1,3h1h-1l1-3h-5l5-3h-9l9-3h-14
			l14-3h-19h-2l-25,3h27l-27,3h29l-29,3h30l-30,3h32l-31,3h32l-30,3h32l-30,3h32l-30,3h31l-29,3h31l-29,3h31l-30,3h31l-29,3h32
			l-30,3h30l-29,3h29h-1h3l-3,3h5l-5,3h7l-7,3h8l-8,3h10l-10,3h11l-11,3h13l-13,3h14l-14,3h15l-15,3h17l-17,3h18l-18,3h19l-19,3h20
			l-20,3h22l-22,3h24l-24,3h1l-8,3h8l-7,3h7l-7,3h7l-6,3h6l-6,3h6l-6,3h6l-5,3h5l-5,3h5l-5,3h5l-4,3h4l-4,3h4l-4,3h4l-4,3h4l-4,3h4
			l-4,3h4h-1h21l-21,3h20l-20,3h19l-19,3h18l-18,3h17l-17,3h16l-16,3h15l-15,3h14l-14,3h13l-13,3h12l-12,3h11l-11,3h10l-10,3h8l-8,3
			h7l-7,3h5l-5,3h1l-10,3h10l-12,3h10l-11,3h9l-10,3h7l-9,3h7l-9,3h6l-8,3h6l-8,3h5l-6,3h3h-3l6-3h-5l8-3h-6l8-3h-6l9-3h-7l9-3h-7
			l10-3h-9l11-3h-10l12-3h-10l10-3h-9h9h-1h3h-3l5-3h-5l7-3h-7l8-3h-8l10-3h-10l11-3h-11l12-3h-12l13-3h-13l14-3h-14l15-3h-15l16-3
			h-16l17-3h-17l18-3h-18l19-3h-19l20-3h-20l21-3h-21h1h-4l4-3h-4l4-3h-4l4-3h-4l4-3h-4l4-3h-4l4-3h-5l5-3h-5l5-3h-5l5-3h-6l6-3h-6
			l6-3h-6l6-3h-7l7-3h-7l7-3h-8l8-3h-9h9h-1h25h-25l24-3h-24l22-3h-22l20-3h-20l19-3h-19l18-3h-18l17-3h-17l15-3h-15l14-3h-14l13-3
			h-13l11-3h-11l10-3h-10l8-3h-8l7-3h-7l5-3h-5l3-3h-3h1h-29l29-3h-30l30-3h-32l29-3h-31l30-3h-31l29-3h-31l29-3h-31l30-3h-32l30-3
			h-32l30-3h-32l31-3h-32l30-3h-30l29-3h-29l27-3h-27l25-3h-25l46-3h-46h1h-13l13-3h-16l16-3h-19h19v-3l-46,3h11l-11,3h3l-3,3h1
			l-46,3h6h-6l46-3h-46h1h-46l46-3h-46l46-3h-46l46-3h-46l46-3h-46l9-3h-9l7-3h-7l5-3h-5l3-3h-3l1-3h-1h1l-1,3h3l-3,3h5l-5,3h7l-7,3
			h9l-9,3h46v-3h-28l28-3h-6l6-3h-1l1-3h-2l2-3h-4l4-3h-5l5-3h-7h7l-5,3h5l-4,3h4l-2,3h2l-1,3h1l-6,3h6l-28,3h28v3l-46,3h46l-46,3
			h46l-46,3h46l-46,3h1l-46,3h46l-46,3h46l-46,3h46l-45,3h45l-42,3h42l-38,3h38l-35,3h35l-31,3h31l-28,3h28l-25,3h25l-21,3h21l-18,3
			h18l-15,3h15l-12,3h12l-9,3h9h-1h46h-1h3h-3l1-3h-1h1l-1,3h1l-46,3h46l-46,3h46l-45,3h45l-42,3h42l-38,3h38l-35,3h35l-32,3h32
			l-29,3h29l-26,3h26l-23,3h23l-20,3h20l-17,3h17l-14,3h14l-11,3h11l-9,3h9h-1h35l-35,3h37l-37,3h39l-38,3h40l-37,3h40l-37,3h39
			l-37,3h37l-34,3h34l-31,3h31l-28,3h28l-25,3h25l-22,3h22l-19,3h19l-16,3h16l-13,3h13l-10,3h10h-1h32l-32,3h34l-34,3h33l-33,3h31
			l-30,3h27l-24,3h21l-19,3h15l-13,3h8h-8l13-3h-15l19-3h-21l24-3h-27l30-3h-31l33-3h-33l34-3h-34l32-3h-32h1h-10l10-3h-13l13-3h-16
			l16-3h-19l19-3h-22l22-3h-25l25-3h-28l28-3h-31l31-3h-34l34-3h-37l37-3h-39l37-3h-40l37-3h-40l38-3h-39l37-3h-37l35-3h-35h1h-9
			l9-3h-11l11-3h-14l14-3h-17l17-3h-20l20-3h-23l23-3h-26l26-3h-29l29-3h-32l32-3h-35l35-3h-38l38-3h-42l42-3h-45l45-3h-46l46-3h-46
			l46-3h-46h1h-9l9-3h-12l12-3h-15l15-3h-18l18-3h-21l21-3h-25l25-3h-28l28-3h-31l31-3h-35l35-3h-38l38-3h-42l42-3h-45l45-3h-46
			l46-3h-46l46-3h-46l46-3h-46h1h-15l15-3h-20l20-3h-25l25-3h-30l30-3h-35l35-3h-41l41-3h-46l46-3h-46l46-3h-46l46-3h-46l46-3h-46
			l46-3h-46l46-3h-46l42-3h-42l36-3h-36l30-3h-30h1h-46l46-3h-46l46-3h-46l46-3h-46l46-3h-46l46-3h-46l40-3h-40l34-3h-34l28-3h-28
			l22-3h-22l17-3h-17l11-3h-11l5-3h-5l3-3h-3l6-3h-6l9-3h-9h1h-46l12-3h-12l8-3h-8l3-3h-3l19-3h-19l25-3h-25l28-3h-28l30-3h-30l33-3
			h-33l35-3h-35l38-3h-38l40-3h-40l42-3h-42l44-3h-44l1-3h-1h1l-1,3h44l2-3h-30l30-3h-31h31h-1h2h-2l1-3h-1l1-3h-1v-3l0,0l0,0v3h1
			l-1,3h1l-1,3h1l-30,3h30l-2,3l-44,3h42l-42,3h40l-40,3h38l-38,3h35l-35,3h33l-33,3h30l-30,3h28l-28,3h25l-25,3h19l-19,3h3l-3,3h8
			l-8,3h12l-12,3h1l-46,3h46l-46,3h46l-43,3h43l-38,3h38l-39,3h39l-42,3h42l-44,3h44l-42,3h42l-40,3h40l-39,3h39l-37,3h37l-36,3h36
			l-34,3h34l-33,3h33l-32,3h32h-32l32-3h-33l33-3h-34l34-3h-36l36-3h-37l37-3h-39l39-3h-40l40-3h-42l42-3h-44l44-3h-42l42-3h-39
			l39-3h-38l38-3h-43l43-3h-46l46-3h-46l46-3h-46h1h-42l42-3h-44l44-3h-45l45-3h-46l46-3h-46l46-3h-46l46-3h-46l46-3h-46l46-3h-46
			l46-3h-46l46-3h-46l46-3h-46l46-3h-46l46-3h-46l46-3h-46l46-3h-46h1h-46l46-3h-46l46-3h-46l46-3h-46l19-3h-19l17-3h-17l16-3h-16
			l14-3h-14l13-3h-13l11-3h-11l10-3h-10l8-3h-8l7-3h-7l5-3h-5l3-3h-3l2-3h-2h1h-35l35-3h-36l34-3h-35l34-3h-35l33-3h-27l26-3h-21
			l19-3h-16l15-3h-11l10-3h-7l6-3h-5h5l-6,3h7l-10,3h11l-15,3h16l-19,3h21l-26,3h27l-33,3h35l-34,3h35l-34,3h36l-35,3h35h-1h2l-2,3
			h3l-3,3h5l-5,3h7l-7,3h8l-8,3h10l-10,3h11l-11,3h13l-13,3h14l-14,3h16l-16,3h17l-17,3h19h2h25h-25l25-3h-23l23-3h-22l11-3h-9h9
			l-11,3h22v-3h-7l7-3h-9l9-3h-12l12-3h-14l14-3h-16l16-3h-18l18-3h-20l20-3h-22l22-3h-23h23h-1h19h-19l16-3h-16l14-3h-14l11-3h-11
			l9-3h-9l7-3h-7l5-3h-5l3-3h-3l1-3h-1v-3l0,0v-3l0,0l3-3h-3l46-3h-46l46-3h-46l46-3h-46l46-3h-46h1h-9l9-3h-6l6-3h-3h3l-6,3h6l-9,3
			h9h-1h46h-1h22h-22l16-3h-16l7-3h-7h7l-7,3h16l-16,3h1l-46,3h46l-46,3h46l-46,3h46v3l-25,3h25l-19,3h19l-14,3h14l-9,3h9l-5,3h5
			l-1,3h1h-1l1-3h-5l5-3h-9l9-3h-14l14-3h-19l19-3h-25l25-3h-32h32v-3l-46,3h3l-3,3l0,0v3l0,0v3h1l-1,3h3l-3,3h5l-5,3h7l-7,3h9l-9,3
			h11l-11,3h14l-14,3h16l-16,3h1l-22,3h22l-20,3h20l-18,3h18l-16,3h16l-14,3h14l-12,3h12l-9,3h9l-7,3h7v3l-23,3h23l-25,3h-2l-19,3
			h46l-46,3h46l-46,3h46l-46,3h1l-22,3h22l-21,3h21l-21,3h21l-20,3h20l-20,3h20l-19,3h19l-19,3h19l-18,3h18l-18,3h18l-17,3h17l-17,3
			h17l-16,3h16l-16,3h16l-16,3h16l-15,3h15h-1h43l-43,3h44l-44,3h46l-46,3h46l-46,3h46l-46,3h46l-46,3h46l-46,3h46l-46,3h46l-46,3
			h46l-46,3h46l-46,3h46l-46,3h46l-46,3h46l-46,3h46l-46,3h1l-45,3h45l-43,3h43l-42,3h42l-40,3h40l-39,3h39l-37,3h37l-35,3h35l-33,3
			h33l-31,3h31l-30,3h30l-28,3h28l-26,3h26l-24,3h24l-22,3h22l-20,3h20h-1h46l-46,3h46l-46,3h46l-46,3h46l-46,3h46l-46,3h46l-46,3
			h46v3h-4h4v-3l-46,3h39l-39,3h35l-35,3h32l-32,3h30l-29,3h26l-24,3h22l-20,3h17l-16,3h14l-12,3l-7,3l-46,3h46l-46,3h46l-46,3h46
			l-46,3h46l-46,3h46l-46,3h46v3h-19h19v-3l-46,3h8l-8,3h3l-3,3l0,0l0,0l3-3h-3l8-3h-8l46-3h-46l46-3h-46l46-3h-46l46-3h-46l46-3
			h-46l46-3h-46l46-3h-46l15-3h-15h1h-17l17-3h-18l18-3h-18l18-3h-19l19-3h-20l20-3h-21l21-3h-22l22-3h-23l23-3h-24l24-3h-26l26-3
			h-27l27-3h-29l29-3h-30l30-3h-32l32-3h-33l33-3h-35h35l0,0h-1v-3l0,0l0,0v3h1l0,0l-33,3h33l-32,3h32l-30,3h30l-29,3h29l-27,3h27
			l-26,3h26l-24,3h24l-23,3h23l-22,3h22l-21,3h21l-20,3h20l-19,3h19l-18,3h18l-18,3l-12,3h-16l13-3h-13l11-3h-11l8-3h-8l6-3h-6l4-3
			h-4l2-3h-2v-3l0,0l0,0v3h2l-2,3h4l-4,3h6l-6,3h8l-8,3h11l-11,3h13l-13,3h1l-25,3h25l-22,3h22l-19,3h19l-17,3h17l-14,3h14l-11,3h11
			l-9,3h9l-6,3h6l-5,3h-3l-38,3h46l-46,3h46l-46,3h46l-46,3h46l-46,3h46l-41,3h41h-1h30l-30,3h27l-27,3h22l-22,3h5h-5l22-3h-22l27-3
			h-27l30-3h-30h1h-41l41-3h-46l46-3h-46l46-3h-46l46-3h-46l46-3h-46l38-3h-38l31-3h-31l24-3h-24l19-3h-19l14-3h-14l9-3h-9l4-3h-4h4
			l-4,3h9l-9,3h14l-14,3h19l-19,3h24l-24,3h31l-31,3h38h3h5h-5l5-3h-6l6-3h-9l9-3h-11l11-3h-14l14-3h-17l17-3h-19l19-3h-22l22-3h-25
			l25-3h-27h27h-1h16l12-3h18l-17,3h17h-1h15l-15,3h46l7-3h11h-11l12-3h-14l16-3h-17l20-3h-22l24-3h-26l29-3h-30l32-3h-32l35-3h-35
			l39-3h-39l46-3h-46l46-3h-46l46-3h-46l46-3h-46l46-3h-46l46-3h-46l46-3h-46h1h-20l20-3h-22l22-3h-24l24-3h-26l26-3h-28l28-3h-30
			l30-3h-31l31-3h-33l33-3h-35l35-3h-37l37-3h-39l39-3h-40l40-3h-42l42-3h-43l43-3h-45l45-3h-46h-1h2h-2l2-3h-3l3-3h-5l5-3h-6l6-3
			h-8l8-3h-9l9-3h-11l11-3h-12l12-3h-14l14-3h-16l16-3h-17l17-3h-19l19-3h-20l20-3h-22h-2l-22,3h22l-22,3h22l-22,3h23l-23,3h23
			l-23,3h24l-24,3h25l-25,3h26l-26,3h26l-26,3h27l-27,3h28l-28,3h29l-29,3h30l-30,3h1l-46,3h13l-13,3h14l-14,3h15l-15,3h16l-16,3h17
			l-17,3h18l-18,3h20l-20,3h21l-21,3h22l-22,3h23l-23,3h25l-25,3h26l-26,3h28l-28,3h29l-29,3h1l-37,3h22l-21,3h18l-18,3h16l-15,3h12
			l-12,3h10l-9,3h7l-7,3h6l-5,3h2h-2l5-3h-6l7-3h-7l9-3h-10l12-3h-12l15-3h-16l18-3h-18l21-3h-22l37-3h-38h38v3l-8,3h8l-6,3h6l-5,3
			h5l-4,3h4l-2,3h2l-46,3l0,0v3h3l-3,3h7l-7,3h11l-11,3h16l-16,3h21l-21,3h25l-25,3h30l-30,3h1l-46,3h46l-46,3h46l-46,3h46l-44,3h44
			l-41,3h38l-36,3h39l-36,3h36l-34,3h34l-31,3h31l-29,3h29l-26,3h26l-24,3h24l-21,3h21l-19,3h19l-16,3h16h-1h23l-23,3h26l-26,3h29
			l-29,3h31l-31,3h34l-34,3h37l-37,3h40l-37,3h38l-36,3h34l-32,3h30l-27,3h25l-23,3h21l-19,3h16l-13,3h10l-8,3h4h-4l8-3h-10l13-3
			h-16l19-3h-21l23-3h-25l27-3h-30l32-3h-34l36-3h-38l37-3h-40l37-3h-37l34-3h-34l31-3h-31l29-3h-29l26-3h-26l23-3h-23h1h-16l16-3
			h-19l19-3h-21l21-3h-24l24-3h-26l26-3h-29l29-3h-31l31-3h-34l34-3h-36l36-3h-39l36-3h-38l41-3h-44l44-3h-46l46-3h-46l46-3h-46
			l46-3h-46h1h-11l11-3h-14l14-3h-17l17-3h-20l20-3h-23l23-3h-27l27-3h-30l30-3h-33l33-3h-37l37-3h-40l40-3h-43l43-3h-46l46-3h-46
			l46-3h-46l46-3h-46l46-3h-46h1h-16l16-3h-19l19-3h-23l23-3h-27l27-3h-30l30-3h-34l34-3h-38l38-3h-42l42-3h-46l46-3h-46l46-3h-46
			l46-3h-46l46-3h-46l46-3h-46l46-3h-46l46-3h-46h1h-28l28-3h-33l33-3h-38l38-3h-43l43-3h-46l46-3h-46l46-3h-46l46-3h-46l46-3h-46
			l46-3h-46l42-3h-42l37-3h-37l33-3h-33l28-3h-28l23-3h-23l18-3h-18h1h-46l46-3h-46l46-3h-46l44-3h-44l36-3h-36l27-3h-27l17-3h-17
			l18-3h-18l21-3h-21l24-3h-24l27-3h-27l30-3h-30l33-3h-23l26-3h-21l24-3h-19l22-3h-19h19l3-3l0,0l0,0l3-3h-3l5-3h-5l7-3h-7l9-3h-9
			l12-3h-12l14-3h-14l16-3h-16l46-3h-46l46-3h-46l46-3h-46l46-3h-46l46-3h-46l46-3h-46l46-3h-46h1h-13l13-3h-15l15-3h-16l16-3h-18
			l18-3h-20l20-3h-21l21-3h-24l24-3h-26l26-3h-28l28-3h-31l31-3h-33l33-3h-36l36-3h-39l39-3h-42l42-3h-45l45-3h-46h1h-3l3-3h-6l6-3
			h-9l9-3h-14l14-3h-18l18-3h-20l20-3h-21l21-3h-20l20-3h-17l17-3h-14l14-3h-11l11-3h-8l8-3h-5l5-3h-1h1l-5,3h5l-8,3h8l-11,3h11
			l-14,3h14l-17,3h17l-20,3h20l-21,3h21l-20,3h20l-18,3h18l-14,3h14l-9,3h9l-6,3h6l-3,3h3h-1h46h-1h8h-8l5-3h-5l1-3h-1h1l-1,3h5
			l-5,3h1l-45,3h45l-42,3h42l-39,3h39l-36,3h36l-33,3h33l-31,3h31l-28,3h28l-26,3h26l-24,3h24l-21,3h21l-20,3h20l-18,3h18l-16,3h16
			l-15,3h15l-13,3h13h-1h46h-1h35h-35l33-3h-33l32-3h-30l29-3h-28l27-3h-26l26-3h-25l24-3h-24l24-3h-23l22-3h-21l21-3h-19l19-3h-18
			l18-3h-16l17-3h-14l14-3h-11l12-3h-10l12-3h-9h9l13-18h2h-2l5-3h-5l8-3h-7l10-3h-7l10-3h-6l9-3h-5l7-3h-4h4l-7,3h5l-9,3h6l-10,3h7
			l-10,3h7l-8,3h5l-5,3l-13,18l-12,3h10l-12,3h11l-14,3h14l-17,3h16l-18,3h18l-19,3h19l-21,3h21l-22,3h23l-24,3h24l-24,3h25l-26,3
			h26l-27,3h28l-29,3h30l-32,3h33l-33,3h1l-46,3h46l-46,3h46l-46,3h46l-46,3h46l-46,3h46l-46,3h46l-46,3h16h2h28l-24,3h24l-21,3h21
			l-17,3h17l-14,3h14l-10,3h10l-6,3h6l-3,3h3l1,3h44h-1h20h-20l17-3h-17l15-3h-15l12-3h-12l10-3h-10l8-3h-8l6-3h-6l4-3h-4l2-3h-2v-3
			l0,0l0,0v3h2l-2,3h4l-4,3h6l-6,3h8l-8,3h10l-10,3h12l-12,3h15l-15,3h17l-17,3h1l-40,3h40l-37,3h37l-33,3h33l-30,3h30l-26,3h26
			l-22,3h22l-19,3h19l-21,3h21v3l-6,3h6l-2,3h2h-2l2-3h-6l6-3h-10h10v-3l-23,3h10l-12,3h12l-15,3h16l-18,3h18l-21,3h22l-24,3h25
			l-27,3h28h-28l27-3h-25l24-3h-22l21-3h-18l18-3h-16l15-3h-12l12-3h-10l23-3h-21l21-3h-19l19-3h-22l22-3h-26l26-3h-30l30-3h-33
			l33-3h-37l37-3h-40l40-3h-44l-1-3h-3l3-3h-6l6-3h-10l10-3h-14l14-3h-17l17-3h-21l21-3h-24l24-3h-28h-2l-16,3h14l-14,3h12l-12,3h9
			l-9,3h7l-7,3h5l-5,3h3l-3,3l-3,3l-22,3h19l-24,3h21l-26,3h23l-33,3h30l-30,3h27l-27,3h24l-24,3h21l-21,3h18l-18,3h17l-17,3h27
			l-27,3h36l-36,3h44l-44,3h46l-46,3h46l-46,3h1l-13,3h13l-5,3h5h-5l5-3h-13l13-3h-24l-21-3h-45l45-3h-44l44-3h-42l42-3h-41l41-3
			h-39l39-3h-37l37-3h-35l35-3h-33l33-3h-30l30-3h-27l27-3h-20h20l-27,3h27l-30,3h30l-33,3h33l-35,3h35l-37,3h37l-39,3h39l-41,3h41
			l-42,3h42l-44,3h44l-45,3l-74,48l-11,3h7l-11,3h7l-9,3h7l-7,3h5l-5,3h4l-4,3h3l-3,3h2l-2,3h2l-2,3h2l-2,3h2l-2,3h2l-2,3h2l-2,3h2
			l-2,3h2l-2,3h1l-23,3h23l-23,3h23l-24,3h24l-25,3h25l-25,3h25l-26,3h26l-27,3h27l-27,3h-2l-17,3h46l-46,3h46l-46,3h46l-46,3h46
			l-46,3h46l-46,3h46l-46,3h1l-21,3h21l-13,3h13l-6,3h6h-6l6-3h-13l13-3h-21l21-3h-28h28h-1h46h-1h24l-24,3h26l-26,3h29l-29,3h32
			l-32,3h34l-34,3h37l-37,3h39l-39,3h42l-42,3h46l-46,3h46l-46,3h46l-46,3h46l-46,3h46l-46,3h46l-46,3h46l-43,3h43h-1h19l-19,3h23
			l-23,3h26l-26,3h27l-27,3h23l-23,3h17l-17,3h13l-13,3h9l-9,3h5l-5,3h3l-3,3l0,0l0,0l3-3h-3l5-3h-5l9-3h-9l13-3h-13l17-3h-17l23-3
			h-23l27-3h-27l26-3h-26l23-3h-23l19-3h-19h1h-43l43-3h-46l46-3h-46l46-3h-46l46-3h-46l46-3h-46l46-3h-46l46-3h-46l42-3h-42l39-3
			h-39l37-3h-37l34-3h-34l32-3h-32l29-3h-29l26-3h-26l24-3h-24h1h-46l46-3h-46l46-3h-46l46-3h-46l46-3h-46l46-3h-46l46-3h-46l17-3
			h-17l12-3h-12l5-3h-5l1-3h-1v-3l0,0l2-3h-2l4-3h-4l6-3h-6l9-3h-9h1h-46l46-3h-46l46-3h-46l46-3h-46l46-3h-46l14-3h-14l3-3h-3h3
			l-3,3h14l-14,3h46l-46,3h46l-46,3h46l-46,3h46l-46,3h1l-46,3h46l-46,3h46l-46,3h46l-46,3h46l-46,3h46l-46,3h46l-46,3h46l-46,3h46
			l-46,3h46l-46,3h46v3l-4,3h4h-4l4-3h-11h11v-3l-46,3h30l-30,3h31l-31,3h33l-33,3h34l-34,3h1l-21,3h21l-18,3h18l-16,3h16l-13,3h13
			l-10,3h10l-7,3h7l-5,3h5l-2,3h2h-2l2-3h-5l5-3h-7l7-3h-10l10-3h-13l13-3h-16l16-3h-18l18-3h-21l21-3h-23h23h-1h36l9,15l0,0v3h3
			l-3,3h5l-5,3h7l-7,3h8l-8,3h10l-10,3h11l-11,3h14l-14,3h17l-17,3h22l-22,3h1l-24,3h24l-22,3h22l-19,3h19l-17,3h13l-10,3h8l-6,3h6
			l-3,3h1h-1l3-3h-6l6-3h-8l10-3h-13l17-3h-19l19-3h-22l22-3h-24l24-3h-27h27h-1h16h-16l22-3h-22l17-3h-17l14-3h-14l11-3h-11l10-3
			h-10l8-3h-8l7-3h-7l5-3h-5l3-3h-3v-3l0,0l-9-15h-36l34-3h-34l33-3h-33l31-3h-31l30-3h-30l46-3h-46l46-3h-46l46-3h-46l46-3h-46
			l46-3h-46l46-3h-46l46-3h-46l46-3h-46l46-3h-46l46-3h-46l46-3h-46h1h-46l46-3h-46l46-3h-46l46-3h-46l46-3h-46l46-3h-46l46-3h-46
			l46-3h-46l46-3h-46l46-3h-46l41-3h-41l39-3h-39l37-3h-37l36-3h-36l34-3h-34l33-3h-33h1h-12l12-3h-13l13-3h-14l14-3h-15l15-3h-16
			l16-3h-17l17-3h-18l18-3h-19l19-3h-20l20-3h-21l21-3h-22l22-3h-23l23-3h-24l24-3h-25l25-3h-26l26-3h-28h28h-1h46h-1h33l-33,3h33
			l-33,3h33l-33,3h32l-32,3h32l-32,3h32l-32,3h31l-31,3h31l-31,3h30l-30,3h30l-30,3h29l-29,3h28l-28,3h26l-26,3h23l-23,3h20l-20,3h1
			l-3,3h3l-3,3h3h-3l3-3h-3l3-3h-3h3h-1h16h-16l20-3h-20l23-3h-23l26-3h-26l28-3h-28l29-3h-29l30-3h-30l30-3h-30l31-3h-31l31-3h-31
			l32-3h-32l32-3h-32l32-3h-32l33-3h-33l33-3h-33l33-3h-33h1h-46l46-3h-46l46-3h-46l46-3h-46l46-3h-46l28-3h-28l22-3h-22l16-3h-16
			l11-3h-11l7-3h-7l4-3h-4l1-3h-1l-9-12h-32l29-3h-25l23-3h-18l17-3h-12l11-3h-6l6-3h-4h4l-6,3h6l-11,3h12l-17,3h18l-23,3h25l-29,3
			h-15l-24,3h22l-26,3h23l-27,3h24l-26,3h23l-23,3h20l-20,3h17l-17,3h14l-14,3h9l-9,3h5l-5,3v9h2l-2,3h6l-6,3h1l-46,3h46l-46,3h46
			l-46,3h46l-46,3h46l-46,3h46l-46,3h46l-46,3h46l-46,3h46l-46,3h46l-46,3h46l-46,3h46l-46,3h37l-37,3h36l-36,3h37l-37,3l0,0h1h-1
			l0,0h38h-38l37-3h-37l36-3h-36l37-3h-37l46-3h-46l46-3h-46l46-3h-46l46-3h-46l46-3h-46l46-3h-46l46-3h-46l46-3h-46l46-3h-46l46-3
			h-46l46-3h-46l46-3h-46h1h-46l46-3h-46l46-3h-46l46-3h-46l46-3h-46l46-3h-45v-3h-1l4-3h-4l8-3h-8l11-3h-11l14-3h-14l16-3h-16l19-3
			h-19l22-3h-22l24-3h-24l23-3h-23h1h-19l19-3h-21l21-3h-23l23-3h-25l25-3h-27l27-3h-29l29-3h-31l31-3h-33l33-3h-35l35-3h-37l37-3
			h-39h39v-3l-46,3h3l-3,3h2l-2,3h1h-1l2-3h-2l3-3h-3l46-3h-46l46-3h-46l43-3h-43l41-3h-41l39-3h-39h1h-18l18-3h-18l18-3h-18l18-3
			h-18l18-3h-19l19-3h-19l19-3h-20l20-3h-20l20-3h-21l21-3h-22l22-3h-23l23-3h-24l24-3h-25l25-3h-26l26-3h-28l28-3h-29h29h-1h6h-6
			l4-3h-4l2-3h-2v-3l0,0l0,0v3h2l-2,3h4l-4,3h1l-28,3h28l-26,3h26l-25,3h25l-24,3h24l-23,3h23l-22,3h22l-21,3h21l-20,3h20l-20,3h20
			l-19,3h19l-19,3h19l-18,3h18l-18,3h18l-18,3h18l-18,3h18h-1h39l-39,3h41l-41,3h43l-43,3h46l-46,3h46v3l-37,3h37l-35,3h35l-33,3h33
			l-31,3h31l-29,3h29l-27,3h27l-25,3h25l-23,3h23l-21,3h21l-19,3h19h-1h23l-23,3h24l-24,3h22l-22,3h19l-19,3h16l-16,3h14l-14,3h11
			l-11,3h8l-8,3h4l-4,3h1v3h45v-3h-23l23-3h-24l24-3h-25l25-3h-25l25-3h-22l22-3h-18l18-3h-15l15-3h-11l11-3h-8l8-3h-6h6v-9h-1l4-3
			h-4l6-3h-6l9-3h-9l11-3h-11l13-3h-13l15-3h-14l16-3h-14l16-3h-15l17-3h-16l18-3h-17l19-3h-18l19-3h-18h18h10h10h-1h35l10,15l0,0v3
			h2l-2,3h2l-2,3l0,0l0,0l2-3h-2l2-3h-2v-3l0,0l-10-15h-35l33-3h-33l31-3h-31l29-3h-29l26-3h-26l24-3h-24l22-3h-22l19-3h-19l16-3
			h-16l14-3h-14l12-3h-12l9-3h-9l7-3h-7l5-3h-5l3-3h-3l1-3h-1h1l0,0h-40l38-3h-39l37-3h-39l37-3h-39l36-3h-37l35-3h-35l33-3h-33
			l31-3h-31l28-3h-28l26-3h-24l22-3h-19l17-3h-14l13-3h-10l9-3h-7h7l-9,3h10l-13,3h14l-17,3h19l-22,3h24l-26,3h28l-28,3h31l-31,3h33
			l-33,3h35l-35,3h37l-36,3h39l-37,3h39l-37,3h39l-38,3h40l0,0l-1,3h3l-3,3h5l-5,3h7l-7,3h9l-9,3h12l-12,3h14l-14,3h16l-16,3h19
			l-19,3h22l-22,3h24l-24,3h26l-26,3h29l-29,3h31l-31,3h33l-33,3h1l-7,3h7l-4,3h4l-2,3h2h-2l2-3h-4l4-3h-7l7-3h-10h-10l-19,3h18
			l-19,3h17l-18,3h16l-17,3h15l-16,3h14l-16,3h14l-15,3h13l-13,3h11l-11,3h9l-9,3h6l-6,3h4l-4,3h1v9h-1l0,0l0,0h1l-8,3h8l-11,3h11
			l-15,3h15l-18,3h18l-22,3h22l-25,3h25l-25,3h25l-24,3h24l-23,3h23v3l-46,3h46l-46,3h46l-46,3h46l-46,3h46l-46,3h1l-12,3h12l-15,3
			h15l-17,3h17l-19,3l-2,6l-25,3h31l-31,3h36l-36,3h41l-41,3h46l-46,3h46l-46,3h46l-46,3h46l-46,3h46l-46,3h1l-15,3h15l-13,3h13
			l-11,3h11l-15,3h15l-29,3h29h-29l29-3h-15l15-3h-11l11-3h-13l13-3h-15l15-3h-17h17h-1h46h-1h20l-20,3h24l-24,3h31l-31,3h46l-46,3
			h46l-46,3h46l-46,3h46l-46,3h46l-46,3h46l-46,3h46l-46,3h46v3l-32,3h32l-28,3h28l-25,3h25l-21,3h21h-1h46h-1h16h-16l15-3h-15l13-3
			h-13l12-3h-12l10-3h-10l8-3h-8l7-3h-7l7-3h-7l8-3h-8l2-3h-2h2l-2,3h8l-8,3h7l-7,3h7l-7,3h8l-8,3h10l-10,3h12l-12,3h13l-13,3h15
			l-15,3h1l-46,3h46l-46,3h46l-46,3h46l-46,3h46l-46,3h46l-46,3h46l-43,3h43l-40,3h40l-38,3h38l-35,3h35l-32,3h32l-30,3h30l-27,3h27
			l-24,3h24l-22,3h22h-1h39l-39,3h40l-40,3h42l-42,3h43l-43,3h46l-46,3h46l-46,3h46l-46,3h46l-46,3h46l-44,3h44l-41,3h41l-38,3h38
			l-36,3h36l-33,3h33l-31,3h31l-28,3h28h-1h16l-16,3h18l-18,3h20l-20,3h22l-22,3h25l-25,3h27l-27,3h27l-27,3h27l-27,3h25l-25,3h22
			l-22,3h19l-19,3h16l-16,3h13l-13,3h9l-7,3h6h-6l7-3h-9l13-3h-13l16-3h-16l19-3h-19l22-3h-22l25-3h-25l27-3h-27l27-3h-27l27-3h-27
			l25-3h-25l22-3h-22l20-3h-20l18-3h-18l16-3h-16h1h-28l28-3h-31l31-3h-33l33-3h-36l36-3h-38l38-3h-41l41-3h-44l44-3h-46l46-3h-46
			l46-3h-46l46-3h-46l46-3h-46l43-3h-43l42-3h-42l40-3h-40l39-3h-39h1h-22l22-3h-24l24-3h-27l27-3h-30l30-3h-32l32-3h-35l35-3h-38
			l38-3h-40l40-3h-43l43-3h-46l46-3h-46l46-3h-46l46-3h-46l46-3h-46l46-3h-46l46-3h-46h1h-21l21-3h-25l25-3h-28l28-3h-32l32-3h-36
			h36v-3l-46,3h7l-7,3h9l-9,3h11l-11,3h13l-13,3h1l-23,3h23l-21,3h21l-20,3h20l-18,3h18l-16,3h16l-14,3h14l-12,3h12l-10,3h10l-8,3h8
			l-7,3h7l-6,3h6l-5,3h5l-3,3h3l-2,3h2l-1,3l0,0h33l-32,3h33l-32,3h32l-30,3h31l-30,3h30l-29,3h29l-29,3h30l-29,3h29l-28,3h29l-29,3
			h29l-28,3h29l-28,3h28l-28,3h28l-27,3h28l-28,3h28l-27,3h27v45l-30,3h30l-31,3h30l-30,3h27l-28,3h25l-26,3h24l-25,3h23l-24,3h21
			l-23,3h21l-22,3h20l-21,3h18l-18,3h16l-16,3h14l-14,3h11l-11,3h9l-9,3h1l-8,3h8l-9,3h9l-11,3h9l-11,3h9l-10,3h7l-9,3h6l-8,3h5
			l-7,3h3l-4,3l0,0l0,0l4-3h-3l7-3h-5l8-3h-6l9-3h-7l10-3h-9l11-3h-9l11-3h-9l9-3h-8l8-3h-7h7h-1h7h-7l9-3h-9l11-3h-11l14-3h-14
			l16-3h-16l18-3h-18l21-3h-20l22-3h-21l23-3h-21l24-3h-23l25-3h-24l26-3h-25l28-3h-27l30-3h-30l31-3h-30l30-3h-29h29v-45h-27l27-3
			h-28l28-3h-28l27-3h-28l28-3h-28l28-3h-29l28-3h-29l29-3h-29l28-3h-29l29-3h-30l29-3h-29l29-3h-30l30-3h-31l30-3h-32l32-3h-33
			l32-3h-33l0,0h1h-1l1-3h-2l2-3h-3l3-3h-5l5-3h-6l6-3h-7l7-3h-8l8-3h-10l10-3h-12l12-3h-14l14-3h-16l16-3h-18l18-3h-20l20-3h-21
			l21-3h-23l23-3h-26h26h-1h14h-14l13-3h-13l11-3h-11l9-3h-9l7-3h-7l46-3h-46l46-3h-46l46-3h-46l46-3h-46l46-3h-46l46-3h-46l46-3
			h-46l46-3h-46l31-3h-31l24-3h-24l20-3h-20h1h-46l46-3h-46l46-3h-46l46-3h-46l46-3h-46l46-3h-46l41-3h-41l36-3h-36l31-3h-31l25-3
			h-25l19-3h-19l13-3h-13l9-3h-9l13-3h-13l17-3h-17l22-3h-22h1h-46l46-3h-46l46-3h-46l37-3h-37l34-3h-34l31-3h-31l28-3h-28l26-3h-26
			l23-3h-23l20-3h-20l17-3h-17l18-3h-18l21-3h-21l24-3h-24l7-3h-7l4-3h-4h1h-46l46-3h-46l44-3h-44l42-3h-42l40-3h-40l37-3h-37l35-3
			h-35l32-3h-32l30-3h-30l28-3h-28l25-3h-25l22-3h-22l19-3h-19l16-3h-16l13-3h-13l10-3h-10h1h-46l46-3h-46l46-3h-46l46-3h-46l44-3
			h-44l41-3h-41l38-3h-38l36-3h-36l33-3h-33l30-3h-30l27-3h-27l24-3h-24l21-3h-21l18-3h-18l15-3h-15l15-3h-14h14l30-33l0,0l0,0l3-3
			h-3l5-3h-4l6-3h-2h2l-6,3h4l-5,3h3l-3,3l-30,33l-15,3h15l-15,3h18l-18,3h21l-21,3h24l-24,3h27l-27,3h30l-30,3h33l-33,3h36l-36,3
			h38l-38,3h41l-41,3h44l-44,3h46l-46,3h46l-46,3h46l-46,3h1h-22h22h-1h46h-1h10l-10,3h13l-13,3h16l-16,3h19l-19,3h22l-22,3h25
			l-25,3h28l-28,3h30l-30,3h32l-32,3h35l-35,3h37l-37,3h40l-40,3h42l-42,3h44l-44,3h46l-46,3h1l-46,3h46l-46,3h46l-46,3h46l-46,3h46
			l-46,3h46l-46,3h46l-46,3h46l-46,3h46l-42,3h42v3l-32,3h32l-28,3h28l-23,3h23l-18,3h1h-1l18-3h-23l23-3h-28l28-3h-32l32-3h-37h37
			v-3l-46,3h2l-2,3h4l-4,3h3l-3,3h3l-3,3h4l-4,3h1l-20,3h20l-23,3h23l-25,3h25l-24,3h24l-23,3h23l-22,3h22l-21,3h21l-20,3h20l-20,3
			h20l-19,3h19v3l-46,3h46l-46,3h46l-46,3h46l-46,3h1l-16,3h16l-11,3h11l-6,3h6l-2,3h2h-2l2-3h-6l6-3h-11l11-3h-16l16-3h-21l-24-15
			h-2l2-3h-7l7-3h-12l12-3h-18l18-3h-24l24-3h-30l30-3H99l36-3H92l43-3H89l46-3H89l46-3H89h1H44l46-3H44l46-3H44l46-3H44l46-3H44
			l46-3H44l46-3H44l46-3H44l46-3H44l46-3H44l16-3H44h16l-16,3h46l-46,3h46l-46,3h46l-46,3h46l-46,3h46l-46,3h46l-46,3h46l-46,3h46
			l-46,3h46l-46,3h1l-44,3h44l-36,3h36H9l36-3H1l44-3H1h44h-1h46h-1h46h-1h13h-13l8-3h-8l3-3h-3v-30h2h-2l4-3h-4l7-3h-7l9-3h-6h6
			l-9,3h7l-7,3h4l-4,3v30h3l-3,3h8l-8,3h1l-46,3h46l-46,3h46l-43,3h43l-36,3h36l-30,3h30l-24,3h24l-18,3h18l-12,3h12l-7,3h7l-2,3h2
			l24,15h21h-1h46h-1h26l-26,3h28l-28,3h29l-29,3h31l-31,3h32l-32,3h34l-34,3h36l-36,3h38l-38,3h40l-40,3h42l-42,3h46l-46,3h46
			l-46,3h46l-46,3h46l-46,3h46l-46,3h1l-2,3h2h-2l2-3h-5h5h-1h46h-1h46v3l-13,3h13l-11,3h11l-9,3h9l-8,3h8l-6,3h6l-5,3h5l-4,3h4
			l-2,3h2l-1,3h1h-1l1-3h-2l2-3h-4l4-3h-5l5-3h-6l6-3h-8l8-3h-9l9-3h-11l11-3h-13l13-3h-15h15v-3h-1h25h-25l24-3h-24l23-3h-23l27-3
			h-27l38-3h-38l46-3h-46l46-3h-46l46-3h-46l46-3h-46l46-3h-46l13-3h-13l10-3h-10l9-3h-9l8-3h-8l6-3h-6l5-3h-5h1h-35l35-3h-36l36-3
			h-38l38-3h-39l39-3h-41l38-3h-39l42-3h-43l43-3h-45l45-3h-46l46-3h-46l46-3h-46l46-3h-46l46-3h-46l46-3h-46l46-3h-46l28-3h-28h1
			h-12l12-3h-13h13l-12,3h12h-1h28l-28,3h46l-46,3h46l-46,3h46l-46,3h46l-46,3h46l-46,3h46l-46,3h46l-45,3h45l-43,3h43l-42,3h39
			l-38,3h41l-39,3h39l-38,3h38l-36,3h36l-35,3h35h-1h5l-5,3h6l-6,3h8l-8,3h9l-9,3h10l-10,3h13l-13,3h46l-46,3h46l-46,3h46l-46,3h46
			l-46,3h46l-46,3h38l-38,3h27l-27,3h23l-23,3h24l-24,3h1l-46,3h11l-11,3h13l-13,3h15l-15,3h17l-17,3h19l-19,3h21l-21,3h23l-23,3h25
			l-25,3h27l-27,3h30l-30,3h32l-32,3h34l-34,3h36l-36,3h38l-38,3h1l-5,3h5l-3,3h3h-3l3-3h-5l5-3h-8h8h-1h41l4,6h1l-1,3h3l-3,3h6h3h6
			h-6l7-3h-7l10-3h-11l13-3h-14l17-3h-18h18l-17,3h14l-13,3h11l-10,3h7l-7,3h-3l-6,3h11l-11,3h11l-11,3h13l-13,3h15l-15,3h18l-18,3
			h20l-20,3h22l-22,3h25l-25,3h27l-27,3h30l-30,3h1l-11,3h11l-9,3h9l-6,3h6l-3,3h3l-1,3h1h-1l1-3h-3l3-3h-6l6-3h-9l9-3h-11l11-3h-14
			h14h-1h32l13,18h2l-2,3h4l-4,3h7l-7,3h9l-9,3h12l-12,3h5l-5,3h2l-2,3l-5,6l-13,3h11l-9,3h7l-5,3h3h-3l5-3h-7l9-3h-11l13-3h-15h15
			l5-6l0,0l0,0l2-3h-2l5-3h-5l12-3h-12l9-3h-9l7-3h-7l4-3h-4l2-3h-2l-13-18h-32l30-3h-30l27-3h-27l25-3h-25l22-3h-22l20-3h-20l18-3
			h-18l15-3h-15l13-3h-13l11-3h-11l11-3h-11l6-3h-6l3-3h-3l1-3h-1l-4-6h-41l38-3h-38l36-3h-36l34-3h-34l32-3h-32l30-3h-30l27-3h-27
			l25-3h-25l23-3h-23l21-3h-21l19-3h-19l17-3h-17l15-3h-15l13-3h-13l11-3h-11l46-3h-46h1h-46l46-3h-46l46-3h-46l46-3h-46l46-3h-46
			l46-3h-46l42-3h-42l40-3h-40l38-3h-38l36-3h-36l34-3h-34l32-3h-32l31-3h-31l29-3h-29l28-3h-28l26-3h-26h1h-46l46-3h-46l46-3h-46
			l46-3h-46l46-3h-46l21-3h-21l16-3h-16l11-3h-11l6-3h-6v-3l0,0l0,0v3h6l-6,3h11l-11,3h16l-16,3h21l-21,3h46v-3h-19l19-3h-20l20-3
			h-20l20-3h-21l21-3h-22l22-3h-23l23-3h-24l24-3h-25l25-3h-23l23-3h-20l20-3h-17h17h-1h5h-5l4-3h-4l3-3h-3l3-3h-3l4-3h-4l2-3h-2
			l46-3h-42l42-3h-46l46-3h-46l46-3h-46l46-3h-46l46-3h-46l46-3h-46l46-3h-46l46-3h-46l46-3h-46h1h-31l31-3h-35l35-3h-38l38-3h-42
			l42-3h-45l45-3h-46l46-3h-46l46-3h-46l46-3h-46l46-3h-46l46-3h-46l46-3h-46l46-3h-46l46-3h-46l46-3h-46l22-3h-22h1h-45l45-3h-46
			l46-3h-46l46-3h-46l46-3h-46l46-3h-46l46-3h-46l46-3h-46l46-3h-46l42-3h-42l38-3h-38l35-3h-35l32-3h-32l29-3h-29l26-3h-26l23-3
			h-23h1h-35l35-3H97l38-3H93l42-3H89l46-3H89l46-3H89l46-3H89l46-3H92l39-3H95l32-3H97l27-3h-24l21-3h-18l14-3h-12l9-3H108"/>
	</g>
	<g>
		<path style="fill:none;stroke:#000000;stroke-miterlimit:10;" d="M1098.935,7.191c-0.484,1.083-0.726,2.392-1.493,3.21
			c-3.441,3.672-7.075,7.161-10.556,10.795c-5.93,6.19-12.099,12.185-17.607,18.734c-5.73,6.811-6.716,15.524-6.127,23.856
			c0.677,9.583,3.217,18.976,7.547,27.752c6.372,12.914,15.032,24.366,23.264,36.053c3.49,4.955,8.443,8.9,12.86,13.169
			c1.014,0.98,2.512,1.836,3.877,1.999c3.379,0.403,4.044,3.211,4.861,5.462c0.826,2.272-1.393,3.391-3.009,4.758
			c-5.965,5.043-11.812,10.232-17.551,15.532c-2.007,1.853-3.573,4.184-5.353,6.311c-7.187-4.843-14.178-9.554-22.218-14.972
			c1.925,18,9.995,32.175,18.018,46.77c0.351-1.493,0.844-2.969,1.029-4.482c1.43-11.683,5.398-22.29,12.426-31.855
			c5.04-6.859,10.773-12.736,18.404-16.632c0.656-0.335,1.393-0.718,1.807-1.287c5.536-7.601,13.991-8.287,22.081-8.374
			c13.575-0.146,27.06,1.651,40.424,4.158c5.436,1.02,10.896,1.904,16.197,2.825c0.462-4.053,0.486-7.937,1.411-11.594
			c1.893-7.482,7.669-12.143,13.334-16.726c3.322-2.687,6.826-5.156,10.312-7.633c4.35-3.091,5.144-4.815,3.012-9.801
			c-4.509-10.542-5.804-21.859-8.749-33.077c7.577-6.479,14.986-12.915,22.538-19.181c1.425-1.182,3.416-1.682,5.663-2.741
			c0.79,5.535,3.251,9.322,6.01,13.127c4.794,6.613,9.69,13.122,13.639,20.399c5.493,10.121,12.432,19.448,18.189,29.439
			c7.993,13.871,15.422,28.065,23.178,42.073c3.155,5.699,6.631,11.221,9.788,16.919c6.133,11.069,12.14,22.209,18.217,33.309
			c0.332,0.607,0.833,1.122,1.845,2.455c0.703-4.782,0.529-8.749,0.135-12.644c-1.084-10.726-2.395-21.429-3.617-32.14
			c-0.021-0.185-0.037-0.375-0.087-0.553c-3.49-12.348-2.997-25.449-7.44-37.677c-2.075-5.711-2.558-11.985-4.009-17.943
			c-0.831-3.413-2.061-6.74-3.283-10.043c-1.797-4.859-3.759-9.656-5.625-14.489c-0.716-1.855-0.403-3.4,1.733-3.929
			c8.044-1.992,13.037-8.308,18.884-13.373c0.942-0.816,1.05-2.593,1.725-4.415c1.244-0.085,2.841-0.194,4.179-0.286
			c8.599,21.957,20.249,41.921,30.587,62.963c1.678-3.388,2.976-6.247,4.486-8.989c1.484-2.693,3.479-3.316,6.589-2.373
			c2.288,0.694,4.578,1.383,7.537,1.339c-1.404-1.747-2.747-3.549-4.224-5.233c-6.62-7.548-11.035-16.472-14.745-25.589
			c-1.894-4.655-1.993-10.217-2.068-15.381c-0.06-4.118,3.602-6.826,6.135-9.577c6.905-7.5,14.319-14.529,21.442-21.831
			c2.927-3,5.934-4.266,10.414-3.545c11.708,1.884,23.558,2.875,35.286,4.651c14.163,2.144,26.364,8.621,37.384,17.664
			c11.132,9.135,21.805,18.813,30.34,30.374c7.363,9.973,15.276,19.811,19.029,32.009c1.467,4.766,2.941,9.531,4.318,14.323
			c0.578,2.012,0.214,3.778-0.86,5.805c-5.303,10.003-12.947,18.196-20.219,26.657c-3.115,3.624-7.97,3.752-12.363,4.42
			c-3.291,0.5-6.634,0.663-11.125,1.086c4.141,2.771,7.415,5.005,10.747,7.149c0.57,0.367,1.443,0.601,2.085,0.464
			c4.404-0.939,8.868-1.721,13.152-3.067c9.319-2.929,17.65-7.745,25.146-14.02c2.977-2.492,4.87-5.528,5.45-9.408
			c0.328-2.195,0.829-4.368,1.33-6.532c0.825-3.563-0.023-6.722-1.197-10.2c-2.878-8.525-6.942-16.371-11.326-24.169
			c-5.786-10.292-13.032-19.533-20.676-28.357c-5.305-6.124-12.165-10.889-18.228-16.374c-2.424-2.193-4.574-4.689-7.181-7.392
			c4.861-6.372,9.184-12.387,13.891-18.085c3.051-3.693,6.776-6.82,9.982-10.395c1.879-2.096,3.497-1.867,5.181-0.114
			c9.233,9.607,21.074,15.891,31.099,24.453c7.894,6.741,15.253,14.108,22.899,21.144c3.154,2.902,6.494,5.602,9.649,8.504
			c4.929,4.534,9.882,9.053,14.604,13.798c2.206,2.217,3.837,4.997,5.839,7.431c1.51,1.835,3.197,3.525,5.099,5.6
			c2.767-3.304,3.332-6.991,4.269-10.391c2.629-9.541,5.559-18.967,11.888-26.765c4.316-5.317,9.009-10.374,13.94-15.125
			c2.722-2.623,6.03-5.011,10.976-4.313c-4.263,7.29-12.112,12.316-11.971,22.537c4.034-3.688,7.35-7.028,10.994-9.963
			c3.419-2.754,5.191-7.817,10.806-8.191c1.741,4.554,5.311,7.121,8.581,10.171c7.86,7.329,15.105,15.317,22.574,23.063
			c2.97,3.08,5.938,6.164,8.797,9.346c3.981,4.433,7.837,8.978,11.785,13.441c3.943,4.456,8.032,8.787,11.882,13.321
			c5.398,6.356,10.592,12.884,15.962,19.263c1.898,2.254,4.058,4.287,6.357,6.691c3.872-4.113,4.462-9.302,6.31-13.774
			c3.617-8.753,3.864-18.12,3.125-27.478c-0.247-3.125-0.941-6.224-1.069-9.349c-0.416-10.123-5.411-18.449-10.316-26.808
			c-0.827-1.41-2.042-2.654-3.275-3.752c-3.675-3.269-3.602-5.132-0.106-8.418c6.057-5.694,12.503-11.121,15.482-19.152
			c3.453-1.533,5.497-0.368,7.642,2.505c3.408,4.565,6.594,9.289,11.306,12.926c3.748,2.893,6.404,7.196,9.563,10.857
			c8.874,10.285,18.213,20.211,26.521,30.935c9.904,12.782,19.5,25.855,27.603,39.914c1.941,3.368,3.679,6.853,5.709,10.658
			c-1.962,4.486-4.071,9.17-6.062,13.903c-1.827,4.343-4.26,8.228-7.694,11.505c-5.784,5.52-11.058,11.677-17.339,16.545
			c-6.834,5.296-14.57,9.428-22.283,14.301c0.366,0.492,0.814,1.785,1.596,2.036c7.664,2.464,14.663,6.134,21.248,10.753
			c6.993,4.906,14.165,9.557,21.276,14.293c0.75,0.5,1.6,1.122,2.438,1.178c10.609,0.701,20.788,3.459,31.614,6.859
			c-0.722-2.119-1.19-3.615-1.738-5.081c-2.016-5.397-3.88-10.86-6.13-16.158c-3.707-8.732-7.747-17.323-11.496-26.038
			c-2.19-5.091-4.235-10.259-5.992-15.511c-0.351-1.05,0.62-2.846,1.453-3.939c4.722-6.202,9.543-12.329,14.424-18.407
			c2.003-2.494,4.423-4.739,2.014-8.079c3.923-2.376,4.448,3.179,7.607,1.017c1.238,14.573,8.847,25.541,16.581,35.779
			c9.513,12.594,22.467,21.256,38.962,22.617c4.039,0.333,8.197-0.178,12.236-0.751c1.72-0.244,3.777-1.257,4.809-2.594
			c2.653-3.439,5.53-2.999,8.871-1.334c-1.582,8.103-7.325,13.129-13.315,17.972c-0.143,0.116-0.339,0.17-0.474,0.293
			c-7.766,7.012-17.287,10.384-27.562,13c0.475,1.381,0.781,2.595,1.295,3.713c3.075,6.703,5.908,13.539,9.383,20.03
			c3.901,7.285,8.531,14.177,12.599,21.378c4.071,7.204,7.587,14.729,11.828,21.825c2.905,4.859,6.675,9.196,9.98,13.821
			c1.485,2.078,2.792,4.285,4.159,6.446c1.095,1.73,1.823,3.864,3.297,5.15c5.436,4.743,8.751,11.017,12.799,16.774
			c2.779,3.952,5.904,7.659,8.705,11.596c5.595,7.866,11.052,15.83,16.618,23.717c1.169,1.656,2.645,3.095,3.83,4.742
			c1.534,2.133,1.843,3.816-0.33,6.308c-3.119,3.579-5.26,8.01-7.833,12.068c-0.48,0.757-0.984,1.508-1.557,2.196
			c-2.657,3.198-4.289,6.834-5.156,10.908c-0.858,4.033-1.429,4.212-5.222,2.55c-3.122-1.368-5.416-3.477-7.527-6.278
			c-4.137-5.487-9.083-10.356-13.392-15.723c-10.984-13.68-23.704-25.708-35.956-38.183c-9.914-10.095-19.914-20.106-29.843-30.186
			c-6.641-6.743-12.945-13.846-19.904-20.239c-8.348-7.669-17.124-14.889-25.925-22.045c-5.63-4.578-11.624-8.71-17.497-12.984
			c-0.957-0.697-2.133-1.093-3.979-2.012c2.49,4.752,4.467,8.666,6.571,12.511c7.567,13.83,15.351,27.545,22.698,41.491
			c3.783,7.182,6.826,14.756,10.179,22.164c0.537,1.188,0.641,2.709,1.458,3.61c4.795,5.291,4.43,11.435,3.465,17.836
			c-0.385,2.558-0.103,5.218-0.12,7.831c-0.009,1.291,0.127,2.599-0.033,3.871c-0.741,5.889-1.199,11.847-2.448,17.631
			c-1.489,6.896-3.636,13.653-5.58,20.447c-2.615,9.14-6.218,17.885-10.841,26.194c-1.708,3.07-3.257,6.307-5.433,9.023
			c-5.578,6.965-11.417,13.723-17.274,20.458c-1.142,1.313-2.836,2.146-4.203,3.147c-2.599-2.39-0.489-3.782,0.311-5.192
			c2.384-4.198,5.178-8.179,7.341-12.481c1.908-3.796,3.58-7.806,4.659-11.905c2.609-9.909,4.714-19.916,4.647-30.284
			c-0.048-7.418,0.705-14.846,0.525-22.256c-0.157-6.49-1.102-12.962-1.724-19.44c-1.094-11.403-4.418-22.156-9.278-32.501
			c-3.558-7.574-6.572-15.415-10.379-22.856c-4.4-8.598-9.01-17.142-14.249-25.244c-5.953-9.207-12.813-17.823-19.064-26.844
			c-3.604-5.201-7.762-7.971-14.493-6.554c-4.701,0.989-9.582,1.084-14.449,3.513c4.678,18.176,12.271,35.082,21.353,52.457
			c-5.476-0.659-7.716,2.413-10.067,5.198c-4.444,5.265-8.229,10.96-10.757,17.417c-1.191,3.043-2.759,3.75-5.393,1.994
			c-1.129-0.753-2.069-2.115-2.588-3.404c-2.495-6.201-4.617-12.557-7.248-18.697c-3.804-8.876-7.945-17.608-11.917-26.412
			c-2.294-5.086-4.489-10.218-6.831-15.282c-0.773-1.672-1.853-3.205-2.819-4.785c-1.103-1.803-2.803-2.415-4.801-2.152
			c-9.383,1.234-18.883,1.87-28.341,5.334c0.944,1.624,1.675,3.082,2.585,4.416c6.592,9.654,13.294,19.233,19.814,28.935
			c5.964,8.875,11.747,17.844,18.503,26.19c5.252,6.489,9.691,13.638,14.467,20.51c8.404,12.092,17.382,23.644,28.853,33.102
			c5.296,4.367,10.153,9.275,15.095,14.057c1.002,0.969,1.488,2.472,2.093,3.522c-4.836,8.534-12.483,13.543-20.177,18.372
			c-3.985,2.501-4.751,1.672-7.598-2.041c-5.313-6.928-10.711-13.847-16.673-20.208c-10.299-10.991-21.136-21.475-31.595-32.318
			c-9.169-9.506-18.008-19.332-27.225-28.79c-5.969-6.125-12.405-11.791-18.543-17.754c-7.746-7.524-15.152-15.418-23.157-22.651
			c-10.765-9.727-21.779-19.201-33.025-28.368c-11.893-9.696-25.551-16.628-39.132-23.613c-0.661-0.34-1.303-0.736-1.899-1.179
			c-5.966-4.442-12.073-8.595-20.17-9.73c-3.145,3.71-5.986,8.034-6.97,13.229c-0.863,4.552-1.181,9.207-1.74,13.817
			c-1.092,9,2.423,17.153,4.766,25.504c2.583,9.203,7.312,17.396,11.905,25.724c5.522,10.013,12.284,19.001,19.821,27.479
			c7.035,7.913,14.13,15.775,21.325,23.541c1.875,2.024,4.143,3.716,6.37,5.376c4.353,3.244,4.561,4.018,1.435,8.308
			c-0.973,1.335-2.021,2.645-3.203,3.794c-4.563,4.437-8.614,9.088-10.043,15.636c-0.367,1.679-2.441,2.985-3.712,4.441
			c-42.42-35.924-86.288-68.542-136.792-91.069c-0.343,0.306-0.686,0.611-1.029,0.917c4.757,11.778,9.583,23.528,14.25,35.341
			c4.659,11.791,9.16,23.645,13.861,35.811c-5.75,1.584-6.671,6.951-9.342,10.831c-3.034,4.409-6.467,8.616-7.776,14.08
			c-0.812,3.388-3.03,4.028-5.844,1.928c-1.301-0.971-2.256-2.461-3.223-3.818c-8.821-12.384-19.306-22.984-31.3-32.473
			c-13.137-10.393-26.989-19.202-42.432-25.557c-10.155-4.178-20.301-8.391-30.574-12.261c-3.081-1.16-6.558-1.46-9.888-1.729
			c-6.87-0.555-13.79-0.558-20.638-1.283c-7.091-0.75-11.273,3.174-15.374,8.012c-2.697,3.182-6.003,5.847-9.034,8.746
			c-1.478,1.414-3.077,2.724-4.402,4.269c-5.32,6.202-12.223,8.88-20.178,9.34c-3.351,0.194-6.699,0.427-10.05,0.611
			c-6.165,0.338-12.168-0.34-18.288-1.506c-12.644-2.41-24.036-7.565-35.1-13.809c-12.994-7.334-25.533-15.343-37.302-24.535
			c-0.392-0.306-0.914-0.447-2.078-0.038c7.074,8.657,13.946,17.49,21.281,25.92c7.285,8.373,15.036,16.342,22.917,24.848
			c-6.427,9.605-12.429,18.641-22.142,24.151c-9.944-12.524-18.532-25.073-28.883-36.304c-8.812-9.561-16.899-19.791-25.3-29.731
			c-5.045-5.97-9.977-12.04-15.164-17.883c-1.949-2.195-4.562-3.786-6.723-5.81c-5.298-4.961-10.425-10.107-15.776-15.008
			c-7.146-6.546-14.348-13.036-21.692-19.357c-8.287-7.132-16.703-14.12-25.174-21.034c-4.385-3.579-9.069-6.788-13.514-10.296
			c-8.15-6.431-15.998-13.271-24.398-19.353c-7.057-5.11-14.695-9.421-22.117-14.02c-11.366-7.043-22.593-14.338-34.215-20.933
			c-7.878-4.471-16.042-8.83-24.61-11.589c-9.284-2.99-18.962-5.126-28.985-5.017c-11.351,0.123-22.708-0.446-34.064-0.515
			c-2.943-0.018-5.918,0.569-8.828,1.137c-2.165,0.423-4.056,0.565-5.644-1.828c4.842-10.103,10.301-19.964,18.946-27.608
			c1.396-1.234,3.645-1.94,5.559-2.08c9.828-0.722,19.695-0.953,29.511-1.79c11.53-0.983,23.03-1.258,34.383,1.08
			c3.098,0.638,5.625-0.093,8.062-1.157c8.259-3.606,15.965-8.024,20.899-16.073c2.135-3.482,5.051-6.532,6.871-10.151
			c3.553-7.067,2.876-14.43,0.439-21.766c-3.314-9.975-8.077-19.047-14.553-27.449c-7.195-9.334-15.266-17.8-23.647-25.961
			c-4.72-4.596-10.438-8.166-16.125-12.519c-0.16-0.823-0.72-2.274-0.636-3.688c0.079-1.336,0.478-2.972,1.352-3.89
			c4.852-5.098,9.992-9.924,14.834-15.032c3.366-3.55,4.885-3.635,9.137-0.444c7.739,5.809,15.866,11.126,23.367,17.219
			c9.366,7.609,19.87,13.844,28.113,22.803c6.163,6.699,12.002,13.696,18.181,20.38c5.125,5.544,10.535,10.824,16.284,16.696
			c1.47-5.218,2.915-9.378,3.785-13.654c1.426-7.011,5.205-12.765,9.714-17.918c7.725-8.826,16.363-16.875,23.801-25.922
			c5.903-7.18,13.613-12.037,20.313-18.154c1.337-1.221,3.354-1.698,5.057-2.519C1098.427,6.571,1098.681,6.881,1098.935,7.191z"/>
		<path style="fill:none;stroke:#000000;stroke-miterlimit:10;" d="M1531.908,186.791c28.907,14.75,57.668,29.425,86.742,44.261
			c-0.668-2.897-1.254-5.385-1.813-7.88c-0.644-2.876-1.219-5.767-1.908-8.632c-0.609-2.533-1.515-5.01-1.921-7.57
			c-0.177-1.114,0.229-2.666,0.957-3.518c3.621-4.238,7.286-8.461,11.237-12.385c2.674-2.656,5.847-4.809,8.723-7.128
			c1.018,0.89,1.62,1.17,1.817,1.625c2.424,5.607,4.537,11.302,7.621,16.669c3.876,6.746,6.361,14.298,10.305,20.997
			c6.198,10.529,13.113,20.637,19.734,30.938c12.242,0.596,23.956-1.55,36.095-4.308c-2.872-6.121-4.431-11.905-8.451-16.821
			c-5.029,1.281-9.84,2.44-14.608,3.754c-1.948,0.537-4.065,0.85-4.895-1.126c-0.489-1.163,0.181-3.246,1.009-4.448
			c2.31-3.352,4.786-6.635,7.544-9.624c3.849-4.17,3.293-8.344,0.663-12.692c-4.128-6.824-8.297-13.623-12.491-20.406
			c-1.406-2.275-2.944-4.468-4.559-6.907c-5.749,5.083-6.129,12.045-9.202,18.428c-1.448-0.876-2.656-1.511-3.76-2.294
			c-3.493-2.475-6.877-5.11-10.431-7.491c-6.01-4.026-12.128-7.891-18.183-11.851c-4.353-2.847-8.483-6.106-13.056-8.534
			c-9.469-5.028-17.459-11.984-25.549-18.808c-5.935-5.007-11.56-10.381-17.234-15.511
			C1561.32,152.824,1546.675,169.737,1531.908,186.791z"/>
		<path style="fill:none;stroke:#000000;stroke-miterlimit:10;" d="M1204.922,269.387c-0.919,0.652-1.888,1.181-2.664,1.915
			c-5.99,5.663-11.111,12.015-15.009,19.305c-0.943,1.764-2.107,3.239-4.294,2.854c-2.385-0.42-2.646-2.567-2.572-4.371
			c0.276-6.644-1.502-12.919-3.066-19.25c-4.135-16.731-10.427-32.532-19.038-47.528c-6.893-12.003-23.441-18.804-37.553-17.024
			c-3.455,0.436-4.427,1.604-3.569,4.831c1.673,6.289,3.514,12.542,5.565,18.717c0.922,2.774,2.235,5.512,3.856,7.942
			c5.341,8.009,10.861,15.9,16.401,23.775c2.669,3.793,5.289,7.667,8.373,11.109c4.211,4.701,8.735,9.141,13.325,13.48
			c4.727,4.469,9.254,9.356,14.639,12.885c17.252,11.306,34.85,22.085,52.344,33.021c2.814,1.759,5.68,3.493,8.69,4.869
			c4.939,2.258,10.017,4.213,15.037,6.296c-0.318-2.093-1.083-3.355-2.04-4.448c-7.977-9.108-16.066-18.12-23.973-27.288
			c-10.14-11.757-18.836-24.408-23.472-39.46C1205.745,270.498,1205.336,270.059,1204.922,269.387z"/>
		<path style="fill:none;stroke:#000000;stroke-miterlimit:10;" d="M960.549,160.88c2.618,0.855,3.97,1.372,5.362,1.739
			c14.087,3.71,27.643,8.917,40.506,15.662c7.714,4.045,14.88,9.158,22.186,13.952c5.769,3.785,11.376,7.815,17.757,12.221
			c-1.196-8.72-2.279-16.41-3.269-24.111c-0.107-0.835,0.067-1.929,0.55-2.577c1.881-2.524,3.977-4.886,5.922-7.364
			c3.969-5.058,7.891-10.151,11.733-15.102c-18.383-15.222-36.55-30.266-54.953-45.505c-1.137,1.379-2.593,2.823-3.673,4.509
			c-7.473,11.662-16.522,21.888-26.971,31.002C970.57,149.777,966.152,155.065,960.549,160.88z"/>
		<path style="fill:none;stroke:#000000;stroke-miterlimit:10;" d="M1395.346,57.47c-0.608,5.665-0.348,6.614,2.295,10.881
			c5.621,9.074,12.51,17.042,20.213,24.432c11.018,10.57,21.497,21.793,34.677,29.752c9.374,5.661,19.165,10.655,29.798,13.636
			c3.765,1.055,7.634,1.801,11.498,2.416c1.689,0.269,3.486-0.144,6.027-0.294c-0.884-2.477-1.298-4.236-2.1-5.795
			c-6.848-13.305-16.893-24.119-27.888-33.916c-9.43-8.403-19.719-15.845-29.659-23.673c-9.404-7.407-19.674-13.36-30.669-18.077
			C1404.802,54.799,1400.156,54.663,1395.346,57.47z"/>
		<path style="fill:none;stroke:#000000;stroke-miterlimit:10;" d="M1357.029,316.798c-0.373-1.691-0.362-3.102-0.967-4.163
			c-5.714-10.03-11.311-20.137-17.374-29.954c-8.521-13.799-18.024-27.023-25.99-41.124c-10.254-18.152-19.398-36.931-29.049-55.425
			c-0.349-0.668-1.004-1.177-1.516-1.76c-0.112,5.301,0.332,10.319,1.548,15.143c1.907,7.569,4.348,15.003,6.539,22.501
			c2.291,7.838,4.289,15.775,6.911,23.5c2.33,6.863,5.393,13.475,8.027,20.238c1.552,3.985,2.099,8.622,4.49,11.971
			c6.837,9.574,8.554,20.358,9.21,31.6c0.147,2.53,0.695,5.037,1.047,7.474C1332.333,316.798,1344.357,316.798,1357.029,316.798z"/>
		<path style="fill:none;stroke:#000000;stroke-miterlimit:10;" d="M1427.656,180.102c0,1.624-0.029,2.33,0.005,3.033
			c0.29,6.098,1.15,12.232,0.759,18.285c-0.587,9.067-2.419,17.951-6.065,26.433c-1.667,3.879-2.504,8.148-3.399,12.308
			c-0.358,1.666-0.276,3.677,0.333,5.25c1.396,3.605,3.21,7.052,4.93,10.526c0.306,0.618,0.889,1.306,1.503,1.532
			c4.475,1.648,8.903,3.544,13.514,4.673c6.497,1.59,13.133,2.618,19.723,3.814c1.559,0.283,3.17,0.28,5.025,0.429
			c-0.168-1.423-0.284-2.326-0.381-3.23c-0.924-8.606-4.417-16.525-6.562-24.8c-3.337-12.876-7.796-25.205-15.257-36.305
			c-1.254-1.866-1.263-3.276,0.712-4.732c1.88-1.386,3.504-3.12,5.855-5.26C1440.963,188.306,1435.093,183.592,1427.656,180.102z"/>
		<path style="fill:none;stroke:#000000;stroke-miterlimit:10;" d="M1489.378,217.024c1.77,6.233,3.427,10.953,4.423,15.809
			c1.899,9.263,3.254,18.637,5.174,27.895c0.853,4.113,2.249,8.175,3.907,12.042c1.708,3.985,1.81,5.493-1.149,9.051
			c-1.19,1.432-2.667,2.653-3.702,4.18c-2.018,2.978-5.485,5.141-5.583,9.46c6.18,4.378,12.779,7.678,19.645,9.77
			c-0.23-5.775-0.428-10.947-0.643-16.118c-0.558-13.387,3.161-25.495,11.992-35.542c5.629-6.404,12.235-11.946,18.37-17.909
			c0.864-0.84,1.535-1.878,2.646-3.261c-5.314-2.16-10.09-4.102-14.712-5.981c-4.164,4.888-4.783,4.959-9.854,1.844
			c-0.935-0.574-2.037-0.886-3.074-1.285c-5.385-2.071-10.755-4.181-16.169-6.176
			C1497.375,219.596,1494.033,218.576,1489.378,217.024z"/>
		<path style="fill:none;stroke:#000000;stroke-miterlimit:10;" d="M1778.07,127.435c-4.809,16.225-14.669,28.846-21.88,43.928
			c6.043,7.263,11.903,15.476,19.556,22.675c10.209-4.051,18.959-10.369,26.727-17.745c4.712-4.474,4.87-8.581,1.614-13.491
			c-7.082-10.68-14.588-21.08-22-31.538C1781.169,129.97,1779.762,129.023,1778.07,127.435z"/>
		<path style="fill:none;stroke:#000000;stroke-miterlimit:10;" d="M1228.259,226.492c-0.266,0.902-0.406,1.107-0.355,1.241
			c1.766,4.69,3.584,9.36,5.325,14.059c8.853,23.898,21.757,45.547,36.879,65.918c4.847,6.53,11.006,11.842,17.605,17.023
			c1.365-9.581-2.639-26.107-7.225-34.788c-5.453-10.322-10.101-21.056-16.881-30.714
			C1254.176,245.798,1243.135,234.34,1228.259,226.492z"/>
		<path style="fill:none;stroke:#000000;stroke-miterlimit:10;" d="M1367.3,317.743c17.572,1.702,34.857,2.781,51.893,7.352
			c-3.718-9.417-7.234-18.365-10.805-27.291c-0.317-0.792-0.841-1.732-1.536-2.105c-5.078-2.725-10.41-4.8-16.168-5.549
			c-2.335-0.304-4.107,0.341-5.669,2.481c-2.601,3.566-5.761,6.72-8.581,10.133C1372.8,307.165,1368.841,311.386,1367.3,317.743z"/>
		<path style="fill:none;stroke:#000000;stroke-miterlimit:10;" d="M1115.107,198.37c3.858-3.893,6.978-7.868,10.886-10.79
			c5.584-4.176,11.399-8.391,18.838-8.702c3.538-0.148,7.086-0.038,10.63-0.042c5.534-0.005,10.094,2.257,13.909,6.116
			c3.001,3.037,5.865,6.21,8.873,9.24c1.412,1.422,2.911,3.271,5.254,1.924c2.656-1.526,5.163-3.31,8.106-5.224
			c-1.244-0.851-1.933-1.505-2.752-1.856c-12.633-5.412-25.188-11.025-37.964-16.079c-8.033-3.177-16.57-4.115-25.243-3.259
			c-6.242,0.616-10.588,4.66-11.749,10.782C1112.752,186.511,1114.243,192.289,1115.107,198.37z"/>
		<path style="fill:none;stroke:#000000;stroke-miterlimit:10;" d="M1250.012,183.35c-0.161-11.568-13.596-56.359-18.617-61.984
			c-1.039,1.891-2.081,3.623-2.968,5.43c-3.864,7.874-1.821,15.748,0.636,23.347c1.88,5.814,4.577,11.415,7.389,16.863
			C1239.689,173.273,1244.155,178.659,1250.012,183.35z"/>
		<path style="fill:none;stroke:#000000;stroke-miterlimit:10;" d="M1733.111,201.695c-7.102-9.635-14.867-18.381-22.961-26.929
			c2.773,7.121,6.025,13.906,9.355,20.651c1.207,2.444,2.05,5.898,4.054,6.9c2.348,1.174,5.782,0.182,8.745,0.109
			C1732.428,202.422,1732.548,202.215,1733.111,201.695z"/>
		<path style="fill:none;stroke:#000000;stroke-miterlimit:10;" d="M1760.229,237.945c-2.81-2.531-3.873-5.368-6.788-5.912
			c-4.701-0.877-9.471-1.416-14.231-1.915c-1.112-0.117-2.301,0.497-4.243,0.964c1.863,2.674,3.501,4.638,4.699,6.843
			c1.521,2.799,3.79,3.256,6.544,2.742C1750.378,239.887,1754.536,239.053,1760.229,237.945z"/>
		<path style="fill:none;stroke:#000000;stroke-miterlimit:10;" d="M1385.222,161.1c0.631,6.769,4.369,12.286,7.371,18.04
			c2.98,5.712,2.608,12.835,7.994,18.63C1400.981,182.438,1395.042,170.947,1385.222,161.1z"/>
		<path style="fill:none;stroke:#000000;stroke-miterlimit:10;" d="M1378.464,234.363c-2.029,9.988,0.596,17.841,9.804,16.025
			C1385.113,245.232,1382.051,240.227,1378.464,234.363z"/>
		<path style="fill:none;stroke:#000000;stroke-miterlimit:10;" d="M1275.102,344.306c5.033-1.51,10.016-6.259,11.362-11.016
			C1281.2,335.779,1276.957,338.487,1275.102,344.306z"/>
		<path style="fill:none;stroke:#000000;stroke-miterlimit:10;" d="M444.151,133.429c-0.183,0.04-0.364,0.108-0.548,0.115
			c-2.393,0.087-5.243,0.634-6.56-1.795c-1.596-2.945,1.924-3.933,3.055-5.872c2.899-4.971,6.04-9.846,8.44-15.055
			c5.702-12.379,10.858-25.083,11.208-38.912c0.269-10.615-1.006-21.124-6.318-30.779c-2.937-5.339-5.224-11.014-9.767-15.355
			c-0.727-0.695-0.53-2.358-0.745-3.493c9.073-4.199,14.089-12.334,21.22-18.797c1.407,0.218,3.173,0.491,5.321,0.824
			c1.505,7.217,6.224,12.399,10.51,18.015c8.224,10.777,15.728,22.102,23.651,33.112c2.71,3.767,5.651,7.389,8.711,10.88
			c9.466,10.8,17.911,22.313,25.099,34.759c1.632,2.826,3.759,5.367,5.872,8.34c-3.638,2.496-4.545,5.685-5.359,9.218
			c-1.449,6.286-5.15,11.602-9.315,16.384c-5.106,5.862-10.532,11.469-16.119,16.878c-2.923,2.83-6.447,5.053-9.77,7.452
			c-4.197,3.03-8.467,5.96-13.445,9.452c4.377,2.703,8.114,5.02,11.862,7.319c0.789,0.484,1.808,0.732,2.398,1.382
			c6.627,7.305,15.102,5.63,23.38,4.876c0.916-0.083,1.942-0.872,2.68-0.625c1.852,0.62,4.128,1.218,5.198,2.617
			c1.355,1.771-0.351,3.173-1.985,4.414c-1.875,1.424-3.364,3.355-5.536,5.596c14.801,13.14,31.39,23.708,46.926,37.064
			c-0.122-1.895,0.004-2.82-0.26-3.616c-3.568-10.741-7.21-21.458-10.788-32.196c-1.172-3.518-2.078-7.129-3.35-10.608
			c-1.141-3.12-2.849-6.04-3.905-9.183c-4.02-11.97-9.291-23.569-11.042-36.224c-0.291-2.105-3.413-3.734-1.41-6.049
			c1.285-1.485,3.273-2.39,5.01-3.451c3.809-2.327,7.644-4.614,11.499-6.863c1.883-1.099,3.797-1.716,3.526-4.811
			c-0.191-2.185,2.477-2.864,3.966-1.087c0.903,1.077,2.01,2.716,1.79,3.866c-0.691,3.615,1.263,6.141,3.059,8.616
			c7.443,10.255,15.454,20.088,26.283,26.953c5.447,3.453,11.499,5.973,17.364,8.729c1.044,0.491,2.516,0.07,4.515,0.07
			c-1.854-4.055-3.047-8.045-5.291-11.312c-6.644-9.672-13.594-19.144-23.065-26.393c-4.259-3.26-4.153-3.801-0.039-7.421
			c1.078-0.949,1.859-2.267,2.664-3.489c3.142-4.773,6.13-9.652,9.389-14.343c2.429-3.495,3.689-3.762,7.552-1.899
			c4.154,2.004,8.202,4.226,13.133,6.789c-1.573-2.463-2.802-4.324-3.968-6.224c-3.474-5.659-7.138-11.215-10.334-17.028
			c-4.795-8.72-8.642-17.785-7.289-28.136c0.14-1.07,0.152-2.358,0.755-3.132c2.621-3.368,5.437-6.584,8.186-9.852
			c1.199-1.425,2.635-2.708,3.57-4.288c3.852-6.513,9.473-11.374,15.278-15.908c2.503-1.955,6.01-3.369,9.167-3.606
			c9.514-0.714,18.958-0.112,28.056,3.459c6.211,2.438,12.931,3.73,18.894,6.625c14.877,7.222,29.588,14.803,39.841,28.642
			c2.956,3.99,6.976,7.175,10.199,10.99c2.121,2.511,3.784,5.431,5.487,8.268c3.995,6.658,8.657,12.88,11.153,20.459
			c1.718,5.216,4.552,10.112,7.268,14.937c2.83,5.027,1.47,9.913-0.515,14.398c-5.414,12.237-15.097,20.542-26.602,26.839
			c-3.923,2.147-8.338,2.64-14.011,2.35c5.565,3.574,10.021,6.803,14.807,9.432c10.009,5.499,19.066,12.275,27.827,19.53
			c2.849,2.359,5.963,4.419,9.073,6.436c3.902,2.53,4.224,5.172,0.76,8.367c-1.776,1.638-3.762,3.068-5.411,4.819
			c-4.202,4.462-8.458,8.898-12.333,13.638c-3.417,4.179-4.651,4.608-9.055,1.812c-1.716-1.089-3.563-2.001-5.424-2.828
			c-5.756-2.557-11.548-5.035-18.229-7.935c0.294,2.123,0.308,3.869,0.795,5.47c3.3,10.833,6.751,21.621,10.022,32.463
			c0.582,1.929,0.553,4.043,0.804,6.072c0.159,1.287,0.073,2.665,0.514,3.846c1.685,4.511,1.726,5.416-1.339,8.045
			c-5.421,4.651-9.753,10.157-13.688,16.591c4.014,7.047,12.949,6.402,18.388,12.032c2.227-9.885,4.083-19.126,6.472-28.227
			c0.928-3.536,3.129-6.726,4.625-10.128c4.392-9.99,10.252-18.944,18.484-26.201c2.076-1.83,4.361-3.439,6.637-5.024
			c4.573-3.184,9.187-6.31,13.831-9.389c0.878-0.582,1.974-0.836,3.531-1.47c-0.307,4.567-3.738,6.144-6.145,8.316
			c-2.201,1.985-4.735,3.62-7.21,5.278c-6.518,4.366-9.736,10.664-10.376,18.254c-1.168,13.857-1.075,27.562,5.748,40.337
			c2.098,3.928,3.764,8.089,5.565,12.171c4.984,11.297,13.535,20.032,21.334,29.241c8.763,10.348,18.034,20.269,27.216,30.255
			c2.127,2.313,4.815,4.104,7.192,6.194c3.709,3.262,3.113,5.641-1.355,7.591c-8.285,3.616-15.506,8.765-21.209,15.894
			c-0.891,1.114-1.948,2.095-3.253,3.484c-2.92-2.584-5.39-5.107-8.188-7.187c-9.986-7.421-20.105-14.664-30.134-22.029
			c-8.556-6.283-17.04-12.664-25.587-18.96c-10.349-7.624-20.828-15.034-32.797-20.022c-14.067-5.862-28.116-11.767-42.15-17.708
			c-3.156-1.336-6.215-2.9-9.319-4.359c-0.296,0.304-0.592,0.607-0.888,0.911c1.574,3.251,3.084,6.534,4.734,9.745
			c4.258,8.286,9.216,16.119,14.974,23.466c1.7,2.169,2.845,4.793,4.109,7.277c2.872,5.643,5.81,11.203,13.25,14.334
			c-2.259,1.267-3.49,2.279-4.896,2.693c-6.757,1.986-12.387,5.759-17.509,10.466c-2.37,2.178-4.497,4.304-4.672,7.875
			c-0.064,1.292-1.331,2.526-2.143,3.95c-3.05-1.511-4.561-3.802-6.322-6.202c-4.268-5.817-8.958-11.358-13.824-16.694
			c-6.894-7.559-14.13-14.805-21.161-22.241c-4.352-4.603-8.69-9.227-12.86-13.995c-4.285-4.9-8.203-10.125-12.556-14.961
			c-10.587-11.76-20.663-23.999-32.515-34.583c-7.778-6.946-15.165-14.342-23.103-21.094
			c-12.306-10.467-24.877-20.628-37.469-30.752c-2.726-2.192-6.055-3.62-9.037-5.51c-4.237-2.686-8.21-0.551-13.109,0.483
			c0.853,2.571,1.489,4.921,2.402,7.158c2.157,5.285,2.512,11.247,6.165,15.982c1.501,1.945,2.772,3.925,5.496,4.364
			c2.69,0.433,3.697,1.735,2.774,4.744c-0.519,1.693-0.1,4.075,0.738,5.718c5.235,10.26,10.84,20.332,16.061,30.6
			c4.304,8.466,8.169,17.154,12.373,25.672c3.534,7.16,7.332,14.188,10.909,21.327c3.323,6.631,6.436,13.368,9.772,19.992
			c3.676,7.3,7.237,14.686,13.203,20.536c2.05,2.01,2.227,8.564-0.125,10.848c-4.759,4.621-8.266,10.56-14.396,13.778
			c-0.891,0.468-1.785,1.546-2.026,2.506c-0.508,2.02-1.156,3.409-3.59,3.457c-2.493,0.05-4.377-0.856-5.658-2.896
			c-4.341-6.913-8.371-14.038-13-20.75c-4.541-6.585-9.446-12.951-14.586-19.083c-11.593-13.834-23.419-27.474-35.173-41.173
			c-5.06-5.897-10.136-11.782-15.279-17.607c-9.22-10.444-18.926-20.389-29.798-29.16c-6.46-5.212-12.747-10.637-19.111-15.967
			c-0.318,0.274-0.636,0.548-0.955,0.822c1.382,2.416,2.593,4.951,4.176,7.227c6.206,8.922,10.54,18.741,14.18,28.911
			c2.624,7.333,5.318,14.642,7.848,22.007c0.713,2.076,1.096,4.294,1.394,6.479c1.747,12.835,3.799,25.644,5.007,38.531
			c0.972,10.367,1.157,20.832,1.186,31.255c0.018,6.472-0.906,12.947-2.23,19.031c-1.668,1.752-3.485,3.386-4.979,5.275
			c-7.256,9.179-14.397,18.448-21.637,27.64c-4.358,5.532-8.602,11.177-13.295,16.416c-5.867,6.551-11.526,13.392-19.91,17.809
			c0.65-1.56,1.034-3.309,1.991-4.649c7.091-9.925,12.268-20.778,16.239-32.275c1.635-4.736,3.724-9.313,5.526-13.993
			c6.526-16.948,10.38-34.458,10.298-52.665c-0.023-5.156-0.852-10.359-1.808-15.448c-1.844-9.823-3.47-19.746-6.261-29.314
			c-2.582-8.852-6.934-17.174-9.841-25.95c-3.337-10.075-10.217-17.965-15.575-26.767c-4.267-7.01-9.643-13.344-14.341-19.725
			c-11.319,0.362-22.119,0.079-32.07,6.034c5.099,13.112,6.726,26.946,13.269,39.934c-2.656,2.721-5.661,5.942-8.821,9.003
			c-4.557,4.415-9.084,8.793-12.068,14.553c-0.796,1.536-2.495,2.751-4.04,3.678c-0.581,0.349-1.902-0.536-2.882-0.862
			c-0.081-1.808,0.206-3.73-0.32-5.396c-1.667-5.283-3.491-10.527-5.518-15.682c-4.676-11.888-9.443-23.736-16.569-34.466
			c-1.519-2.287-2.629-3.995-6.016-3.308c-4.406,0.894-8.989,0.918-13.786,1.342c0.484,1.125,0.617,1.655,0.907,2.078
			c8.155,11.889,16.064,23.961,24.593,35.576c5.106,6.954,11.186,13.192,16.829,19.752c3.23,4.401,6.361,8.88,9.718,13.182
			c3.765,4.825,7.735,9.489,11.615,14.223c4.683,5.714,9.39,11.408,14.044,17.146c4.313,5.318,8.569,10.682,13.174,16.43
			c-0.778,0.491-1.332,1.128-1.709,1.036c-4.278-1.045-5.686,2.291-7.753,4.81c-1.993,2.43-4.513,4.455-6.328,6.996
			c-2.132,2.985-3.663,6.393-5.645,9.496c-0.702,1.099-1.857,2.334-3.006,2.584c-0.848,0.185-2.483-0.881-2.979-1.81
			c-4.246-7.948-10.644-14.208-16.239-21.096c-5.499-6.771-10.827-13.685-16.47-20.332c-5.026-5.92-10.453-11.497-15.57-17.342
			c-4.514-5.156-8.817-10.495-13.262-15.712c-5.773-6.777-11.585-13.522-17.397-20.266c-7.51-8.714-14.877-17.558-22.61-26.069
			c-5.118-5.633-10.662-10.895-16.211-16.115c-7.293-6.861-14.489-13.873-22.257-20.166c-8.51-6.894-17.571-13.119-26.498-19.487
			c-4.668-3.33-9.458-6.519-14.384-9.45c-5.486-3.265-11.261-6.041-16.782-9.251c-8.012-4.658-15.799-9.711-23.888-14.224
			c-6.631-3.7-13.517-6.958-20.38-10.222c-5.041-2.397-10.148-4.701-15.372-6.653c-5.549-2.074-11.217-3.899-16.949-5.383
			c-2.001-0.518-4.384,0.116-6.53,0.542c-8.568,1.703-17.043,4.059-25.682,5.183c-11.548,1.503-23.07,0.293-34.339-2.768
			c-1.012-0.275-1.9-1.003-2.972-1.589c0.449-1.611,0.839-3.011,1.295-4.65c4.722-0.769,8.546-3.231,11.95-6.582
			c3.438-3.384,7.104-6.536,10.664-9.797c4.057-3.716,7.213-8.06,8.566-13.446c0.687-2.735,2.092-3.148,4.503-2.395
			c9.121,2.853,18.656,3.229,28.038,4.367c17.521,2.125,34.909,1.708,51.721-4.611c2.95-1.109,5.9-2.22,8.831-3.376
			c0.68-0.268,1.686-0.592,1.861-1.117c1.459-4.372,5.546-4.89,8.98-6.426c0.974-0.436,2.039-1.136,2.572-2.013
			c4.151-6.823,6.865-13.654,4.059-22.097c-6.408-19.281-15.485-36.904-29.611-51.679c-4.875-5.099-9.899-10.061-14.962-14.975
			c-4.542-4.408-9.792-7.815-15.723-10.389c-0.392-1.845-0.601-3.391,1.867-4.346c5.464-2.114,8.079-7.491,12.042-11.307
			c4.516-4.349,8.194-9.569,12.142-14.297c4.879-0.083,7.036,3.612,9.843,6.07c8.522,7.463,16.892,15.098,25.301,22.689
			c1.79,1.616,3.484,3.337,5.236,4.996c7.562,7.159,15.15,14.291,22.69,21.473c8.476,8.074,16.971,16.13,25.315,24.338
			c1.748,1.719,2.878,4.067,5.016,7.176c0.711-3.532,1.279-5.757,1.592-8.017c1.326-9.597,4.715-18.27,10.958-25.795
			c2.475-2.983,4.609-6.245,6.96-9.334c0.55-0.722,1.329-1.278,2.037-1.87c6.108-5.116,12.303-10.131,18.317-15.355
			c9.388-8.154,18.634-16.472,27.992-24.661c1.89-1.654,4.009-3.047,6.023-4.56c0.379,0.288,0.758,0.576,1.138,0.864
			c-0.515,1.164-0.773,2.566-1.591,3.45c-2.913,3.15-5.754,6.455-9.096,9.104c-11.246,8.913-19.584,20.278-27.648,31.908
			c-0.185,0.266-0.107,0.715-0.123,0.845c5.873,6.02,11.664,11.909,17.401,17.852c4.497,4.659,8.985,9.33,13.367,14.097
			c3.249,3.535,5.986,7.609,9.55,10.767c4.837,4.285,8.76,9.42,13.859,13.52c4.217,3.391,7.086,8.455,10.571,12.763
			c5.931,7.333,11.876,14.655,18.157,22.403c5.043-5.022,9.536-9.755,12.146-16.012c1.129-2.706,2.573-5.285,3.639-8.013
			c4.953-12.681,5.075-25.71,2.995-38.985c-1.807-11.533-5.228-22.383-11.32-32.417c-1.141-1.88-4.464-3.319-2.884-6.002
			c0.986-1.675,3.534-2.358,5.16-3.745c3.258-2.778,6.369-5.728,9.531-8.617c2.191-2.002,4.368-4.02,7.101-6.537
			c1.398,1.864,2.805,3.272,3.661,4.959c4.458,8.788,9.758,17.008,15.869,24.74c1.945,2.461,3.265,5.409,5.139,7.936
			c4.762,6.42,9.689,12.718,14.524,19.085c2.122,2.795,4.035,5.76,6.295,8.436c6.393,7.571,11.395,16.035,16.376,24.546
			c1.961,3.352,4.782,6.193,6.842,9.497c3.728,5.98,7.208,12.116,10.725,18.224c0.881,1.531,0.998,2.922-0.496,4.506
			c-4.146,4.396-7.872,9.194-12.103,13.501c-3.219,3.277-6.914,6.098-10.475,9.027c-4.315,3.549-8.563,7.207-13.109,10.44
			c-6.652,4.731-13.548,9.116-20.325,13.672c-1.179,0.793-2.281,1.701-3.824,2.859c5.118,2.358,9.768,4.237,14.166,6.588
			c6.515,3.482,13.096,6.936,19.206,11.058c8.628,5.82,17.509,11.535,25.062,18.599c7.488,7.003,15.814,5.553,25.174,5.961
			c-4.637-13.483-9.024-26.237-13.34-38.786c-3.706-1.829-7.261-2.02-11.075-1.85c-7.786,0.348-15.624,0.525-23.386-0.014
			c-4.27-0.296-8.094,0.602-11.981,1.733c-2.323,0.676-4.343,1.081-6.101-1.755c1.058-1.067,2.257-2.127,3.279-3.335
			c3.459-4.087,7.018-8.105,10.219-12.389c2.276-3.046,5.257-5.64,5.984-9.809c0.378-2.166,2.613-2.836,4.887-2.854
			c5.693-0.043,11.384-0.223,17.318-0.353c-1.151-3.573-3.142-6.574-2.589-8.996c0.486-2.133,3.8-3.636,5.891-5.386
			c3.685-3.085,7.509-6.018,11.023-9.284c1.274-1.184,1.829-3.143,2.715-4.747c1.824,0.001,3.644,0.001,5.623,0.001
			c1.058,8.428,5.176,15.011,9.383,21.574c1.018,1.589,2.164,2.605,4.082,2.095c4.84-1.289,9.927-2.067,14.43-4.116
			c9.085-4.135,18.078-8.658,25.745-15.19c4.329-3.688,8.683-7.522,11.392-12.978c-11.844-14.026-22.242-29.05-35.779-42.086
			c-1.433,3.416-2.348,6.434-3.887,9.091c-3.061,5.286-6.338,10.459-9.767,15.515c-2.902,4.28-5.939,8.505-9.294,12.432
			c-3.135,3.67-6.83,6.855-10.133,10.39C444.932,130.853,444.671,132.261,444.151,133.429z"/>
		<path style="fill:none;stroke:#000000;stroke-miterlimit:10;" d="M206.214,211.938c0.201-0.326,0.402-0.652,0.603-0.978
			c-2.129-6.709-4.1-13.475-6.468-20.098c-0.872-2.441-0.15-3.532,1.535-5.186c6.494-6.374,12.773-12.969,19.041-19.569
			c1.466-1.544,2.841-3.363,5.115-2.274c2.149,1.03,3.44,3.034,2.541,5.557c-1.046,2.933-0.076,5.421,1.054,8.046
			c4.316,10.029,8.341,20.187,12.842,30.13c2.898,6.404,6.7,12.397,9.627,18.79c4.329,9.455,9.937,18.058,16.055,26.613
			c7.425-2.205,15.227-1.563,22.536-4.897c-10.767-24.824-22.3-48.884-34.801-73.029c-2.894,2.088-5.13,1.408-7.193-0.772
			c-0.735-0.777-1.904-1.129-2.833-1.739c-9.595-6.295-19.452-12.235-28.691-19.015c-8.798-6.457-17.011-13.722-25.363-20.772
			c-5.239-4.423-10.301-9.06-15.366-13.685c-3.474-3.172-6.817-6.489-10.757-10.257c-7.319,8.673-14.124,16.706-20.892,24.77
			c-5.731,6.829-11.583,13.566-17.044,20.606c-2.303,2.969-4.906,6.041-5.396,10.278
			C150.445,180.361,178.33,196.149,206.214,211.938z"/>
		<path style="fill:none;stroke:#000000;stroke-miterlimit:10;" d="M629.191,50.041c0.681,2.02,1,3.93,1.92,5.484
			c1.692,2.858,3.761,5.49,5.633,8.244c8.506,12.515,18.506,23.799,30.229,33.255c10.658,8.597,22.102,16.053,34.999,21.402
			c7.681,3.186,15.481,5.178,23.451,6.89c2,0.43,5.53,0.326,6.117-0.752c0.95-1.744,0.617-4.725-0.199-6.777
			c-1.499-3.77-3.281-7.608-5.774-10.764c-5.299-6.709-10.777-13.356-16.844-19.357c-5.662-5.601-11.837-10.839-18.408-15.327
			c-9.036-6.171-18.513-11.743-28.08-17.072c-5.957-3.318-12.345-5.919-18.692-8.459C638.468,44.776,633.711,45.867,629.191,50.041z
			"/>
		<path style="fill:none;stroke:#000000;stroke-miterlimit:10;" d="M678.487,178.926c-3.405-5.887-9.009-8.419-15.27-11.091
			c-0.142,2.403-0.283,4.038-0.328,5.675c-0.113,4.092,0.146,8.224-0.339,12.268c-0.951,7.927-2.265,15.812-3.538,23.696
			c-0.223,1.38-0.628,3.028-1.551,3.948c-6.285,6.264-12.414,12.616-20.158,17.347c-3.549,2.168-6.493,2.609-10.563,2.017
			c0.191-3.243,0.036-6.244,0.596-9.105c2.007-10.261,0.341-20.412-0.611-30.585c-0.172-1.841-1.204-3.189-3.429-2.51
			c-5.818,1.777-11.629,3.577-18.174,5.593c2.805,6.894,5.303,13.651,8.29,20.185c2.472,5.408,5.916,10.389,8.192,15.865
			c1.988,4.783,4.129,8.296,9.973,8.766c3.409,0.274,6.631,2.369,10.056,3.066c8.543,1.739,17.207,2.899,25.721,4.755
			c9.763,2.127,19.416,4.754,29.559,7.273c-0.37-2.804-0.347-5.653-1.155-8.244c-4.029-12.915-7.868-25.916-12.621-38.569
			c-2.375-6.322-4.803-12.977-10.09-17.822c-1.488-1.364-1.498-2.825-0.298-4.447C674.607,184.497,676.373,181.915,678.487,178.926z
			"/>
		<path style="fill:none;stroke:#000000;stroke-miterlimit:10;" d="M352.559,170.888c16.262-3.593,29.419-12.125,41.33-23.114
			c-9.807-15.568-18.737-31.125-29.8-45.95c-6.638,19.361-18.479,33.874-33.62,45.96
			C337.66,155.305,344.946,162.925,352.559,170.888z"/>
		<path style="fill:none;stroke:#000000;stroke-miterlimit:10;" d="M311.703,206.416c1.472,3.163,2.655,5.63,3.775,8.124
			c3.179,7.082,6.309,14.186,9.508,21.259c0.939,2.076,2.068,4.207,4.895,3.611c6.65-1.402,13.272-2.939,19.883-4.415
			c-0.038-0.566,0.072-1.026-0.108-1.28c-5.01-7.081-10.035-14.151-15.106-21.189c-0.522-0.724-1.247-1.505-2.046-1.793
			C326.086,208.42,319.656,206.084,311.703,206.416z"/>
		<path style="fill:none;stroke:#000000;stroke-miterlimit:10;" d="M293.353,166.204c-0.282,0.181-0.565,0.363-0.847,0.544
			c2.128,4.913,4.256,9.825,6.045,13.954c3.683,0.323,6.282,0.551,9.613,0.844C302.887,176.079,298.12,171.142,293.353,166.204z"/>
		<path style="fill:none;stroke:#000000;stroke-miterlimit:10;" d="M1531.908,186.791c14.767-17.055,29.412-33.967,44.387-51.262
			c5.674,5.13,11.299,10.504,17.234,15.511c8.089,6.824,16.08,13.78,25.549,18.808c4.573,2.428,8.703,5.687,13.056,8.534
			c6.055,3.96,12.173,7.825,18.183,11.851c3.554,2.381,6.938,5.016,10.431,7.491c1.104,0.782,2.313,1.418,3.76,2.294
			c3.073-6.384,3.453-13.345,9.202-18.428c1.615,2.439,3.153,4.632,4.559,6.907c4.194,6.783,8.363,13.583,12.491,20.406
			c2.63,4.348,3.186,8.522-0.663,12.692c-2.758,2.989-5.234,6.271-7.544,9.624c-0.828,1.201-1.498,3.284-1.009,4.448
			c0.83,1.976,2.947,1.663,4.895,1.126c4.768-1.314,9.579-2.473,14.608-3.754c4.021,4.916,5.579,10.7,8.451,16.821
			c-12.139,2.758-23.853,4.904-36.095,4.308c-6.621-10.301-13.536-20.409-19.734-30.938c-3.943-6.699-6.429-14.251-10.305-20.997
			c-3.084-5.367-5.197-11.062-7.621-16.669c-0.197-0.455-0.799-0.736-1.817-1.625c-2.876,2.319-6.049,4.472-8.723,7.128
			c-3.951,3.925-7.616,8.147-11.237,12.385c-0.728,0.852-1.134,2.404-0.957,3.518c0.406,2.56,1.312,5.037,1.921,7.57
			c0.688,2.865,1.264,5.756,1.908,8.632c0.559,2.494,1.145,4.983,1.813,7.88C1589.576,216.217,1560.815,201.541,1531.908,186.791z"
			/>
		<path style="fill:none;stroke:#000000;stroke-miterlimit:10;" d="M1204.922,269.387c0.414,0.673,0.822,1.112,0.981,1.628
			c4.635,15.052,13.331,27.703,23.472,39.46c7.907,9.168,15.996,18.18,23.973,27.288c0.958,1.093,1.723,2.355,2.04,4.448
			c-5.019-2.083-10.097-4.038-15.037-6.296c-3.01-1.376-5.876-3.11-8.69-4.869c-17.493-10.936-35.091-21.715-52.344-33.021
			c-5.385-3.529-9.912-8.416-14.639-12.885c-4.59-4.34-9.114-8.779-13.325-13.48c-3.083-3.442-5.704-7.316-8.373-11.109
			c-5.54-7.874-11.06-15.766-16.401-23.775c-1.621-2.431-2.935-5.168-3.856-7.942c-2.051-6.175-3.892-12.428-5.565-18.717
			c-0.858-3.227,0.114-4.395,3.569-4.831c14.113-1.78,30.661,5.021,37.553,17.024c8.611,14.996,14.903,30.797,19.038,47.528
			c1.565,6.331,3.343,12.606,3.066,19.25c-0.075,1.804,0.187,3.951,2.572,4.371c2.187,0.385,3.351-1.089,4.294-2.854
			c3.897-7.289,9.019-13.641,15.009-19.305C1203.035,270.568,1204.004,270.038,1204.922,269.387z"/>
		<path style="fill:none;stroke:#000000;stroke-miterlimit:10;" d="M960.549,160.88c5.604-5.816,10.021-11.103,15.149-15.576
			c10.449-9.114,19.498-19.339,26.971-31.002c1.08-1.686,2.537-3.13,3.673-4.509c18.403,15.239,36.57,30.282,54.953,45.505
			c-3.842,4.951-7.765,10.045-11.733,15.102c-1.945,2.478-4.041,4.84-5.922,7.364c-0.482,0.647-0.657,1.742-0.55,2.577
			c0.99,7.702,2.072,15.392,3.269,24.111c-6.38-4.406-11.988-8.436-17.757-12.221c-7.307-4.794-14.472-9.907-22.186-13.952
			c-12.863-6.745-26.418-11.952-40.506-15.662C964.519,162.253,963.167,161.735,960.549,160.88z"/>
		<path style="fill:none;stroke:#000000;stroke-miterlimit:10;" d="M1395.346,57.47c4.81-2.806,9.456-2.671,14.192-0.639
			c10.995,4.718,21.265,10.671,30.669,18.077c9.939,7.828,20.228,15.271,29.659,23.673c10.995,9.797,21.04,20.611,27.888,33.916
			c0.802,1.559,1.216,3.318,2.1,5.795c-2.541,0.15-4.338,0.563-6.027,0.294c-3.865-0.616-7.733-1.361-11.498-2.416
			c-10.632-2.98-20.423-7.974-29.798-13.636c-13.18-7.96-23.658-19.182-34.677-29.752c-7.703-7.39-14.592-15.359-20.213-24.432
			C1394.998,64.083,1394.739,63.135,1395.346,57.47z"/>
		<path style="fill:none;stroke:#000000;stroke-miterlimit:10;" d="M1357.029,316.798c-12.672,0-24.696,0-37.123,0
			c-0.352-2.437-0.899-4.944-1.047-7.474c-0.656-11.242-2.373-22.026-9.21-31.6c-2.392-3.349-2.938-7.986-4.49-11.971
			c-2.634-6.764-5.698-13.375-8.027-20.238c-2.622-7.725-4.62-15.662-6.911-23.5c-2.192-7.498-4.632-14.932-6.539-22.501
			c-1.216-4.824-1.66-9.842-1.548-15.143c0.512,0.583,1.167,1.091,1.516,1.76c9.651,18.494,18.794,37.273,29.049,55.425
			c7.966,14.101,17.469,27.326,25.99,41.124c6.063,9.818,11.66,19.925,17.374,29.954
			C1356.667,313.697,1356.656,315.107,1357.029,316.798z"/>
		<path style="fill:none;stroke:#000000;stroke-miterlimit:10;" d="M1427.656,180.102c7.437,3.49,13.307,8.204,20.694,11.955
			c-2.351,2.14-3.975,3.874-5.855,5.26c-1.975,1.456-1.966,2.866-0.712,4.732c7.462,11.101,11.92,23.43,15.257,36.305
			c2.145,8.274,5.638,16.194,6.562,24.8c0.097,0.905,0.213,1.808,0.381,3.23c-1.855-0.15-3.466-0.146-5.025-0.429
			c-6.59-1.196-13.226-2.224-19.723-3.814c-4.611-1.129-9.039-3.025-13.514-4.673c-0.614-0.226-1.196-0.914-1.503-1.532
			c-1.72-3.473-3.534-6.921-4.93-10.526c-0.609-1.572-0.692-3.584-0.333-5.25c0.895-4.16,1.732-8.429,3.399-12.308
			c3.646-8.483,5.478-17.366,6.065-26.433c0.392-6.053-0.469-12.187-0.759-18.285
			C1427.627,182.432,1427.656,181.726,1427.656,180.102z"/>
		<path style="fill:none;stroke:#000000;stroke-miterlimit:10;" d="M1489.378,217.024c4.656,1.552,7.998,2.572,11.271,3.779
			c5.413,1.995,10.784,4.105,16.169,6.176c1.038,0.399,2.139,0.71,3.074,1.285c5.071,3.115,5.689,3.045,9.854-1.844
			c4.622,1.879,9.398,3.821,14.712,5.981c-1.112,1.384-1.783,2.422-2.646,3.261c-6.135,5.963-12.741,11.505-18.37,17.909
			c-8.831,10.047-12.55,22.155-11.992,35.542c0.215,5.171,0.413,10.343,0.643,16.118c-6.866-2.092-13.465-5.391-19.645-9.77
			c0.098-4.319,3.565-6.482,5.583-9.46c1.035-1.528,2.512-2.749,3.702-4.18c2.958-3.559,2.857-5.067,1.149-9.051
			c-1.658-3.867-3.054-7.929-3.907-12.042c-1.92-9.258-3.276-18.632-5.174-27.895
			C1492.805,227.977,1491.148,223.256,1489.378,217.024z"/>
		<path style="fill:none;stroke:#000000;stroke-miterlimit:10;" d="M1778.07,127.435c1.692,1.588,3.1,2.535,4.017,3.83
			c7.413,10.458,14.918,20.858,22,31.538c3.256,4.91,3.098,9.016-1.614,13.491c-7.768,7.377-16.518,13.694-26.727,17.745
			c-7.653-7.199-13.513-15.412-19.556-22.675C1763.401,156.281,1773.26,143.66,1778.07,127.435z"/>
		<path style="fill:none;stroke:#000000;stroke-miterlimit:10;" d="M1228.259,226.492c14.876,7.848,25.917,19.306,35.348,32.739
			c6.78,9.658,11.428,20.392,16.881,30.714c4.586,8.681,8.59,25.207,7.225,34.788c-6.599-5.181-12.758-10.493-17.605-17.023
			c-15.122-20.371-28.026-42.02-36.879-65.918c-1.741-4.699-3.559-9.369-5.325-14.059
			C1227.853,227.6,1227.993,227.394,1228.259,226.492z"/>
		<path style="fill:none;stroke:#000000;stroke-miterlimit:10;" d="M1367.3,317.743c1.541-6.357,5.499-10.578,9.135-14.979
			c2.82-3.414,5.979-6.567,8.581-10.133c1.562-2.141,3.333-2.785,5.669-2.481c5.758,0.749,11.09,2.824,16.168,5.549
			c0.695,0.373,1.219,1.313,1.536,2.105c3.571,8.926,7.087,17.874,10.805,27.291C1402.158,320.524,1384.873,319.445,1367.3,317.743z
			"/>
		<path style="fill:none;stroke:#000000;stroke-miterlimit:10;" d="M1115.107,198.37c-0.864-6.081-2.354-11.858-1.211-17.888
			c1.161-6.123,5.507-10.166,11.749-10.782c8.672-0.856,17.21,0.082,25.243,3.259c12.776,5.053,25.331,10.667,37.964,16.079
			c0.819,0.351,1.508,1.004,2.752,1.856c-2.944,1.914-5.451,3.698-8.106,5.224c-2.344,1.347-3.843-0.502-5.254-1.924
			c-3.008-3.03-5.871-6.203-8.873-9.24c-3.815-3.86-8.375-6.121-13.909-6.116c-3.544,0.003-7.092-0.106-10.63,0.042
			c-7.439,0.311-13.254,4.526-18.838,8.702C1122.085,190.502,1118.964,194.477,1115.107,198.37z"/>
		<path style="fill:none;stroke:#000000;stroke-miterlimit:10;" d="M1250.012,183.35c-5.858-4.691-10.323-10.077-13.558-16.345
			c-2.813-5.448-5.51-11.049-7.389-16.863c-2.457-7.599-4.5-15.473-0.636-23.347c0.887-1.807,1.929-3.539,2.968-5.43
			C1236.417,126.991,1249.851,171.782,1250.012,183.35z"/>
		<path style="fill:none;stroke:#000000;stroke-miterlimit:10;" d="M1733.111,201.695c-0.564,0.52-0.683,0.728-0.807,0.731
			c-2.962,0.073-6.396,1.066-8.745-0.109c-2.004-1.002-2.848-4.456-4.054-6.9c-3.33-6.745-6.582-13.53-9.355-20.651
			C1718.244,183.313,1726.01,192.06,1733.111,201.695z"/>
		<path style="fill:none;stroke:#000000;stroke-miterlimit:10;" d="M1760.229,237.945c-5.694,1.109-9.851,1.943-14.019,2.721
			c-2.754,0.515-5.023,0.058-6.544-2.742c-1.198-2.205-2.837-4.169-4.699-6.843c1.942-0.467,3.131-1.081,4.243-0.964
			c4.76,0.5,9.53,1.038,14.231,1.915C1756.356,232.577,1757.42,235.413,1760.229,237.945z"/>
		<path style="fill:none;stroke:#000000;stroke-miterlimit:10;" d="M1385.222,161.1c9.82,9.848,15.759,21.338,15.365,36.67
			c-5.386-5.796-5.014-12.919-7.994-18.63C1389.591,173.386,1385.853,167.869,1385.222,161.1z"/>
		<path style="fill:none;stroke:#000000;stroke-miterlimit:10;" d="M1378.464,234.363c3.588,5.864,6.65,10.869,9.804,16.025
			C1379.06,252.204,1376.435,244.351,1378.464,234.363z"/>
		<path style="fill:none;stroke:#000000;stroke-miterlimit:10;" d="M1275.102,344.306c1.855-5.819,6.097-8.527,11.362-11.016
			C1285.118,338.047,1280.135,342.796,1275.102,344.306z"/>
		<path style="fill:none;stroke:#000000;stroke-miterlimit:10;" d="M206.214,211.938c-27.884-15.789-55.769-31.577-83.856-47.481
			c0.491-4.237,3.093-7.309,5.396-10.278c5.461-7.04,11.313-13.777,17.044-20.606c6.767-8.064,13.573-16.096,20.892-24.77
			c3.941,3.768,7.283,7.085,10.757,10.257c5.065,4.625,10.126,9.262,15.366,13.685c8.352,7.05,16.564,14.316,25.363,20.772
			c9.239,6.78,19.097,12.72,28.691,19.015c0.929,0.61,2.098,0.962,2.833,1.739c2.064,2.18,4.299,2.86,7.193,0.772
			c12.501,24.145,24.034,48.204,34.801,73.029c-7.309,3.334-15.111,2.691-22.536,4.897c-6.118-8.554-11.726-17.158-16.055-26.613
			c-2.927-6.393-6.728-12.386-9.627-18.79c-4.501-9.944-8.526-20.101-12.842-30.13c-1.13-2.625-2.099-5.114-1.054-8.046
			c0.9-2.523-0.392-4.527-2.541-5.557c-2.274-1.089-3.648,0.73-5.115,2.274c-6.268,6.6-12.548,13.194-19.041,19.569
			c-1.685,1.654-2.407,2.745-1.535,5.186c2.368,6.624,4.339,13.389,6.468,20.098C206.616,211.286,206.415,211.612,206.214,211.938z"
			/>
		<path style="fill:none;stroke:#000000;stroke-miterlimit:10;" d="M629.191,50.041c4.52-4.173,9.277-5.264,14.351-3.234
			c6.348,2.54,12.736,5.141,18.692,8.459c9.566,5.329,19.044,10.901,28.08,17.072c6.571,4.488,12.746,9.726,18.408,15.327
			c6.067,6.002,11.545,12.648,16.844,19.357c2.492,3.156,4.274,6.994,5.774,10.764c0.816,2.051,1.149,5.033,0.199,6.777
			c-0.587,1.078-4.117,1.182-6.117,0.752c-7.97-1.712-15.769-3.704-23.451-6.89c-12.897-5.348-24.341-12.805-34.999-21.402
			c-11.723-9.456-21.723-20.74-30.229-33.255c-1.871-2.754-3.941-5.386-5.633-8.244C630.191,53.971,629.872,52.06,629.191,50.041z"
			/>
		<path style="fill:none;stroke:#000000;stroke-miterlimit:10;" d="M678.487,178.926c-2.115,2.989-3.881,5.571-5.74,8.083
			c-1.201,1.622-1.191,3.083,0.298,4.447c5.288,4.844,7.715,11.499,10.09,17.822c4.753,12.653,8.592,25.654,12.621,38.569
			c0.808,2.59,0.785,5.44,1.155,8.244c-10.142-2.519-19.796-5.146-29.559-7.273c-8.514-1.855-17.178-3.015-25.721-4.755
			c-3.424-0.697-6.646-2.792-10.056-3.066c-5.844-0.47-7.985-3.983-9.973-8.766c-2.276-5.476-5.72-10.457-8.192-15.865
			c-2.986-6.534-5.485-13.291-8.29-20.185c6.546-2.016,12.357-3.816,18.174-5.593c2.225-0.679,3.257,0.669,3.429,2.51
			c0.952,10.173,2.618,20.324,0.611,30.585c-0.56,2.861-0.405,5.861-0.596,9.105c4.07,0.592,7.014,0.151,10.563-2.017
			c7.744-4.731,13.874-11.083,20.158-17.347c0.923-0.92,1.328-2.569,1.551-3.948c1.273-7.885,2.586-15.77,3.538-23.696
			c0.486-4.045,0.226-8.177,0.339-12.268c0.045-1.637,0.185-3.272,0.328-5.675C669.478,170.507,675.083,173.04,678.487,178.926z"/>
		<path style="fill:none;stroke:#000000;stroke-miterlimit:10;" d="M444.151,133.429c0.52-1.167,0.782-2.576,1.606-3.459
			c3.302-3.535,6.998-6.721,10.133-10.39c3.355-3.927,6.392-8.152,9.294-12.432c3.428-5.057,6.706-10.23,9.767-15.515
			c1.539-2.657,2.454-5.675,3.887-9.091c13.537,13.036,23.935,28.06,35.779,42.086c-2.709,5.455-7.063,9.29-11.392,12.978
			c-7.667,6.531-16.66,11.055-25.745,15.19c-4.503,2.049-9.59,2.828-14.43,4.116c-1.917,0.511-3.063-0.506-4.082-2.095
			c-4.207-6.563-8.325-13.146-9.383-21.574c-1.978,0-3.799,0-5.623-0.001C443.959,133.24,444.151,133.429,444.151,133.429z"/>
		<path style="fill:none;stroke:#000000;stroke-miterlimit:10;" d="M352.559,170.888c-7.613-7.963-14.899-15.582-22.09-23.103
			c15.141-12.086,26.982-26.6,33.62-45.96c11.064,14.825,19.993,30.382,29.8,45.95C381.978,158.762,368.821,167.295,352.559,170.888
			z"/>
		<path style="fill:none;stroke:#000000;stroke-miterlimit:10;" d="M323.045,328.479c-5.642-6.56-11.723-12.798-16.829-19.752
			c-8.529-11.616-16.438-23.687-24.593-35.576c-0.29-0.423-0.423-0.953-0.907-2.078c4.797-0.424,9.38-0.447,13.786-1.342
			c3.387-0.688,4.497,1.021,6.016,3.308c7.125,10.73,11.893,22.578,16.569,34.466c2.028,5.155,3.852,10.399,5.518,15.682
			c0.525,1.666,0.238,3.588,0.32,5.396C322.922,328.586,323.045,328.479,323.045,328.479z"/>
		<path style="fill:none;stroke:#000000;stroke-miterlimit:10;" d="M311.703,206.416c7.952-0.332,14.383,2.004,20.801,4.317
			c0.799,0.288,1.524,1.069,2.046,1.793c5.071,7.037,10.096,14.108,15.106,21.189c0.18,0.254,0.069,0.715,0.108,1.28
			c-6.61,1.477-13.233,3.013-19.883,4.415c-2.827,0.596-3.956-1.535-4.895-3.611c-3.199-7.073-6.329-14.177-9.508-21.259
			C314.359,212.046,313.176,209.579,311.703,206.416z"/>
		<path style="fill:none;stroke:#000000;stroke-miterlimit:10;" d="M293.353,166.204c4.767,4.938,9.534,9.875,14.811,15.341
			c-3.332-0.292-5.931-0.521-9.613-0.844c-1.788-4.128-3.917-9.041-6.045-13.954C292.788,166.567,293.071,166.385,293.353,166.204z"
			/>
	</g>
</g>
</svg>
