<?xml version="1.0" standalone="no"?>
<!DOCTYPE svg PUBLIC "-//W3C//DTD SVG 1.1//EN" "http://www.w3.org/Graphics/SVG/1.1/DTD/svg11.dtd" >
<svg xmlns="http://www.w3.org/2000/svg" xmlns:xlink="http://www.w3.org/1999/xlink" version="1.1">
<metadata>
Created by FontForge 20170731 at Sun Mar 15 08:16:51 2020
 By Aleksey,,,
</metadata>
<defs>
<font id="GuruSerif-Regular" horiz-adv-x="250" >
  <font-face 
    font-family="Guru Serif"
    font-weight="400"
    font-stretch="normal"
    units-per-em="1000"
    panose-1="2 0 5 3 0 0 0 0 0 0"
    ascent="800"
    descent="-200"
    x-height="603"
    cap-height="746"
    bbox="33 -100 795 771"
    underline-thickness="50"
    underline-position="-200"
    unicode-range="U+000D-00A0"
  />
<missing-glyph horiz-adv-x="364" 
d="M33 0v666h265v-666h-265zM66 33h199v600h-199v-600z" />
    <glyph glyph-name=".notdef" horiz-adv-x="364" 
d="M33 0v666h265v-666h-265zM66 33h199v600h-199v-600z" />
    <glyph glyph-name=".null" 
 />
    <glyph glyph-name=".null" 
 />
    <glyph glyph-name="nonmarkingreturn" horiz-adv-x="333" 
 />
    <glyph glyph-name="CR" unicode="&#xd;" 
 />
    <glyph glyph-name="space" unicode=" " 
 />
    <glyph glyph-name="exclam" unicode="!" horiz-adv-x="223" 
d="M80 176q12 8 28 8q23 0 40.5 -17t17.5 -42q0 -32 -26 -49q-14 -10 -33 -10q-41 0 -53 37q-4 11 -4 23q0 32 30 50zM88 648q16 8 25 8q11 0 24 -6q23 -10 27.5 -27.5t6.5 -110.5q2 -76 2 -126q0 -48 -1 -64l-3 -79l-16 -16q-10 -11 -17 -14t-21 -3q-42 0 -55 32
q-6 15 -6 194q0 128 1.5 155.5t8.5 36.5q9 12 24 20z" />
    <glyph glyph-name="quotedbl" unicode="&#x22;" horiz-adv-x="404" 
d="M94 671q12 6 26 6q36 0 53 -32q6 -12 6 -29q0 -15 -3 -60q-4 -59 -9.5 -77t-22.5 -29q-11 -7 -31 -7q-27 0 -40 12q-19 18 -19 50q0 19 3 58q5 60 11.5 79t25.5 29zM259 684q15 12 35 12q19 0 35 -10.5t21 -28.5q1 -3 1 -16q0 -35 -8.5 -101.5t-15.5 -77.5
q-19 -28 -52 -28q-17 0 -30 9q-14 10 -19.5 20t-5.5 31q0 22 8 88q8 61 12 76t19 26z" />
    <glyph glyph-name="dollar" unicode="$" horiz-adv-x="567" 
d="M378 271q-3 1 -9.5 3.5t-8.5 3.5h-2q-11 0 -11 -44q0 -18 6 -18q4 0 20 8q21 10 21 27q0 14 -16 20zM238 480q0 10 -6 10q-5 0 -20 -9q-17 -11 -30.5 -24.5t-13.5 -20.5q0 -13 7 -18t29 -6l28 -2l3 30q3 25 3 40zM279 709q12 6 25 6q24 0 41.5 -17.5t17.5 -42.5v-7
q-1 -5 -1 -11q0 -5 3 -6.5t12 -3.5q61 -10 68 -47q2 -12 2 -16q0 -25 -20 -43q-14 -13 -31 -13h-12l-28 2v-31q0 -17 -3 -53q-3 -23 4 -23q17 0 62.5 -20t56.5 -33q37 -42 37 -103q0 -22 -10.5 -49.5t-24.5 -44.5q-16 -18 -49.5 -35t-63.5 -22l-27 -5v-29q0 -34 -15.5 -52
t-44.5 -18q-28 0 -42 16.5t-16 52.5l-2 34l-37 5q-37 6 -61 13t-45.5 24.5t-23.5 43.5v7q0 37 31 50q16 7 23 7q14 0 41 -13q38 -16 67 -16q12 0 13 4q2 7 4 40l3 33h-26q-78 0 -118 43q-22 23 -29.5 42.5t-7.5 54.5q0 43 12 67q10 20 34.5 44.5t47.5 38.5q15 9 57 23l38 12
l3 28q5 48 35 63z" />
    <glyph glyph-name="percent" unicode="%" horiz-adv-x="750" 
d="M562 270l-20 9h-1q-10 0 -14 -29q-1 -12 0 -15.5t9 -6.5q9 -4 18 -4q11 0 17 13q6 12 6 18q0 8 -15 15zM492 392q20 10 43 10h15q16 -1 28 -4t18 -6t17 -10t18 -10q16 -9 34.5 -28t23.5 -32q7 -19 7 -46q0 -55 -25.5 -96.5t-69.5 -57.5q-15 -6 -33 -6q-12 0 -20 1
q-95 6 -130 76q-11 22 -11 41q0 13 1 23q3 51 26 89.5t58 55.5zM206 559q-6 6 -14 6t-14 -5.5t-6 -13.5q0 -4 10 -8.5t18 -4.5q5 0 6 1q13 12 0 25zM141 679q26 7 33 7q17 0 41.5 -6.5t31.5 -13.5q9 -9 29 -18q16 -7 32 -22.5t21 -29.5q4 -9 4 -29q0 -47 -18 -83
q-9 -17 -30 -39.5t-34 -27.5q-15 -6 -36 -6q-48 0 -94 23q-40 21 -58 60q-9 19 -9 36q0 14 1 24q3 40 14 61q11 22 31.5 40t40.5 24zM493 697q12 6 26 6q24 0 41.5 -16.5t17.5 -40.5q0 -16 -14 -44q-37 -74 -150 -226q-56 -73 -119 -168q-58 -87 -75 -104q-12 -11 -34 -11
q-26 0 -43 15.5t-17 38.5q0 9 1 13q3 16 61.5 105t118.5 169q116 157 150 220q11 21 18 29t18 14z" />
    <glyph glyph-name="ampersand" unicode="&#x26;" horiz-adv-x="574" 
d="M249 276q-33 40 -39 40q-2 0 -12 -10q-27 -29 -27 -56q0 -22 46 -29q6 -1 14 -1q12 0 27 8q18 9 18 13t-27 35zM291 570q-16 7 -35 7q-17 0 -25 -5t-8 -22q0 -18 10 -40q9 -20 12 -20q4 0 22 15t27 26q12 13 12 23q0 8 -15 16zM200 690q15 5 45 5q59 0 87 -12
q54 -22 80 -63q9 -14 11 -23.5t2 -35.5q0 -42 -12.5 -68t-50.5 -62q-37 -37 -43 -37q-4 0 -4 -4q0 -9 19 -29l20 -22l13 17q26 29 51 29q12 0 26 -6q32 -14 32 -50q0 -27 -19 -53l-17 -23l17 -15q25 -20 35 -27q27 -19 27 -51q0 -20 -12 -36.5t-34 -20.5q-4 -1 -11 -1
q-25 0 -66 31l-31 24l-27 -19q-55 -37 -103 -37q-19 0 -54 7q-82 16 -114 71q-14 22 -14 65q0 58 25 102q13 20 39 48l27 28l-11 18q-29 49 -29 118q0 28 7 45q21 61 89 87z" />
    <glyph glyph-name="quotesingle" unicode="'" horiz-adv-x="243" 
d="M64 652q17 29 53 29q18 0 36 -9q21 -10 28.5 -22.5t7.5 -33.5q0 -19 -13 -72t-19 -61q-16 -19 -51 -19q-23 0 -38 15q-10 10 -12.5 16t-2.5 22t7 49q3 14 3 23q0 7 -2 11q-4 10 -4 19q0 17 7 33z" />
    <glyph glyph-name="plus" unicode="+" horiz-adv-x="548" 
d="M265 539q12 2 15 2q9 0 26 -7q19 -9 24.5 -20t5.5 -42q0 -25 -1 -41q-2 -46 -2 -48q0 -19 4 -19h1l2 1q11 4 56 6q14 1 33 1q22 0 33 -6q31 -16 31 -51v-8q-1 -23 -17 -38q-10 -10 -19 -12.5t-46 -4.5q-51 -2 -62 -5l-12 -3l3 -75q2 -46 2 -51q0 -26 -6 -37
q-18 -35 -52 -35q-11 0 -24 5q-22 9 -28.5 26.5t-9.5 78.5q-2 68 -5 71h-2q-10 0 -43 -5q-38 -7 -60 -7q-21 0 -33 9q-25 17 -25 46q0 16 7 30q8 16 26 24t67 15l59 9l3 70q3 70 10 86q13 28 39 35z" />
    <glyph glyph-name="comma" unicode="," horiz-adv-x="242" 
d="M98 190q14 7 23 7t24 -6q19 -7 27.5 -24t13.5 -53q2 -13 2 -38q0 -89 -36 -125q-15 -16 -37 -16q-28 0 -44.5 15.5t-16.5 41.5q0 18 7 35q8 21 8 52q0 18 -3 42q-2 20 -2 22q0 11 9 24q13 17 25 23z" />
    <glyph glyph-name="hyphen" unicode="-" horiz-adv-x="446" 
d="M131 442q34 3 130 3h41q50 0 61 -5q30 -16 30 -54q0 -18 -8 -30q-11 -19 -35 -23t-130 -6q-36 -1 -84 -1q-44 0 -56.5 4.5t-20.5 19.5q-6 12 -6 30q0 19 6 31q8 16 23 22.5t49 8.5z" />
    <glyph glyph-name="period" unicode="." horiz-adv-x="252" 
d="M113 230q19 6 28 6q8 0 21 -5q34 -14 37 -57v-9q0 -37 -33 -62q-21 -15 -44 -15q-35 0 -59 32q-9 13 -9 36q2 55 59 74z" />
    <glyph glyph-name="slash" unicode="/" horiz-adv-x="396" 
d="M245 644q15 12 39 12q21 0 33 -9q24 -19 24 -46q0 -15 -8 -36q-13 -38 -63 -201.5t-64 -198.5q-35 -88 -57 -104q-16 -11 -35 -11q-14 0 -25 6q-32 16 -32 48q0 22 15 52q19 35 58 152.5t72 237.5q14 49 22 68.5t21 29.5z" />
    <glyph glyph-name="zero" unicode="0" horiz-adv-x="600" 
d="M367 555q-25 12 -35 12q-6 0 -24 -5q-43 -14 -77 -54t-47 -94q-12 -46 -12 -105q0 -23 3 -36q11 -39 34.5 -69t48.5 -37q20 -5 34 -5q26 0 43 13q44 32 71 95t27 133q0 118 -66 152zM284 679q24 7 51 7q53 0 94 -28q44 -29 68 -63t42 -93q9 -28 9 -108q0 -53 -2 -70
t-10 -43q-28 -87 -65 -138.5t-92 -80.5q-29 -16 -71 -17h-20q-52 0 -99 22q-58 27 -97 96.5t-39 144.5q0 126 45 216q28 56 78.5 98t107.5 57z" />
    <glyph glyph-name="one" unicode="1" horiz-adv-x="496" 
d="M169 669q70 30 93 30q13 0 26 -8t16.5 -11t7.5 -22.5t4.5 -47.5t0.5 -96v-73l-1 -217h42q42 0 56 -9q27 -17 27 -51q0 -20 -10 -34q-11 -17 -38.5 -21.5t-144.5 -5.5l-145 -3l-15 11q-26 18 -26 52q0 22 9 32q12 15 27.5 19.5t52.5 4.5h45l3 99q3 81 3 166v68l-10 -4
q-21 -7 -34 -13q-31 -13 -48 -13q-27 0 -47 29q-9 13 -9 30q0 38 32 52q60 26 83 36z" />
    <glyph glyph-name="two" unicode="2" horiz-adv-x="534" 
d="M209 721q14 3 63 3q32 -1 43.5 -3t31.5 -12q24 -12 40.5 -29t34.5 -50q34 -65 34 -117q0 -29 -11 -59q-18 -47 -48.5 -96.5t-62.5 -81.5l-19 -21l34 -3q80 -6 106 -24q13 -9 20 -28q5 -13 5 -24q0 -33 -36 -49q-15 -6 -22 -6q-4 0 -27 5q-29 7 -86 7q-53 0 -109 -15
q-60 -16 -85 -16q-15 0 -26 6q-13 7 -22 21.5t-9 27.5q0 21 17.5 42.5t82.5 77.5q82 70 113 110q25 32 45.5 71.5t20.5 55.5q0 14 -17 49.5t-27 40.5q-6 3 -24 3h-11q-24 -1 -42 -15q-41 -32 -45 -81q-5 -47 -35 -62q-10 -6 -24 -6q-36 0 -52 30q-7 13 -7 38q0 59 29 109
q18 32 56.5 62.5t70.5 38.5z" />
    <glyph glyph-name="three" unicode="3" horiz-adv-x="538" 
d="M226 719q28 5 65 5h17q38 -1 50.5 -3t31.5 -11q55 -27 77 -70q11 -23 11 -58q0 -38 -12 -60q-15 -25 -25 -34l-12 -12l19 -25q22 -28 30 -52.5t8 -63.5q0 -47 -11 -73q-18 -46 -52.5 -86t-72.5 -59q-28 -14 -75 -15h-20q-28 0 -54 9q-67 25 -107.5 63t-40.5 75v6
q2 24 20 39t40 15q25 0 41 -20q13 -15 20 -25q9 -13 40 -29q34 -17 55 -17t40 14q32 23 51 67q9 19 9 38q0 63 -99 74q-31 4 -42 9q-27 15 -27 54q0 21 15 36q14 14 34 19q108 27 108 52q0 11 -17 19q-16 8 -42 8q-54 0 -99 -25q-20 -12 -29 -31q-17 -40 -54 -43h-6
q-38 0 -52 31q-6 14 -6 25q0 13 9 36q16 42 59 73.5t105 44.5z" />
    <glyph glyph-name="four" unicode="4" horiz-adv-x="514" 
d="M233 387q0 33 -2 33q-8 -15 -17 -33l-16 -32h35v32zM238 703q13 16 42 16q21 0 35 -10q18 -13 22.5 -35.5t8.5 -111.5q4 -83 4 -147q0 -26 3 -47q2 -9 5 -11t17 -2h9q76 0 76 -57q0 -18 -12 -36q-10 -15 -20.5 -20t-41.5 -8l-32 -3l1 -44q0 -43 -5 -56t-20 -21.5
t-32 -8.5q-33 0 -47 21t-14 69v40l-16 3q-27 3 -68 3q-47 0 -63.5 6t-27.5 26q-8 18 -8 33q0 31 50 131q10 20 40 87t55 117.5t39 65.5z" />
    <glyph glyph-name="five" unicode="5" horiz-adv-x="532" 
d="M292 723q50 2 67 2q60 0 74 -7q31 -15 31 -55q0 -15 -2.5 -21.5t-14.5 -17.5l-18 -16h-44q-35 0 -102.5 -4t-69.5 -6t-7.5 -37t-5.5 -40q0 -7 74 -7q52 0 66.5 -1.5t29.5 -9.5q38 -19 66.5 -56.5t37.5 -81.5q4 -19 4 -41q0 -64 -39.5 -118t-108.5 -84q-24 -10 -37 -12
t-58 -2q-63 0 -85 8q-47 16 -78 56q-18 23 -18 42q0 34 26 52q14 10 31 10q26 0 50 -26q13 -15 27 -20q13 -6 46 -6q26 0 39 4q29 8 58 37.5t29 51.5q0 31 -16.5 54t-42.5 27q-6 1 -21 1q-54 0 -100 -16q-31 -11 -51 -11q-18 0 -34 11q-22 17 -22 53q0 16 3 42
q16 157 33 196q11 25 42.5 33.5t140.5 15.5z" />
    <glyph glyph-name="six" unicode="6" horiz-adv-x="527" 
d="M300 383q-20 7 -53 9l-33 2q-8 -6 -23.5 -18.5t-23.5 -18.5l3 -27q5 -52 36 -81q27 -25 65 -25q23 0 37 10q18 12 32.5 40t14.5 51q0 7 -1 10q-2 13 -17.5 27t-36.5 21zM240 704q23 9 53 9q32 0 70 -7.5t51 -16.5q23 -17 23 -47q0 -27 -19 -45q-16 -14 -36 -14
q-12 0 -32 5q-25 7 -46 7q-24 0 -47 -15q-15 -11 -36.5 -34t-21.5 -29q0 -5 49 -7q60 -3 100 -17.5t75 -46.5q43 -41 49 -100q0 -3 0.5 -9.5t0.5 -9.5q0 -53 -28 -108q-23 -45 -46.5 -68t-62.5 -37q-21 -8 -44 -8q-18 0 -31 1q-44 2 -70.5 11.5t-54.5 32.5q-53 45 -73 106
q-7 20 -8.5 37t-1.5 80q1 72 7 108t25 76q24 48 66 89t89 57z" />
    <glyph glyph-name="seven" unicode="7" horiz-adv-x="595" 
d="M137 722q19 1 58 1q29 0 94 -1.5t101 -1.5q73 -1 94.5 -6t37.5 -23q19 -20 19 -65q0 -9 -2 -31q-6 -52 -34.5 -95t-98.5 -106q-57 -52 -75.5 -88t-23.5 -106q-3 -45 -8.5 -61t-21.5 -26q-11 -7 -30 -7q-36 0 -50 22q-10 14 -10 43q0 24 4 57q5 53 12.5 78t28.5 66
q16 30 37.5 55t75.5 74q63 58 74 93l3 10l-59 -1h-102h-61q-105 1 -120 10q-24 14 -24 43q0 11 2 17q8 27 22.5 36.5t56.5 12.5z" />
    <glyph glyph-name="eight" unicode="8" horiz-adv-x="524" 
d="M338 322l-19 19h-42q-41 0 -56.5 -4.5t-31.5 -19.5q-20 -19 -20 -40q0 -10 4 -19q11 -29 90 -33l47 -2l17 14q28 22 28 49q0 17 -17 36zM285 599q-23 5 -35 5q-17 0 -44 -12q-18 -8 -18 -26q0 -2 0.5 -5.5t0.5 -6.5q1 -11 15.5 -25.5t34.5 -23.5t29 -9q11 0 38 21
q15 13 19 19t4 16q0 38 -44 47zM204 717q15 3 38 3q60 0 94 -12q52 -17 81.5 -58t29.5 -96q0 -61 -32 -99l-18 -22l26 -27q26 -28 37 -50q11 -21 11 -71q0 -36 -2 -47t-12 -30q-36 -71 -114 -96q-16 -6 -42 -6q-24 0 -41 1q-62 2 -97 13.5t-65 40.5q-20 18 -33 44
q-9 17 -11 28t-2 43q0 44 13 72q14 27 40 54l28 28l-19 21q-35 38 -42 87q-2 22 -2 31q0 71 42 106q36 29 92 42z" />
    <glyph glyph-name="nine" unicode="9" horiz-adv-x="509" 
d="M329 539q-25 5 -38 5q-20 0 -38 -9q-21 -10 -43 -28.5t-30 -32.5q-6 -11 -6 -13.5t7 -7.5q21 -17 74 -17q28 0 51 24t31 62q4 14 -8 17zM251 660q6 1 12.5 2t10.5 2h4h6q6 -1 17 -2t20 -2q59 -6 83 -29q5 -5 23.5 -17.5t24.5 -24.5q5 -10 6 -47t1 -210q0 -177 -1 -211.5
t-7 -44.5q-17 -29 -52 -29q-38 0 -52 32q-5 13 -5 135v72q0 47 -4 47h-2q-35 -15 -77 -15q-93 0 -148.5 38t-55.5 101q0 10 1 15q7 72 83 132q63 50 112 56z" />
    <glyph glyph-name="question" unicode="?" horiz-adv-x="533" 
d="M266 158q14 6 33 6t34 -14q15 -13 18 -37q0 -1 0.5 -5t0.5 -5q0 -48 -51 -56q-1 0 -4 -0.5t-5 -0.5q-20 0 -36 14t-20 36q0 1 -0.5 3t-0.5 4q0 16 9.5 33t21.5 22zM195 664q31 9 77 9q29 0 54 -5q108 -23 144 -131q8 -25 8 -55v-20q-1 -32 -3 -44t-12 -30
q-9 -17 -26 -39.5t-43 -53t-30 -35.5q-32 -43 -63 -43q-25 0 -41.5 16.5t-16.5 41.5v7q1 17 12 33t52 63q30 33 43 53q12 18 12 41q0 25 -14 47t-37 31q-13 5 -33 5q-62 0 -93 -23q-13 -9 -13 -28q0 -17 12 -35q16 -25 16 -45q0 -12 -6 -26q-16 -32 -50 -32q-38 0 -67 49
q-23 40 -23 92q0 29 7 51q7 24 34 51q39 39 100 55z" />
    <glyph glyph-name="at" unicode="@" horiz-adv-x="672" 
d="M332 336q0 3 -2 3q-3 0 -11.5 -12t-8.5 -16l1 -1q3 0 12 11t9 15zM269 629q22 5 49 5q87 0 136 -23q42 -19 81 -58t58 -80q25 -51 25 -120q0 -61 -21 -109q-10 -22 -28.5 -42t-36.5 -29q-20 -9 -47 -9q-54 0 -86 29l-16 16l-20 -10q-22 -11 -52 -11q-44 0 -80 25t-42 64
q-1 7 -1 20q0 45 24.5 86.5t63.5 61.5q25 13 65 13q57 0 87 -22q15 -11 20.5 -26t10.5 -61q6 -64 21 -64q2 0 3 1q15 12 15 65v13q-5 81 -77 130q-17 12 -60 17q-21 3 -42 3q-11 0 -14 -1q-17 -3 -49 -26.5t-49 -45.5q-19 -25 -26 -47.5t-8 -63.5q0 -33 2 -44t11 -31
q24 -52 69 -82q34 -23 99 -29q41 -4 56.5 -17t15.5 -44q0 -59 -68 -59q-10 0 -16 1q-76 7 -127 32t-94 77q-68 81 -68 194q0 32 4 60q11 76 63 138q28 33 73 64t76 39z" />
    <glyph glyph-name="A" unicode="A" horiz-adv-x="627" 
d="M363 425q0 1 -18.5 51.5t-19.5 51.5q-23 -67 -26 -74q-11 -26 -11 -29q0 -2 38 -2q37 0 37 2zM258 686q16 26 58 26q18 0 32 -7q42 -21 90 -140q59 -148 100 -313q8 -34 21 -51q14 -19 14 -39q0 -33 -30 -50q-16 -8 -27 -8q-10 0 -37 3q-68 6 -79 24q-12 20 -12 37
q0 25 21 43l15 14l-11 38q-2 8 -5 18.5t-4 16.5l-2 5q-2 2 -77 4l-75 2l-8 -23q-7 -21 -20 -52q-10 -21 -10 -27q0 -5 3 -6q21 -17 21 -44q0 -36 -30 -52q-13 -7 -66 -7q-44 0 -57 6q-29 15 -29 53q0 27 19 43q19 17 75 179q9 27 33.5 98t33.5 98q32 95 43 111z" />
    <glyph glyph-name="B" unicode="B" horiz-adv-x="542" 
d="M372 301q-14 52 -100 75q-18 4 -19 4q-8 0 -10.5 -13t-8.5 -69q-2 -16 -4.5 -33.5t-4 -28.5t-1.5 -13q0 -3 19 -3h29q89 3 100 23q4 8 4 25q0 20 -4 33zM351 624q-6 5 -64 5q-54 0 -54 -5q0 -2 1.5 -10.5t3.5 -22.5t3 -27l5 -53l22 7q72 20 90 53q3 6 3 17q0 28 -10 36z
M187 739q52 7 121 7q60 -1 86 -13q45 -20 68 -61q9 -17 11 -28t2 -50q0 -50 -8 -71t-37 -50l-26 -26l28 -27q25 -24 41 -57q11 -23 13 -35.5t2 -56.5t-2 -55t-11 -29q-21 -38 -63 -60q-28 -14 -58 -18t-101 -4q-153 0 -180 23q-20 17 -20 44q0 20 11.5 36.5t31.5 20.5
q9 2 11 9q4 11 15 101q4 31 4 113q0 94 -5 129q-5 30 -13 30q-21 0 -36.5 19.5t-15.5 43.5q0 13 6 25q13 26 65 31q35 4 60 9z" />
    <glyph glyph-name="C" unicode="C" horiz-adv-x="599" 
d="M319 721q17 3 52 3q65 0 89 -7q53 -15 73 -84q6 -21 6 -35q0 -25 -19 -41q-13 -11 -37 -11q-22 0 -39 13q-16 14 -21 31l-5 18l-44 -2q-43 -1 -68 -14q-55 -30 -91 -96q-41 -76 -41 -149q0 -29 2 -37.5t11 -21.5q10 -14 35.5 -30t52.5 -26q20 -7 56 -11q19 -3 30 -3
q12 0 39 8l33 10v23q0 30 15 46.5t42 16.5q35 0 50 -26q8 -14 8 -52q0 -43 -10 -65q-16 -33 -70 -54.5t-120 -21.5q-32 0 -56 4q-70 11 -130 48t-84 83q-22 44 -22 95q0 20 1 32q4 94 44 174t107 130q58 43 111 52z" />
    <glyph glyph-name="D" unicode="D" horiz-adv-x="622" 
d="M424 515q-22 35 -63.5 57.5t-91.5 27.5l-21 4v-28q0 -73 16 -311l3 -45l24 2q40 4 80.5 33.5t65.5 72.5q9 17 11 27t2 39q0 76 -26 121zM81 707q13 9 46 9q42 0 81 -1q107 -2 147 -11.5t97 -49.5q53 -36 79 -87.5t33 -134.5q3 -30 3 -53q0 -48 -14 -83t-49 -76
q-51 -60 -104 -86q-40 -19 -67 -23.5t-108 -6.5l-99 -2l-16 15q-17 15 -19 36v8q0 23 14 39.5t35 16.5q7 0 9 2t0 8q-9 40 -18 331l-2 45h-20q-20 0 -34 14q-19 19 -19 44q0 30 25 46z" />
    <glyph glyph-name="E" unicode="E" horiz-adv-x="560" 
d="M180 714q10 2 101 2q99 0 135 -10.5t53 -46.5q14 -31 14 -53q0 -30 -22 -48q-13 -10 -32 -10q-20 0 -37 11t-23 29q-2 7 -12 8.5t-62 3.5q-40 2 -55 2q-23 0 -31 -2q-10 -2 -12 -5.5t-2 -17.5q0 -40 -1 -65l-1 -45h57q58 0 75 9q13 7 28 7q36 0 52 -31q7 -12 9 -50
q1 -9 1 -21q0 -17 -6 -26q-20 -29 -50 -29q-11 0 -26 7t-15 12q0 3 -67 3h-67l-7 -62l-6 -64q51 -1 113 -2l113 -1l7 14q12 26 42 26q38 0 55 -35q5 -10 5 -23q0 -24 -13.5 -50.5t-32.5 -37.5l-18 -11l-168 2q-136 1 -159.5 3.5t-42.5 20.5t-19 59q0 27 6 84q11 103 12 134
q9 160 17 215.5t25 69.5q16 13 67 24z" />
    <glyph glyph-name="F" unicode="F" horiz-adv-x="519" 
d="M235 734q32 4 80 4t78 -4q23 -4 35.5 -12t22.5 -25q14 -23 14 -64q0 -21 -6 -33q-15 -32 -52 -32q-35 0 -52 33l-9 19h-40q-43 0 -76 -5q-27 -4 -32 -6t-7 -12q-2 -14 -2 -72v-58h36q27 0 32.5 1.5t9.5 9.5q12 28 50 28q13 0 27 -6q28 -13 33 -74q2 -30 2 -35
q0 -23 -12 -39q-15 -21 -45 -21q-20 0 -37 12q-14 10 -52 10h-40v-127l15 -15q11 -11 13.5 -17.5t2.5 -22.5q0 -24 -14 -40q-14 -15 -43 -20q-24 -4 -45 -4q-44 0 -60 28q-9 13 -9 31q0 24 15 39q7 7 7 219q0 203 5 233q6 33 24 46.5t63 20.5l38.5 5.5t29.5 4.5z" />
    <glyph glyph-name="G" unicode="G" horiz-adv-x="593" 
d="M231 714q20 6 49 6q16 0 26 -1q81 -3 128 -31q26 -15 30 -15q8 0 20 -9t17 -18q7 -14 7 -46t-7 -46q-16 -30 -52 -30q-41 0 -68 44q-10 17 -16 22t-20 8q-24 6 -53 6q-24 0 -34 -5q-75 -39 -86 -203q-1 -11 -1 -29q0 -33 8.5 -53t31.5 -43q46 -46 111 -46q54 0 66 29
q5 13 5 17q0 7 -15 13q-32 13 -32 53t32 53q16 7 68 7h24q30 0 41 -8q26 -20 26 -49q0 -19 -13 -37q-11 -16 -14 -40q-7 -64 -46 -103q-25 -25 -51 -38q-18 -10 -30 -11.5t-57 -1.5q-43 0 -57.5 2t-38.5 11q-50 18 -91 51.5t-57 69.5q-16 34 -21 56.5t-5 65.5q0 143 44 230
q23 44 58 76.5t73 42.5z" />
    <glyph glyph-name="H" unicode="H" horiz-adv-x="694" 
d="M109 726q24 8 64 8q27 0 40 -4q16 -4 28 -16.5t15 -26.5q1 -3 1 -10q0 -34 -22 -49l-13 -10v-131l47 3q37 3 121 3h74v118l-18 18q-12 12 -15 18.5t-3 21.5q0 22 10 35q10 14 21.5 19t37.5 5q20 0 33 -1q52 -2 69.5 -6.5t28.5 -17.5q12 -14 12 -38q0 -18 -8 -32
q-5 -10 -19 -18t-24 -8q-7 0 -7 -135q0 -100 -3 -190l-3 -54l16 -8q33 -16 33 -54q0 -36 -32 -51q-20 -9 -74 -9q-59 0 -76 10q-27 17 -27 49q0 25 18 41q15 13 20 15q5 1 8 78l3 75l-26 3q-4 1 -24 1q-43 0 -116 -3.5t-75 -5.5q-2 -31 -4 -68l-3 -67l14 -15q17 -19 17 -45
q0 -19 -8 -31q-11 -17 -29.5 -23t-58.5 -6q-48 0 -60 9q-23 17 -23 48q0 26 16 43q10 10 12 22.5t6 74.5q5 77 5 187v104l-16 8q-36 17 -36 55q0 12 6 24q12 24 47 37z" />
    <glyph glyph-name="I" unicode="I" horiz-adv-x="358" 
d="M106 741q12 5 63 5q65 0 93 -7q19 -5 30.5 -20t11.5 -34q0 -13 -6 -26q-6 -14 -19.5 -24t-26.5 -10q-7 0 -9.5 -40.5t-4.5 -186.5l-3 -167l18 -3q23 -4 37 -20.5t14 -37.5q0 -13 -4 -22q-8 -20 -22 -28q-13 -8 -44 -8q-32 0 -59 1q-87 2 -96 7q-25 12 -25 51q0 19 9 31
q11 14 43 27l11 5v103q0 192 11 276q2 16 -4 16q-20 0 -37 19.5t-17 40.5q0 1 0.5 3.5t0.5 3.5q7 33 35 45z" />
    <glyph glyph-name="J" unicode="J" horiz-adv-x="455" 
d="M211 734q8 2 38 2q6 0 21.5 -0.5t23.5 -0.5q59 -1 76 -7t26 -28q4 -8 4 -20q0 -20 -12 -37t-30 -21l-12 -3l-4 -167q-4 -171 -7 -204q-10 -87 -79 -124q-20 -10 -59 -10q-41 0 -65 12q-40 20 -66 66q-11 19 -11 33q0 2 0.5 5.5t0.5 6.5q4 40 40 50q6 2 17 2q29 0 50 -31
q18 -28 36 -28q13 0 18 21q4 17 6 151q4 162 5 177l3 40l-15 3q-14 3 -26.5 15t-16.5 27q-2 10 -2 15q0 19 11 34.5t29 20.5z" />
    <glyph glyph-name="K" unicode="K" horiz-adv-x="576" 
d="M100 724q12 15 26.5 19t49.5 4h10q40 0 57 -5.5t29 -24.5q10 -15 10 -29q0 -26 -26 -47q-9 -8 -11.5 -16t-4.5 -39q-1 -11 -1 -27q0 -18 4 -18q17 0 64 42.5t47 56.5q0 3 -2 13t-3 18v11q0 15 13 29q10 12 17.5 14.5t37.5 4.5q24 2 31 2q33 0 52 -13q9 -6 16 -20.5
t7 -26.5t-8.5 -27t-19.5 -21q-14 -8 -19 -20t-35 -49.5t-50 -57.5l-22 -22l21 -46q25 -59 50 -109q30 -62 47 -70q35 -20 35 -55q0 -14 -6 -26q-11 -19 -25.5 -26.5t-50.5 -10.5q-16 -2 -40 -2q-41 0 -60 19q-14 14 -14 36q0 21 11 38l11 16l-15 29q-15 30 -42 93
q-27 60 -34 60h-1q-6 -3 -15.5 -6t-10.5 -6.5t-3 -13t-4 -33.5q-6 -84 -7 -88l-5 -41l14 -12q17 -15 17 -40q0 -11 -3 -21q-7 -25 -32 -35t-78 -11h-45l-15 16q-15 16 -15 37q0 15 7.5 32.5t13.5 17.5q3 0 11 6q12 10 21 163q4 77 11 140q6 57 6 79q0 26 -10 32
q-25 14 -25 51q0 22 11 36z" />
    <glyph glyph-name="L" unicode="L" horiz-adv-x="534" 
d="M104 731q13 7 33 7q17 0 30 -1q44 -2 62 -8.5t28 -24.5q7 -14 7 -30q0 -37 -29 -50q-10 -4 -12 -10.5t-4 -39.5q-1 -14 -4.5 -157t-5.5 -164l-3 -23h155l17 17q20 21 42 21q14 0 27 -7q32 -16 33 -70q0 -32 -10 -46q-13 -17 -27 -25q-15 -9 -80 -9q-56 0 -100 1
q-164 1 -177 9q-32 17 -32 53q0 40 26 54q13 6 13 16q0 1 1 28t2 75t2 93l3 186l-12 15q-13 14 -13 38q0 33 28 52z" />
    <glyph glyph-name="M" unicode="M" horiz-adv-x="681" 
d="M443 741q16 4 36 4q26 0 43 -9q26 -14 26 -50q0 -24 -13 -40q-5 -7 -5 -12q0 -7 9 -43q16 -58 27.5 -155t11.5 -166q0 -29 1.5 -35t8.5 -9q38 -16 38 -57q0 -17 -8 -30q-11 -17 -30 -22.5t-73 -5.5q-67 0 -87.5 10t-23.5 45q-1 6 -1 14q0 12 10 26q12 15 29 20l18 5v49
q0 90 -18 200q-2 12 -4 25.5t-3 20.5t-1 8q0 7 -6 1q-3 -3 -5 -8q-5 -14 -19.5 -34t-25.5 -27q-14 -8 -32 -8q-23 0 -36 11q-7 5 -47 59l-41 55q-3 0 -3 -43v-34v-28q0 -84 -3 -150l-3 -96l21 -8q38 -16 38 -54q0 -16 -9 -31q-10 -18 -27.5 -23t-67.5 -5q-48 0 -66 4.5
t-32 19.5q-12 13 -12 35q0 35 25 51l12 6l3 73q4 167 5 195l3 123l-16 6q-17 6 -27 21.5t-10 33.5q0 15 9 29q12 19 27.5 24.5t57.5 5.5h17q61 -1 76 -10q36 -19 76 -73q21 -30 23 -30q1 0 -1 10l1 6l2 -3q0 -1 2 -1q5 0 23 35q19 36 33.5 49t43.5 20z" />
    <glyph glyph-name="N" unicode="N" horiz-adv-x="659" 
d="M443 728q14 6 56 6q61 0 76 -9q12 -7 20.5 -22t8.5 -31q0 -13 -9 -28t-20 -20q-11 -6 -11 -9q0 -1 1 -22t3 -61.5t4 -77.5q7 -151 7 -226q0 -72 -8 -86q-17 -29 -52 -29q-23 0 -37 13q-8 6 -53 97q-82 167 -138 250q-36 53 -61 75q-7 6 -7 2q0 -35 17 -228q4 -46 4 -69
q0 -19 1.5 -24t8.5 -8q10 -3 22 -17q12 -15 12 -36q0 -39 -27 -53q-11 -5 -68 -7q-17 -1 -38 -1q-22 0 -35 8q-28 18 -28 50q0 26 19 45q10 10 12 16.5t2 30.5q0 45 -6 100q-3 26 -11 149q-6 90 -6 92q0 9 -14 18q-31 18 -31 52v7q5 47 58 53q20 2 33 2q51 0 77 -12
q21 -10 74.5 -67.5t85.5 -104.5q16 -23 45 -73l25 -44l-3 77q-3 79 -6 95t-16 28q-22 19 -22 47q0 37 35 52z" />
    <glyph glyph-name="O" unicode="O" horiz-adv-x="674" 
d="M389 592q-28 10 -48 10q-39 0 -72.5 -32t-69.5 -102q-30 -60 -30 -110q0 -44 24 -78q39 -55 151 -55q39 0 56.5 5.5t43.5 25.5q59 46 59 155q0 75 -36 126q-14 22 -28 31.5t-50 23.5zM293 714q30 7 61 7q68 0 88 -17q19 -13 39 -22q43 -20 77.5 -68.5t52.5 -111.5
q8 -25 8 -88q0 -71 -10 -107q-35 -126 -153 -182l-34 -16l-70 1q-72 0 -113 11q-99 27 -145 93q-38 54 -38 130q0 129 77 245q35 53 72.5 82.5t87.5 42.5z" />
    <glyph glyph-name="P" unicode="P" horiz-adv-x="523" 
d="M291 617q-28 8 -55 8h-30v-37q0 -26 4.5 -76.5t6.5 -52.5h2q3 0 29 4q44 8 74.5 32.5t30.5 53.5q0 27 -13.5 42t-48.5 26zM140 738q22 3 76 3h19q48 -1 75.5 -7.5t64.5 -24.5q22 -11 45.5 -35.5t34.5 -47.5q8 -17 10 -29.5t2 -48.5q0 -53 -9 -71q-18 -34 -51.5 -65
t-67.5 -46q-18 -8 -51 -15t-51 -7h-18v-122l13 -3q18 -4 28 -19.5t10 -34.5q0 -37 -29 -51q-16 -7 -75 -7q-64 0 -82 8q-13 6 -21.5 21t-8.5 31q0 1 0.5 4t0.5 4q3 14 17.5 30t24.5 16h10l-3 113q-2 56 -4 89t-5 67.5t-5 70.5l-4 57l-14 13q-19 18 -19 41q0 22 15 40
q17 20 72 26z" />
    <glyph glyph-name="Q" unicode="Q" horiz-adv-x="714" 
d="M406 631q-45 8 -79 8h-6q-23 -5 -64 -44t-54 -68q-30 -68 -30 -123q0 -19 4 -30q5 -16 29 -48.5t41 -45.5q42 -33 52 -33q1 0 9 17q14 33 48 52q13 7 35 7q28 0 48 -11l20 -11l8 15q24 40 24 123q0 88 -27 142q-8 15 -26.5 31t-31.5 19zM281 750q19 6 54 6q83 0 134 -23
q28 -13 56 -41t44 -60q34 -68 38 -171q0 -6 0.5 -16t0.5 -15q0 -97 -33 -163q-19 -37 -15 -37t13 6q11 7 32 7t37 -14q17 -16 18 -39v-7q0 -33 -35 -57q-19 -13 -49 -14h-10q-59 0 -98 21q-16 7 -19 7q-4 0 -17 -5q-20 -8 -78 -8q-53 0 -84.5 8t-64.5 30q-8 5 -38 23
q-13 7 -42 45.5t-45 69.5q-15 29 -18 41t-5 41q0 3 -0.5 10t-0.5 10q0 133 80 232q17 21 53.5 53.5t57.5 44.5q16 10 34 15z" />
    <glyph glyph-name="R" unicode="R" horiz-adv-x="652" 
d="M360 618q-16 5 -66 5q-40 0 -59 -2l-19 -1v-67q0 -69 3 -83l3 -17l25 3q108 14 143 55q10 13 10 27q0 12 -1 22q-2 31 -8.5 41t-30.5 17zM189 734q26 3 113 3l83 -1l33 -14q62 -27 82 -73q19 -44 19 -109q0 -13 -1 -19q-5 -56 -47 -98l-18 -18l8 -17q10 -18 16 -72
q10 -77 19 -77q5 0 14 6q14 7 32 7q20 0 32 -7q24 -16 24 -53q0 -15 -5 -25q-12 -24 -61 -41q-18 -5 -34 -5q-61 0 -95 40q-27 32 -36 104q-7 52 -9.5 61t-10.5 11q-2 1 -24 1q-28 0 -44 -1l-58 -3v-54q0 -55 7 -55q9 0 22.5 -16t16.5 -30q1 -3 1 -10q0 -11 -7 -25
q-10 -22 -28 -27.5t-75 -5.5q-43 0 -55 1.5t-23 8.5q-26 17 -26 49q0 17 9.5 32t23.5 20l15 5v187q0 136 -1 163t-7 31q-8 6 -17.5 22t-9.5 24q0 12 8 29t16 22q30 20 98 29z" />
    <glyph glyph-name="S" unicode="S" horiz-adv-x="607" 
d="M304 732q37 6 85 6q51 0 73 -6q42 -12 55 -34q7 -14 7 -65q0 -31 -4 -39q-5 -14 -20.5 -22.5t-34.5 -8.5q-14 0 -20.5 3t-17.5 15q-16 19 -16 30q0 7 -2.5 10t-12.5 3t-68 -8q-80 -11 -114 -40q-14 -12 -27 -30t-13 -25q0 -10 30.5 -16.5t162.5 -27.5q69 -10 119 -54
q65 -59 65 -140q0 -88 -74 -129q-35 -18 -92.5 -30t-112.5 -12q-4 0 -12 0.5t-11 0.5q-48 3 -96 11.5t-58 16.5q-29 22 -38 78q-4 20 -4 38q0 30 24 46q14 10 32 10q23 0 41.5 -15t18.5 -37q0 -11 4 -17q3 -5 57 -12q29 -4 50 -4t46 4q73 10 97 28q10 7 10 23q0 34 -33 58
q-26 19 -97 27q-133 16 -183.5 43t-60.5 87q-2 14 -2 21q0 67 65 132q35 35 75.5 53t106.5 28z" />
    <glyph glyph-name="T" unicode="T" horiz-adv-x="622" 
d="M169 741q74 10 136 10h80h63q54 0 70 -8q17 -8 26.5 -25.5t17.5 -55.5q5 -25 5 -31q0 -7 -5 -20q-14 -33 -53 -33h-7q-23 1 -36 15q-10 12 -15 28l-2 12h-100v-66q0 -173 -12 -303l-3 -34l13 -3q50 -11 50 -61q0 -21 -17 -38l-18 -17l-93 3q-76 2 -95 6.5t-29 21.5
q-7 14 -7 30q0 18 7 32q11 22 51 28q14 2 18 4.5t5 12.5q4 25 14 311l3 69h-15q-27 0 -37.5 -5t-17.5 -19q-7 -17 -24 -28q-12 -8 -29 -8q-18 0 -33 10t-21 26q-4 12 -4 36q0 46 11 62q21 28 103 38z" />
    <glyph glyph-name="U" unicode="U" horiz-adv-x="695" 
d="M427 725q13 9 47 9q28 0 74.5 -6t61.5 -12q29 -11 29 -52q0 -42 -30 -53l-14 -5v-51q0 -203 -18 -270q-26 -100 -92 -145q-41 -29 -116 -29q-94 0 -163.5 44t-96.5 120q-6 19 -8 48t-2 131v152l-12 5q-14 5 -22.5 20.5t-8.5 34.5q0 20 18 39l18 17l53 -2q76 -4 97 -21
q19 -16 19 -43q0 -9 -3 -18q-3 -12 -14.5 -25t-21.5 -16q-6 -1 -6 -142v-140l15 -22q13 -19 21 -26t32 -19q24 -13 39 -16t49 -3q28 1 35 3t19 14q28 28 37 67.5t14 164.5q3 68 3 111q0 23 -1 24q-3 7 -19 7q-24 0 -40 18t-16 41q0 27 23 46z" />
    <glyph glyph-name="V" unicode="V" horiz-adv-x="677" 
d="M113 714q18 3 55 3q45 0 59 -10q26 -17 26 -48q0 -36 -26 -49q-13 -7 -13 -8t49 -144t57 -166l9 -26l22 43q62 123 92 215q20 62 20 64q0 3 -15 9q-29 11 -36 44q0 1 -0.5 4t-0.5 4q0 15 9 30t23 22q12 6 28 6q13 0 47 -3q51 -5 64.5 -8t23.5 -15q16 -18 16 -39
q0 -27 -22 -46q-11 -10 -16.5 -22.5t-18.5 -53.5q-35 -110 -103 -251q-37 -77 -59 -107t-48 -42q-21 -10 -36 -10q-2 0 -6 0.5t-6 0.5q-31 3 -46.5 22t-37.5 80q-24 67 -71 207t-51 155q-5 21 -18 29q-27 14 -27 52q0 16 8 30q12 23 49 28z" />
    <glyph glyph-name="W" unicode="W" horiz-adv-x="805" 
d="M116 752q30 3 50 3q41 0 61 -20q15 -17 15 -40q0 -32 -23 -47q-11 -8 -11 -20q0 -26 50 -199q25 -86 29 -104l6 -22l13 35q20 54 40 74.5t52 20.5q30 0 53 -20t53 -73l22 -38l7 23q17 58 41 178q21 104 21 112q0 6 -4 6h-4q-11 0 -25 9.5t-20 21.5q-5 9 -5 23q0 38 30 54
q10 5 57 5h24l72 -2l15 -16q15 -17 15 -37q0 -16 -8 -32t-18 -19q-8 -3 -18 -60q-18 -104 -50 -233t-49 -168q-25 -56 -69 -56q-9 0 -14 1q-21 3 -39 24t-46 76q-31 59 -32 59l-12 -29q-11 -27 -35.5 -64t-39.5 -48q-20 -15 -43 -15q-34 0 -51 28q-22 36 -51 148
q-15 59 -32 115q-42 134 -51 208q-2 25 -13 34q-23 18 -23 45q0 11 5 26q11 29 55 33z" />
    <glyph glyph-name="X" unicode="X" horiz-adv-x="709" 
d="M415 752l18 19l62 -2q53 -2 70.5 -8t26.5 -25q6 -14 6 -28q0 -23 -14 -39.5t-35 -16.5q-9 0 -21.5 -14t-51.5 -65q-19 -27 -51 -66q-22 -29 -22 -35q0 -4 72.5 -98.5t89.5 -114.5q12 -15 25 -11q1 0 3.5 0.5t3.5 0.5q14 0 30 -9t22 -21t6 -28q0 -27 -15 -42
q-13 -13 -38 -17t-85 -4q-53 0 -70 4.5t-27 22.5q-9 15 -9 32q0 18 11 34l10 16q-17 23 -51.5 68t-51.5 67l-24 -34q-26 -36 -51 -76l-28 -43l10 -19q8 -15 8 -24q0 -2 -2 -18q-4 -23 -15 -31q-23 -16 -94 -16h-13q-32 1 -45 14q-20 19 -20 45q0 35 35 53q6 3 28 36t22 39
q0 11 84 130q27 36 27 45q0 5 -39 50q-37 44 -61 77q-21 28 -30 35.5t-22 7.5q-12 0 -27 15t-17 30q-1 3 -1 10q0 31 24 48q8 6 21.5 8t59.5 4q17 1 41 1q28 0 39.5 -4.5t22.5 -18.5q9 -12 9 -35q0 -20 -7 -30q-7 -12 -2 -21q6 -9 34.5 -45t29.5 -35q19 24 41 53
q37 49 37 58q0 1 -2 12t-3 18q0 3 -0.5 7t-0.5 5q0 12 17 29z" />
    <glyph glyph-name="Y" unicode="Y" horiz-adv-x="579" 
d="M370 732q8 4 44 4q50 0 71 -6q31 -10 37 -41q2 -8 2 -13q0 -21 -21 -45q-14 -17 -20 -43q-23 -107 -75 -220l-19 -42l1 -49q1 -33 2.5 -41t6.5 -8q7 0 18 -11t17 -23q4 -8 4 -21q0 -35 -26 -50q-13 -7 -34 -7q-23 0 -42 1q-63 4 -75 9q-31 13 -31 51t30 53l13 7v110
l-21 24q-22 25 -55.5 82.5t-54.5 105.5q-17 38 -22.5 45.5t-16.5 9.5q-15 3 -29 17.5t-17 30.5q-1 3 -1 8q0 32 28 50q12 8 65 11q6 0 17.5 0.5t16.5 0.5q21 0 31 -2q18 -5 29.5 -21.5t11.5 -35.5q0 -14 -8 -28l-9 -15l11 -26q12 -27 42.5 -78t34.5 -51q9 0 36 117l9 33
l-10 8q-22 15 -22 46q0 39 31 53z" />
    <glyph glyph-name="Z" unicode="Z" horiz-adv-x="624" 
d="M102 730q13 7 31.5 8t98.5 1q258 0 285 -16q34 -19 34 -59q0 -14 -6 -28q-8 -20 -66.5 -109t-94.5 -137q-33 -45 -77 -93q-36 -40 -46 -50l-13 -15h205l3 18q3 21 20 34t37 13q25 0 41 -18q16 -19 16 -44q0 -5 -2 -25q-6 -57 -32 -82l-12 -11h-212q-150 0 -184 1t-43 6
q-32 18 -32 55q0 20 12.5 37.5t59.5 63.5q79 77 128 135.5t104 142.5l41 61l-58 2q-62 4 -109 4h-51l-3 -11q-5 -22 -21.5 -36t-36.5 -14q-15 0 -30 9q-27 16 -27 55q0 12 1 20q3 37 11.5 54.5t27.5 27.5z" />
    <glyph glyph-name="a" unicode="a" horiz-adv-x="585" 
d="M321 328l12 22q-20 -2 -44 -4q-54 -4 -80 -20.5t-37 -54.5q-2 -8 0 -12t11 -9q20 -12 39 -12q8 0 16 3q13 5 42 35.5t41 51.5zM224 631q33 7 63 7q26 0 36.5 -2.5t32.5 -12.5q63 -32 92 -91q21 -42 21 -117q0 -50 -10 -91q-3 -11 -11 -63q-3 -17 -3 -25q0 -12 6 -16
t25 -7q32 -5 46 -30q8 -12 8 -29q0 -33 -26 -48q-14 -9 -35 -9q-27 0 -58.5 13t-49.5 33q-18 18 -18 24q0 4 -20 -11q-47 -35 -101 -35q-40 0 -83 20q-84 42 -84 115q0 78 58 140q32 35 69 48.5t111 17.5q53 3 53 11q0 5 -15 22q-25 28 -46 28q-5 0 -19 -2q-44 -10 -84 -37
q-22 -16 -41 -16q-9 0 -27 7q-30 14 -30 51q0 11 2 17q6 22 48.5 49.5t89.5 38.5z" />
    <glyph glyph-name="b" unicode="b" horiz-adv-x="535" 
d="M351 363q-26 26 -69 26q-37 -1 -42 -6t-7 -45q-1 -17 -5 -76l-3 -30h38q26 0 34 2t21 13q43 33 44 76v11q0 18 -11 29zM108 717q22 4 55 4q37 0 51 -10q20 -13 24 -31t4 -90v-86l54 -2q41 -2 52.5 -4t33.5 -13q93 -48 97 -144v-15q0 -86 -62 -148q-33 -33 -62 -47
l-30 -14h-79q-56 0 -71 1t-28 8q-23 10 -29.5 24t-6.5 52q0 41 6.5 175t7.5 158l2 68h-16q-25 0 -40 15t-15 40q0 27 12 40.5t40 18.5z" />
    <glyph glyph-name="c" unicode="c" horiz-adv-x="532" 
d="M235 617q13 3 42 3q43 0 70 -6q108 -23 108 -89q0 -29 -17 -46t-42 -17q-29 0 -56 24q-13 11 -20 13.5t-27 3.5h-10q-32 0 -58 -31q-55 -63 -55 -137q0 -22 8 -40q13 -26 47 -44.5t70 -18.5q46 0 70 34q24 36 54 36q11 0 25 -6q32 -14 32 -50q0 -21 -12 -42
q-51 -89 -166 -89q-14 0 -21 1q-67 4 -122.5 39t-82.5 90q-11 23 -13.5 33t-2.5 39v16q0 53 12 93q21 70 68.5 124t98.5 67z" />
    <glyph glyph-name="d" unicode="d" horiz-adv-x="565" 
d="M328 378v11t-1 7t-3 5t-5 1t-28 -7q-33 -11 -62.5 -35.5t-45.5 -54.5q-11 -22 -11 -31q0 -11 13 -15q13 -5 25 -5q14 0 42 15t46 31q18 17 24 33t6 45zM289 689q0 36 23 47t69 11q31 0 46.5 -7t26.5 -25q7 -12 8.5 -25.5t1.5 -59.5q0 -72 -11 -173q-11 -105 -11 -174
q0 -31 3 -41q3 -8 17 -11q21 -4 34 -21t13 -38q0 -11 -2 -16q-6 -16 -17 -27q-10 -9 -17.5 -10.5t-38.5 -1.5t-39.5 1.5t-18.5 9.5q-17 13 -26 33l-10 21l-37 -18q-58 -27 -92 -27q-13 0 -28 3q-67 12 -101 49q-27 30 -27 79q0 42 23 91q14 29 50 66.5t65 54.5q65 36 120 36
h28l2 15q1 4 5 55l2 42l-17 3q-16 3 -30 18q-14 16 -14 40z" />
    <glyph glyph-name="e" unicode="e" horiz-adv-x="620" 
d="M348 498q-31 7 -65 7q-16 0 -20 -2q-29 -11 -53 -47l-14 -20l21 3q16 3 119 3h97l-6 10q-8 11 -34 26.5t-45 19.5zM222 612q23 8 50 8q20 0 35 -1q60 -2 93.5 -12.5t75.5 -40.5q22 -16 47.5 -45.5t33.5 -49.5q7 -15 7 -44t-8 -48q-16 -36 -52 -46q-10 -3 -174 -7l-159 -3
v-15q0 -12 15 -26q56 -49 160 -49q38 0 55.5 4t37.5 18q18 12 38 12q42 0 53 -39q3 -9 3 -17q0 -48 -68 -77q-41 -19 -119 -19q-93 0 -152 25q-44 18 -79.5 48t-49.5 61q-9 20 -9 77q1 86 36 162q19 40 56 75.5t74 48.5z" />
    <glyph glyph-name="f" unicode="f" horiz-adv-x="526" 
d="M251 700q24 4 36 4q77 0 139 -57q44 -41 44 -79q0 -26 -21 -47q-18 -18 -44 -18q-8 0 -22 4q-14 5 -34.5 25t-25.5 35t-19 17q-17 2 -22 1q-8 -2 -22.5 -28.5t-18.5 -48.5q-5 -23 -5 -29q0 -11 21 -11h4q17 0 23 -2.5t18 -14.5t15 -18t3 -19q0 -25 -15 -42t-37 -17h-3
q-21 0 -24.5 -8t-4.5 -56l-2 -59h11q19 0 36 -18.5t17 -39.5q0 -9 -9 -29q-10 -19 -29 -23.5t-90 -4.5h-82l-13 12q-12 12 -18 28q-2 5 -2 16q0 20 13.5 37t34.5 21l16 2v117h-12q-13 0 -27.5 10t-20.5 24q-5 13 -5 24q0 20 12 35.5t33 21.5l18 5q5 19 8 42q16 99 65 151
q30 31 61 37z" />
    <glyph glyph-name="g" unicode="g" horiz-adv-x="590" 
d="M391 112q-8 2 -64 2q-78 0 -124 -23q-11 -6 -23 -19t-12 -19q0 -19 62 -26q24 -3 43 -3q36 0 67 14q23 12 40.5 31.5t17.5 32.5q0 7 -7 10zM326 508q-30 7 -41 7q-32 0 -51 -17q-11 -10 -20.5 -32t-10.5 -42q-1 -6 -1 -15q0 -13 9 -22q18 -19 72 -19q29 0 41 7.5t22 32.5
q10 21 10 58l1 34zM381 629q30 5 63 5q34 0 51 -5q39 -11 39 -55q0 -23 -9 -33q-8 -10 -20.5 -17.5t-21.5 -7.5q-8 0 -8 -13q0 -2 0.5 -6.5t0.5 -7.5v-15q0 -82 -33 -135q-27 -44 -58 -64t-77 -24q-36 -2 -36 -10q0 -3 1.5 -4.5t6 -2.5t14 -1.5t25.5 -0.5q95 0 133 -14
q11 -4 26.5 -21t25.5 -35q10 -19 10 -59q0 -35 -8 -55q-15 -39 -62 -83q-30 -27 -78.5 -43t-98.5 -16q-3 0 -9.5 0.5t-9.5 0.5q-142 10 -181 91q-9 20 -9 51q0 61 24 88q6 8 5 8t3 6.5t11.5 19t15.5 25.5q30 47 37 65q2 8 2 10q0 6 -21 26q-23 22 -36 45q-9 16 -10.5 26
t-1.5 43q0 38 5 60t22 58q30 62 87 85q32 13 82 13q17 0 40 -1h23h4q15 0 31 3z" />
    <glyph glyph-name="h" unicode="h" horiz-adv-x="544" 
d="M150 737q10 6 25 6q38 0 57 -29q8 -11 9 -110q1 -95 7 -95l1 1h1q36 15 83 15q32 0 50 -7q19 -8 40 -28.5t29 -39.5q16 -37 16 -132q0 -24 -1 -35q-2 -28 -2 -30q0 -12 10 -25q16 -19 16 -40q0 -8 -1 -13q-6 -47 -86 -54q-3 0 -7.5 -0.5t-6.5 -0.5q-41 0 -57 30
q-7 13 -7 25q0 14 11 35q8 18 10 32.5t2 73.5q0 82 -7 89q-5 5 -15 5q-15 0 -32.5 -10t-26.5 -24q-9 -13 -27 -93l-11 -48l10 -15q10 -14 10 -33q0 -37 -32 -51q-23 -9 -71 -9q-40 0 -53 7q-27 13 -27 50q0 12 6.5 28t11.5 16q1 0 9 6q9 6 15 82q3 38 10 96.5t8 118.5l3 77
h-20q-24 0 -39 16t-15 41v8q4 41 58 52q21 5 36 12z" />
    <glyph glyph-name="i" unicode="i" horiz-adv-x="371" 
d="M169 553q13 4 29 4q45 0 65 -40q8 -15 11 -143l3 -127q0 -2 7 -2q6 0 19 -15q14 -17 14 -39q0 -29 -17 -44t-61 -22q-40 -7 -63 -7q-73 0 -73 60q0 43 40 55l18 5l-3 59l-3 96v36l-29 -3q-3 0 -8 -0.5t-7 -0.5q-15 0 -29 8q-26 17 -26 48q0 2 0.5 5.5t0.5 4.5q6 41 60 51
q33 7 52 11zM160 712q13 9 30 9t31.5 -10t20.5 -27q4 -9 4 -22q0 -25 -18 -41.5t-41 -16.5q-25 0 -42 21q-14 17 -14 37q0 30 29 50z" />
    <glyph glyph-name="j" unicode="j" horiz-adv-x="362" 
d="M105 529q20 4 85 4q68 0 84 -8q32 -15 32 -51q0 -38 -35 -53l-17 -7v-138q0 -109 -3.5 -147t-16.5 -63q-17 -33 -52.5 -56t-67.5 -23q-18 0 -29 8q-26 19 -26 47q0 38 43 58q1 0 3 1q19 8 23 20q6 16 7 133v13l1 143l-23 3q-56 7 -56 62q0 20 13.5 35.5t34.5 18.5z
M150 709q6 3 18 3q27 0 41 -11q21 -15 21 -46q0 -26 -16 -42t-39 -16q-24 0 -42 16.5t-18 39.5q0 8 1 12q2 11 13 25t21 19z" />
    <glyph glyph-name="k" unicode="k" horiz-adv-x="579" 
d="M135 748q9 0 21.5 1t21.5 1.5t12 0.5h2q33 0 51 -27q8 -14 8 -42q0 -25 -6 -73q-13 -100 -13 -167l1 -8q1 -1 3 -1q9 0 32.5 5.5t31.5 9.5q12 6 12 27q0 35 32 51q16 8 66 8q42 0 57 -6q13 -5 23.5 -18t12.5 -27q0 -1 0.5 -3.5t0.5 -3.5q0 -21 -16.5 -40.5t-35.5 -19.5
q-4 0 -30 -23t-26 -27q0 -2 27 -36q29 -37 49 -65q22 -31 35 -44q17 -17 17 -42q0 -41 -37 -56q-6 -2 -13 -2q-15 0 -60 7q-49 8 -63.5 14t-24.5 22q-9 13 -9 29q0 21 18 41q4 6 4 8q0 6 -29 40l-34 39l-23 -3q-24 -2 -26 -4t-6 -38l-4 -37l15 -16q15 -18 15 -36
q0 -37 -30 -53q-10 -4 -46.5 -9t-60.5 -5q-11 0 -14 1q-18 3 -30 21t-12 39q0 5 2 15t15.5 23t21.5 13q5 0 7 10q5 21 16 217q6 88 9 120q1 7 2 16t1.5 14t0.5 8q0 6 -2 9t-5 4t-10 2q-24 4 -38 20.5t-14 37.5q0 15 5 25q7 17 21.5 24t48.5 9z" />
    <glyph glyph-name="l" unicode="l" horiz-adv-x="323" 
d="M125 686q24 9 45 9q41 0 58 -31q8 -15 8 -113q0 -87 -4 -219l-4 -121l14 -12q26 -20 26 -48q0 -14 -7 -28q-11 -20 -30.5 -25.5t-77.5 -6.5l-68 -1l-13 14q-16 19 -16 39q0 9 1 14q2 15 16.5 30t25.5 15h11l3 97q3 69 5 182l3 85l-15 6q-28 10 -33 47q0 1 -0.5 4t-0.5 5
q0 38 53 58z" />
    <glyph glyph-name="m" unicode="m" horiz-adv-x="850" 
d="M105 637q21 5 43 5q18 0 27 -5q10 -5 24.5 -22t17.5 -28l4 -10l13 8q38 22 89 22h14q42 -1 65 -14t33 -26q3 -4 5 -8t3.5 -5.5t2.5 -1.5q4 0 11 7q57 52 126 52h11q37 -4 71.5 -28t52.5 -59q27 -53 35 -213l5 -93l16 -16q21 -19 21 -41q0 -14 -7 -27q-10 -20 -26.5 -26.5
t-56.5 -6.5q-56 0 -78 19q-16 16 -16 40q0 25 17 42q8 8 9.5 15.5t1.5 36.5q0 66 -8.5 132t-20.5 88q-10 20 -31 20q-5 0 -8 -1q-12 -3 -33 -23.5t-28 -35.5q-16 -33 -22 -151l-3 -62l16 -5q16 -6 26 -21t10 -33q0 -13 -6 -25q-11 -20 -25.5 -26.5t-60.5 -10.5
q-19 -2 -42 -2q-19 0 -29 5q-32 15 -32 52q0 21 11 36l11 16l-1 123q-1 120 -10 142q-5 13 -9 15.5t-18 2.5q-49 0 -78 -62q-15 -33 -22 -164l-3 -57l13 -16q17 -18 17 -41q0 -18 -11 -35q-9 -13 -26 -18t-64 -7l-58 -3l-19 18q-17 17 -17 29q0 1 0.5 5.5t0.5 7.5
q3 26 14 37t21 16q3 1 4.5 4.5t2.5 21t1 47v88.5v160l-11 2q-13 2 -25 18q-12 13 -12 26q0 9 1 16q2 26 12.5 37t37.5 17z" />
    <glyph glyph-name="n" unicode="n" horiz-adv-x="580" 
d="M142 623q10 2 15 2q24 0 41 -15t21 -41l2 -15l17 16q17 17 48 31q33 16 69 16q37 0 59 -11.5t41 -39.5q23 -35 31 -64.5t9 -94.5v-37q0 -50 -2 -96l-4 -57l17 -15q17 -14 19 -40q1 -5 1 -14q0 -12 -9 -24q-12 -16 -25 -21q-12 -5 -68 -5q-36 0 -45 2q-14 3 -27.5 16
t-15.5 27q0 1 -0.5 4t-0.5 4q0 16 8 32.5t18 22.5q9 5 11 10.5t2 26.5q0 25 4 101q1 19 1 51q0 63 -14 91q-9 17 -11 17q-7 0 -25.5 -12.5t-28.5 -24.5q-34 -38 -60 -112.5t-26 -125.5q0 -29 10 -40q12 -14 12 -34q0 -27 -19 -46q-11 -11 -44 -16q-24 -3 -44 -3
q-41 0 -54 12q-19 19 -19 43q0 20 14 40q16 21 20.5 54t5.5 135l1 129l-14 7q-30 13 -30 51q0 4 2 14q9 41 56 45q6 0 13 1t12 2t6 1z" />
    <glyph glyph-name="o" unicode="o" horiz-adv-x="607" 
d="M383 460q-23 23 -41 23q-3 0 -21 -2q-47 -8 -73.5 -22.5t-45.5 -42.5q-30 -44 -30 -101q0 -22 7 -48q8 -25 22 -38t41 -18q45 -8 73 -8q69 0 95 51q24 48 24 95q0 39 -16 67q-13 24 -35 44zM314 599q25 4 41 4q14 0 34 -7q56 -19 105 -81q45 -57 54 -121q3 -22 3 -45
q0 -82 -35.5 -149t-95.5 -95l-32 -15h-78q-80 0 -113 10q-121 36 -139 175q-3 22 -3 44q0 96 56 173q67 89 203 107z" />
    <glyph glyph-name="p" unicode="p" horiz-adv-x="633" 
d="M437 486q-16 19 -33 19q-4 0 -20 -2q-28 -4 -58 -24.5t-46 -47.5q-5 -8 -10 -14t-7 -8.5t-4 -9t-2.5 -16.5t-0.5 -29v-47l21 -12q17 -11 36 -11h8q56 3 92 40q48 48 48 100q0 35 -24 62zM127 652q37 3 58 3q39 0 59 -20q12 -10 14 -25q4 -25 10 -25l24 11q49 25 110 25
q33 0 49 -5.5t42 -24.5q46 -34 70 -97q13 -33 14 -78q0 -40 -7.5 -65t-32.5 -64q-49 -77 -127 -106q-37 -14 -102 -14q-28 0 -40 4q-16 5 -18 4q-2 -2 -6 -82q-2 -52 -2 -55q0 -26 7 -27q8 -2 18.5 -16.5t12.5 -26.5q0 -1 0.5 -3.5t0.5 -4.5q0 -33 -27 -51q-14 -9 -75 -9
q-50 0 -65.5 4.5t-26.5 21.5q-9 14 -9 30q0 38 33 54l14 6v37q0 17 5 94q5 76 8 194q6 161 7 166l3 27h-24q-29 0 -48.5 17.5t-19.5 41.5q0 13 6 25q8 17 21.5 24.5t43.5 9.5z" />
    <glyph glyph-name="q" unicode="q" horiz-adv-x="652" 
d="M388 456q-18 10 -64 11l-46 2l-26 -17q-34 -23 -57 -59.5t-23 -66.5q0 -11 5 -23q15 -29 99 -29q37 0 59 8.5t66 39.5l36 26v37q0 28 -2 34t-13 15q-13 12 -34 22zM461 630q20 8 28 8q13 0 28 -8.5t22 -21.5l10 -15q1 -96 1 -288.5t1 -288.5l13 -7q12 -7 21 -22t9 -27
q0 -34 -27 -51q-17 -9 -72 -9q-49 0 -66 5t-27 23q-8 12 -8 30q0 39 28 52q8 4 9.5 11t1.5 38q0 53 3 93l3 49l-35 -17q-57 -28 -111 -28q-10 0 -44 2q-80 7 -122 31t-61 73q-10 28 -10 66q0 29 6 53q13 54 58 108.5t99 80.5q30 14 83 15h15q73 0 104 -14q3 -2 5 -1.5
t2.5 2.5t0.5 7q0 36 32 51z" />
    <glyph glyph-name="r" unicode="r" horiz-adv-x="534" 
d="M135 628q12 5 24 5q25 0 39 -11q13 -11 21 -27q9 -14 12 -14q1 4 39 19q25 10 38.5 12t49.5 2q46 0 65 -6.5t37 -28.5q18 -21 18 -47t-18 -44t-44 -18q-25 0 -46 18q-11 10 -26 10q-12 0 -30 -8q-23 -10 -41 -37.5t-25 -62.5q-15 -69 -15 -145q0 -22 14 -36
q11 -11 17 -27q2 -5 2 -16q0 -21 -13.5 -38t-33.5 -20q-18 -2 -40 -7q-20 -4 -38 -4q-43 0 -58 35q-6 15 -6 23q0 11 17 54q18 48 18 56v21v95l-1 104l-13 2q-18 4 -30 20t-12 37q0 13 4 22q7 18 34 37q31 21 41 25z" />
    <glyph glyph-name="s" unicode="s" horiz-adv-x="541" 
d="M245 650q24 6 48 6q20 0 61 -4.5t61 -4.5l36 1l15 -15q20 -21 20 -67q0 -34 -16 -53t-45 -19q-24 0 -65 28q-16 11 -25 13.5t-30 2.5q-23 0 -31.5 -2.5t-27.5 -15.5q-25 -17 -32.5 -27t-7.5 -29q0 -24 15 -35t62 -22q106 -26 147.5 -58.5t45.5 -96.5q1 -7 1 -19
q0 -17 -7 -32q-36 -83 -185 -93q-10 -1 -27 -1q-51 0 -88 17q-19 8 -24 8q-4 0 -10 -3q-8 -4 -21 -4q-23 0 -39 11q-22 16 -22 55q0 2 0.5 7.5t0.5 8.5q5 54 30 71q17 11 35 11q26 0 48 -21q22 -20 38 -30q13 -9 22.5 -10.5t41.5 -1.5q88 2 88 22q0 17 -75 37q-74 18 -96 27
t-46 32q-32 31 -41 53t-9 71q0 36 2 46.5t11 27.5q18 32 60.5 65t80.5 43z" />
    <glyph glyph-name="t" unicode="t" horiz-adv-x="506" 
d="M204 708q13 7 27 7q34 0 52 -32q6 -11 6 -26q0 -2 -2 -38l-4 -50h27q32 0 49.5 -15.5t17.5 -43.5q0 -55 -72 -59l-35 -3l-5 -37q-5 -35 -5 -102q0 -47 1 -57.5t8 -17.5q9 -10 31 -10q14 0 20.5 3t20.5 16q32 29 54 29q24 0 40.5 -18.5t16.5 -43.5q0 -17 -9 -32
q-20 -33 -73 -58q-28 -12 -74 -12t-67 9q-20 10 -41.5 32t-32.5 44q-8 18 -9.5 33t-1.5 72q0 87 3 114l4 33l-31 2q-29 1 -44 15q-19 19 -19 44q0 22 17 41q8 10 41 24q36 14 45.5 24.5t10.5 38.5q2 34 9 50t24 24z" />
    <glyph glyph-name="u" unicode="u" horiz-adv-x="599" 
d="M107 648q16 2 26 2q37 0 55 -10q13 -7 22 -26q6 -13 7.5 -41t2.5 -142l1 -165l10 -8q9 -8 32 -8q22 0 35 14q27 28 46 98.5t19 134.5q0 19 -1.5 24.5t-9.5 10.5q-10 6 -17 20t-7 28q0 12 11 30q10 17 25 22.5t49 5.5q48 0 65 -21.5t21 -90.5q3 -33 3 -108q-1 -27 -1 -77
q0 -112 7 -117q25 -21 30.5 -28t6.5 -25v-10q0 -18 -7 -27q-17 -27 -51 -27q-7 0 -10 1q-42 6 -59.5 17.5t-24.5 36.5l-6 22l-17 -16q-23 -21 -44 -27.5t-64 -6.5q-35 0 -46 2t-29 11q-24 12 -43.5 34t-29.5 46q-7 18 -8.5 43t-2.5 122v140l-17 8q-30 16 -30 51q0 16 7 29
q11 23 44 28z" />
    <glyph glyph-name="v" unicode="v" horiz-adv-x="635" 
d="M415 613q18 9 67 9q53 0 70 -10q27 -16 27 -47q0 -29 -25 -50q-13 -11 -24 -54q-23 -90 -71 -189q-69 -143 -135 -158q-12 -3 -19 -3t-25 8q-19 9 -30 23q-18 24 -43 95t-43 144q-14 58 -18 73l-4 18l-19 -2q-1 0 -4.5 -0.5t-5.5 -0.5q-24 0 -40.5 16t-16.5 39q0 15 8 31
q6 12 13 18t28 16q31 15 59 15q38 0 59 -28q23 -31 49 -139q11 -45 27 -102t21 -65q1 -2 7 7l11 17q23 41 47.5 103t29.5 92q4 18 -6 23t-18 20t-8 29q0 37 32 52z" />
    <glyph glyph-name="w" unicode="w" horiz-adv-x="801" 
d="M619 648q48 3 64 3q19 0 32 -7q29 -15 29 -50q0 -25 -17 -42q-12 -14 -18 -14t-13 -36q-4 -19 -22.5 -90t-21.5 -86q-2 -15 -19 -72t-27 -85q-21 -57 -65 -57q-13 0 -28 6q-32 15 -93 107l-14 21l-20 -35q-35 -61 -66 -75q-19 -8 -34 -8q-40 0 -66 54q-46 94 -93 240
q-6 20 -13.5 42.5t-11.5 33.5l-3 12q-3 2 -6 2q-8 0 -20 12q-14 11 -16 37q-1 6 -1 14q0 14 9 26q3 5 6 8t7 6t6.5 4.5t8 3.5t8 2.5t10.5 1.5l12 1.5t15.5 1t17.5 1.5q21 2 45 2q20 0 30 -5q34 -14 34 -54q0 -36 -30 -51q-13 -6 -13 -9t29.5 -89t36.5 -101l10 -25l20 39
q13 27 19.5 35.5t19.5 15.5q18 9 31 9q2 0 6 -0.5t6 -0.5q24 -2 41 -15t47 -49l34 -43l22 83q13 47 19 75.5t9 40.5q7 24 7 33q0 7 -10 10q-8 1 -22 15q-15 17 -15 42q0 15 6 27q8 16 25 23t56 9z" />
    <glyph glyph-name="x" unicode="x" horiz-adv-x="647" 
d="M476 647q32 2 40 2q33 0 50 -10q25 -15 25 -46q0 -27 -19 -45q-16 -14 -27 -14q-7 0 -15 -8.5t-29 -39.5q-22 -34 -68 -89q-5 -6 -10.5 -12.5t-8.5 -10.5t-7 -8.5t-6.5 -7.5t-5 -6.5t-3.5 -5.5t-2 -4.5t-1.5 -4.5t-0.5 -4q0 -6 13 -30q26 -52 47 -52l1 1h2q33 10 44 10
q19 0 38 -19q10 -10 12.5 -16.5t2.5 -22.5q0 -23 -14 -39q-30 -34 -77 -34h-5q-80 0 -138 87q-14 21 -18 21q-3 0 -6 -5q-39 -49 -41 -66q-2 -19 -9 -30q-10 -16 -25 -21t-57 -7q-36 -2 -40 -2q-18 0 -31 6q-33 15 -33 54q0 13 6 25q5 11 20.5 21t27.5 10t28 15t68 75l43 49
l-28 74q-24 61 -29 67q-5 4 -13 4q-9 0 -27 -3h-7q-23 0 -38.5 17t-15.5 40q0 21 11 34.5t38 26.5q31 15 60 15q19 0 32 -7q29 -15 49.5 -44t41.5 -85q14 -35 18 -35l5 5q4 6 12 16.5t14 18.5q28 35 28 44q0 5 -3 6q-7 4 -7 23q0 16 6 30q8 20 24.5 27t57.5 10z" />
    <glyph glyph-name="y" unicode="y" horiz-adv-x="672" 
d="M110 587q9 25 31.5 34t67.5 9q43 0 58 -9q27 -17 27 -51q0 -12 -9.5 -27t-21.5 -22q-13 -7 -13 -12q0 -11 14 -50.5t24 -57.5q29 -48 57 -72l21 -18l23 62q21 56 45 111q18 42 18 53q0 4 -1 5q-4 8 -4 22q0 20 8 34q10 16 27 21.5t55 5.5q28 0 37 -1.5t19 -9.5
q22 -18 22 -46q0 -30 -24 -47q-18 -13 -42 -68q-18 -41 -50 -122q-93 -245 -162 -323q-18 -20 -54 -49t-53 -37q-33 -15 -70 -15q-44 0 -73 21t-29 58q0 32 23.5 51.5t66.5 22.5q3 0 10.5 0.5t11.5 0.5q15 0 27 -2t14 -2q8 0 24 16q33 31 68 100l15 30l-11 7
q-134 89 -167 259q-10 51 -19 62q-14 16 -14 38q0 9 3 18z" />
    <glyph glyph-name="z" unicode="z" horiz-adv-x="630" 
d="M362 614q12 1 38 1q78 0 97 -7q45 -17 45 -71q0 -25 -12 -57q-18 -45 -63.5 -106.5t-85.5 -95.5q-32 -27 -51 -40l-11 -8l30 -2q34 -4 70 -4h40l5 13q14 33 54 33q38 0 53 -31q6 -12 6 -29q0 -53 -33 -83q-13 -13 -31 -16.5t-76 -3.5q-9 0 -37 0.5t-46 0.5q-167 2 -211 5
t-59 11q-30 16 -30 54q0 23 16 37t85 54q88 50 118 73q68 52 113 124l22 34l-38 -3q-9 -1 -27 -1.5t-42.5 -1.5t-39.5 -2q-50 -2 -61 -4t-13 -9q-5 -16 -23 -27.5t-36 -11.5q-10 0 -14 2q-15 5 -27 17t-14 25v5q0 16 5 43q13 56 52 67q11 3 60.5 6t107.5 6t64 3z" />
    <glyph glyph-name="nbsp" unicode="&#xa0;" 
 />
  </font>
</defs>
</svg>
